<?xml version="1.0" encoding="UTF-8"?>
<svg id="Layer_1" xmlns="http://www.w3.org/2000/svg" version="1.1" viewBox="0 0 1719.06 798.84">
  <!-- Generator: Adobe Illustrator 29.4.0, SVG Export Plug-In . SVG Version: 2.1.0 Build 152)  -->
  <g id="flower1">
    <g>
      <path d="M416.07,340.29c-.08-.36-.17-.7-.29-1.05-.2-.59-.45-1.17-.76-1.71-.31-.54-.66-1.05-1.06-1.53-.4-.48-.84-.92-1.33-1.32-.47-.39-.99-.76-1.54-1.07-.52-.29-1.58-.75-1.72-.8l.6-1.69.08.03c.65.24,2.18.67,2.88.74,1.41.15,2.66-.05,3.96-.6,5.66-2.43,7.45-10.62,4.39-15.56-2.94-4.74-8.58-7.08-13.54-9.06-1.9-.76-3.81-1.48-5.73-2.16-1.82-.64-3.77-1.54-5.7-1.64-.41-.02-.84,0-1.25.12-.23.06-.47.16-.68.28-.83.49-1.25,1.43-1.59,2.34-.77,2.04-1.58,4.12-2.34,6.19-.68,1.8-1.36,3.6-2.04,5.41-.74,2-1.5,3.98-2.24,5.98-.75,2-1.5,4.01-2.24,6.02-.68,1.85-1.36,3.69-2.02,5.54-.54,1.5-1.07,3-1.6,4.5-.34.98-.67,1.96-.97,2.95-.06.24-.14.48-.17.72-.35,2.29.73,3.41,2.79,4.26,3.13,1.29,6.38,2.49,9.57,3.64,3.21,1.15,5.79,2.03,9.16,2.54,2.54.38,5.78.39,8.18-.5,2.24-.83,3.88-2.24,5.2-4.23,1.6-2.39,2.57-5.56,1.97-8.37ZM402.97,340.27l.55-1.5c-.03.25-.1.51-.2.78-.1.26-.22.51-.35.72Z" fill="#54b948"/>
      <path d="M381,329.47c-4.96,12.77-15.32,13.04-24.44,8.3-9.11-4.73-10.71-14.68-5.39-27.51,5.32-12.84,14.45-15.31,19.6-15.6,5.15-.29,12.49,2.68,15.49,4.41,3.66,2.11,1.31,7.23-.2,10.04-.77,1.42-2.12,1.81-3.59,1.22-.84-.34-1.58-.86-2.36-1.33-.79-.48-1.63-.9-2.48-1.27-1.69-.71-3.49-1.19-5.33-1.29-2.01-.11-4.06.3-5.79,1.31-1.6.93-2.85,2.32-3.93,3.8-.2.28-2.54,3.81-2.46,3.86l1.1.6c5.17-8.77,12.19-5.72,14.19-4.73,2,1.01,10.57,5.4,5.61,18.19Z" fill="#54b948"/>
      <path d="M532.86,353.63c-.2.09-.39.19-.56.33.15-.16.35-.26.56-.33Z" fill="#54b948"/>
      <path d="M594.84,339.56c-.2.36-.48.69-.8.97-1.44,1.29-3.46,2.04-5.18,2.86-1.84.88-3.69,1.72-5.57,2.53-4.91,2.11-10.55,4.44-15.98,3.17-5.66-1.33-10.2-8.38-7.9-14.1.52-1.32,1.27-2.34,2.38-3.23.53-.44,1.92-1.22,2.56-1.51l.08-.04-.77-1.61c-.14.05-1.21.49-1.8.64-.6.17-1.21.28-1.83.34-.62.06-1.25.06-1.87,0-.62-.05-1.23-.16-1.83-.33-.61-.16-1.19-.39-1.76-.67-.32-.17-.62-.34-.93-.54-2.42-1.56-3.96-4.48-4.52-7.31-.47-2.33-.31-4.49.68-6.66,1.08-2.33,3.37-4.61,5.43-6.14,2.75-2.02,5.2-3.23,8.28-4.68,3.07-1.44,6.21-2.9,9.34-4.19,2.08-.86,3.63-.83,4.99,1.04.15.2.26.43.39.63.49.91.95,1.84,1.4,2.78.7,1.43,1.38,2.87,2.06,4.31.84,1.78,1.66,3.56,2.48,5.34.9,1.94,1.79,3.89,2.67,5.83.89,1.94,1.77,3.87,2.64,5.81.8,1.76,1.6,3.52,2.38,5.27.93,2,1.83,4.04,2.73,6.04.39.89.77,1.84.53,2.78-.06.24-.16.47-.28.69Z" fill="#54b948"/>
      <path d="M620.76,303.38c-5.32-12.85-13.48-18.73-23.28-15.64-9.79,3.1-16.93,10.61-11.41,23.16,5.52,12.55,14.7,9.59,16.82,8.89,2.12-.71,9.24-3.52,6.7-13.37l1.19-.36c.11.04.94,4.13,1,4.47.29,1.81.38,3.68-.09,5.47-.51,1.94-1.68,3.67-3.18,5.01-1.36,1.23-2.99,2.16-4.68,2.86-.86.35-1.75.65-2.65.86-.88.22-1.77.37-2.61.73-1.47.62-2.13,1.86-1.67,3.4.91,3.05,2.86,8.34,6.96,7.24,3.34-.9,10.64-3.98,14.07-7.83,3.44-3.85,8.15-12.04,2.83-24.88ZM603.23,309.46c.13-.05.26-.1.38-.16.84-.39,1.6-.97,2.18-1.72-.46,1.03-1.47,1.71-2.56,1.88Z" fill="#54b948"/>
      <path d="M541.35,283.41c-1.98,4.96-4.32,10.59-9.06,13.54-4.93,3.07-13.13,1.29-15.55-4.38-.56-1.31-.76-2.56-.6-3.97.06-.69.5-2.22.74-2.87l.03-.08-1.69-.6c-.06.14-.51,1.19-.81,1.72-.3.55-.67,1.05-1.07,1.54-.39.47-.84.92-1.31,1.32-.47.41-.99.76-1.53,1.06-.54.31-1.12.57-1.71.77-.34.11-.69.21-1.03.28-2.82.6-5.97-.37-8.37-1.97-1.98-1.32-3.4-2.96-4.23-5.2-.9-2.4-.89-5.64-.5-8.18.51-3.38,1.39-5.96,2.55-9.17,1.14-3.19,2.34-6.43,3.63-9.56.86-2.07,1.98-3.15,4.26-2.79.25.04.49.11.72.18.99.29,1.97.63,2.95.96,1.51.52,3.01,1.06,4.51,1.6,1.85.66,3.69,1.34,5.53,2.02,2.02.74,4.03,1.48,6.03,2.24,2,.74,3.98,1.49,5.98,2.24,1.8.67,3.61,1.36,5.4,2.03,2.08.77,4.15,1.57,6.2,2.35.91.35,1.84.75,2.34,1.58.13.22.22.45.28.69.11.4.15.82.12,1.25-.11,1.93-1,3.88-1.64,5.69-.68,1.93-1.39,3.84-2.15,5.73Z" fill="#54b948"/>
      <path d="M556.76,376.93c.51-3.8.18-7.8-1.5-11.24-1.3-2.65-3.36-4.88-5.75-6.61,1.98-1.58,3.58-3.55,4.49-6.06,1.6-4.37,1.14-9.18-.11-13.58-1.41-4.97-3.74-10-6.89-14.11-2.33-3.04-5.39-5.63-9.01-6.87-2.89-1-6.05-1.08-9.08-.56-.11.02-.21.03-.31.06.2-2.84-.14-5.64-1.3-8.11-1.97-4.22-5.69-7.29-9.68-9.53-4.51-2.51-9.72-4.42-14.84-5.09-3.8-.51-7.8-.18-11.24,1.5-2.32,1.15-4.32,2.87-5.94,4.88-2-2.49-4.42-4.53-7.27-5.57-4.38-1.59-9.18-1.14-13.58.11-4.96,1.42-9.99,3.75-14.1,6.89-3.05,2.33-5.64,5.38-6.88,9.02-.8,2.37-1.02,4.92-.77,7.42-3.36-.46-6.76-.23-9.68,1.13-4.23,1.97-7.31,5.69-9.53,9.68-2.51,4.52-4.43,9.71-5.11,14.84-.5,3.81-.18,7.8,1.51,11.24,1.31,2.67,3.4,4.91,5.81,6.65-2.07,1.61-3.75,3.63-4.69,6.21-1.6,4.37-1.14,9.18.11,13.58,1.41,4.96,3.74,9.99,6.89,14.1,2.33,3.05,5.38,5.64,9.01,6.88,2.9.99,6.05,1.08,9.08.56.16-.03.32-.06.49-.1-.22,2.87.12,5.71,1.28,8.19,1.97,4.22,5.69,7.31,9.68,9.53,4.52,2.51,9.71,4.43,14.84,5.11,3.8.51,7.8.18,11.24-1.51,2.29-1.13,4.26-2.82,5.87-4.81,1.98,2.43,4.37,4.42,7.17,5.44,4.38,1.59,9.18,1.14,13.59-.12,4.96-1.41,9.99-3.74,14.1-6.88,3.05-2.34,5.64-5.38,6.88-9.02.83-2.44,1.02-5.06.75-7.63,3.41.48,6.86.27,9.83-1.11,4.23-1.97,7.3-5.69,9.53-9.68,2.51-4.52,4.42-9.72,5.1-14.85ZM537.99,386.75c-1.53,1.68-3.55,2.84-5.85,2.93-3.1.1-5.98-1.56-8.41-3.3-.46-.33-.92-.67-1.45-.86-1.34-.49-2.15.36-2.7,1.49-1.04,2.16-2.37,4.87-2.2,7.32.01.24.05.45.11.66-.08.16-.1.31-.06.45.67,2.27,1.06,1.59,1.59,3.91,1.36,5.92-3.24,9.55-8.07,11.78-2.04.94-4.24,1.66-6.5,1.77-2.26.11-4.52-.49-6.2-2.06-1.05-.99-1.8-2.21-2.35-3.53.13-.58.24-1.17.33-1.77.19-1.25.1-2.37-.91-3.26-.76-.69-1.79-1.09-2.73-1.47-1.25-.5-2.1-.79-3.45-1.22-.81-.25-1.82-.55-2.62-.3-1.28.42-1.5,1.89-1.64,3.04-.28,2.36-.85,4.72-2.11,6.73-3.22,5.14-9.04,4.45-14.03,2.61-2.1-.78-4.17-1.83-5.85-3.34-1.68-1.52-2.84-3.54-2.92-5.85-.1-3.09,1.56-5.97,3.29-8.4.33-.46.67-.92.86-1.45.5-1.35-.36-2.15-1.5-2.7-2.16-1.04-4.86-2.37-7.31-2.19-1.23.09-2.17.73-2.93,1.61-.19.21-.36.44-.52.67-1.14.47-2.12.92-3.66,1.27-5.92,1.36-9.55-3.24-11.77-8.07-.95-2.04-1.67-4.24-1.78-6.5-.11-2.26.49-4.52,2.07-6.2,2.11-2.26,5.23-.98,6.32-2.23.03-.03.06-.08.08-.14.15-.11.28-.24.41-.38.68-.76,1.08-1.79,1.46-2.73.5-1.25.79-2.1,1.22-3.44.26-.81.56-1.81.3-2.62-.41-1.28-1.88-1.5-3.03-1.64-2.36-.28-4.73-.85-6.73-2.11-5.14-3.22-4.46-9.04-2.63-14.03.78-2.11,1.83-4.18,3.34-5.85,1.52-1.68,3.55-2.84,5.85-2.93,3.09-.1,5.97,1.56,8.41,3.3.46.33.91.67,1.44.86,1.35.5,2.16-.35,2.71-1.48,1.04-2.16,2.37-4.87,2.19-7.33-.02-.3-.08-.58-.15-.84,0,0,0-.02,0-.03,0,0,0-.02,0-.03-.68-2.27-1.07-1.6-1.6-3.91-1.35-5.92,3.24-9.55,8.07-11.78,2.04-.94,4.24-1.66,6.5-1.77,2.26-.12,4.52.49,6.2,2.06,1.12,1.05,1.91,2.37,2.46,3.8-.11.51-.2,1.04-.28,1.56-.18,1.24-.09,2.37.91,3.26.76.68,1.79,1.09,2.74,1.47,1.24.49,2.1.78,3.45,1.21.81.26,1.81.56,2.62.3,1.28-.41,1.5-1.88,1.64-3.03.29-2.35.85-4.73,2.12-6.73,3.22-5.14,9.04-4.46,14.03-2.63,2.11.78,4.18,1.83,5.85,3.34,1.68,1.53,2.84,3.55,2.93,5.85.1,3.1-1.56,5.98-3.3,8.41-.33.46-.67.92-.86,1.45-.49,1.34.35,2.15,1.49,2.7,2.16,1.04,4.87,2.37,7.32,2.2,1.23-.09,2.17-.74,2.93-1.61.23-.27.44-.56.65-.86,1.02-.41,1.96-.83,3.36-1.15,5.92-1.35,9.55,3.25,11.78,8.08.94,2.04,1.66,4.24,1.77,6.5.11,2.26-.49,4.52-2.07,6.2-1.3,1.39-2.97,1.45-4.33,1.57-.02,0-.04,0-.07,0-.41.04-.78.09-1.12.18-.05.02-.1.03-.15.06-.2.09-.39.19-.56.33-.04.02-.06.05-.09.08h0c-.12.1-.25.2-.36.33-.68.76-1.09,1.79-1.47,2.73-.49,1.24-.78,2.1-1.21,3.45-.26.81-.56,1.81-.3,2.62.41,1.28,1.88,1.5,3.03,1.64,2.36.28,4.73.85,6.73,2.11,5.14,3.22,4.46,9.04,2.63,14.03-.78,2.11-1.83,4.18-3.34,5.85Z" fill="#54b948"/>
      <path d="M548.94,261.91c-2.11,3.67-7.24,1.31-10.04-.2-1.42-.76-1.82-2.11-1.23-3.59.35-.84.87-1.58,1.34-2.35.48-.8.9-1.63,1.26-2.49.71-1.7,1.2-3.5,1.29-5.33.11-2-.3-4.05-1.3-5.79-.93-1.59-2.32-2.85-3.8-3.93-.28-.2-3.82-2.54-3.86-2.46l-.6,1.1c8.77,5.18,5.72,12.2,4.71,14.2-.99,1.99-5.4,10.57-18.18,5.61-12.77-4.97-13.04-15.33-8.3-24.44,4.74-9.12,14.67-10.72,27.51-5.39,12.84,5.32,15.31,14.44,15.6,19.59.29,5.15-2.68,12.5-4.41,15.49Z" fill="#54b948"/>
      <path d="M550.92,448.93c-.2.15-.42.27-.63.39-.91.51-1.84.95-2.77,1.41-1.44.7-2.88,1.38-4.32,2.06-1.77.83-3.56,1.65-5.34,2.47-1.94.9-3.89,1.8-5.84,2.68-1.94.89-3.87,1.77-5.81,2.64-1.75.79-3.51,1.59-5.26,2.38-2.01.92-4.04,1.83-6.04,2.72-.89.4-1.84.77-2.78.54-.24-.07-.47-.16-.68-.29-.36-.2-.68-.48-.97-.8-1.29-1.44-2.04-3.45-2.86-5.18-.88-1.84-1.72-3.69-2.53-5.56-2.1-4.91-4.44-10.55-3.16-15.99,1.32-5.65,8.38-10.19,14.1-7.9,1.31.53,2.34,1.28,3.23,2.38.43.54,1.21,1.93,1.51,2.56l.03.08,1.62-.77c-.06-.13-.49-1.21-.65-1.79-.17-.6-.27-1.22-.33-1.84-.06-.62-.06-1.24,0-1.86s.16-1.23.33-1.83c.16-.61.39-1.2.67-1.76.17-.32.34-.63.54-.93,1.57-2.41,4.49-3.97,7.31-4.53,2.33-.47,4.49-.31,6.67.69,2.33,1.07,4.6,3.36,6.13,5.43,2.03,2.75,3.23,5.2,4.68,8.28,1.44,3.06,2.9,6.21,4.19,9.34.86,2.07.84,3.62-1.03,4.98Z" fill="#54b948"/>
      <path d="M547.63,491.85c-12.84,5.32-21.04.61-24.89-2.82-3.85-3.44-6.93-10.72-7.83-14.08-1.1-4.08,4.19-6.04,7.25-6.95,1.54-.45,2.77.21,3.39,1.68.36.83.51,1.73.73,2.61.22.9.51,1.79.86,2.65.7,1.7,1.63,3.32,2.86,4.68,1.34,1.49,3.07,2.65,5.02,3.17,1.78.48,3.66.38,5.47.09.34-.05,4.43-.88,4.46-.99l-.36-1.2c-9.85,2.54-12.67-4.57-13.37-6.69-.71-2.12-3.66-11.3,8.88-16.82,12.55-5.52,20.07,1.62,23.16,11.41,3.1,9.79-2.79,17.96-15.64,23.27Z" fill="#54b948"/>
      <path d="M426.33,408.34c-1.07,2.33-3.37,4.61-5.43,6.13-2.76,2.03-5.2,3.23-8.29,4.69-3.07,1.44-6.2,2.89-9.33,4.19-2.08.86-3.63.83-4.99-1.04-.15-.19-.27-.42-.39-.63-.5-.9-.95-1.84-1.4-2.77-.7-1.44-1.38-2.87-2.06-4.32-.84-1.78-1.66-3.55-2.48-5.33-.9-1.95-1.8-3.89-2.68-5.84-.88-1.95-1.76-3.88-2.64-5.81-.79-1.76-1.59-3.51-2.38-5.27-.93-2-1.83-4.04-2.73-6.04-.39-.89-.76-1.84-.53-2.78.07-.24.17-.48.29-.69.21-.35.49-.68.79-.96,1.44-1.29,3.46-2.04,5.18-2.86,1.84-.88,3.7-1.73,5.57-2.53,4.91-2.11,10.55-4.44,15.98-3.17,5.66,1.33,10.2,8.38,7.9,14.09-.53,1.33-1.27,2.34-2.37,3.24-.54.44-1.93,1.22-2.56,1.51l-.07.03.77,1.62c.13-.06,1.2-.49,1.79-.65.6-.17,1.22-.27,1.83-.34.62-.05,1.25-.05,1.87,0,.62.05,1.23.16,1.83.32.61.17,1.18.4,1.75.68.32.16.63.34.93.53,2.41,1.57,3.96,4.49,4.52,7.31.47,2.34.31,4.51-.69,6.67Z" fill="#54b948"/>
      <path d="M378.65,434.67c-9.79,3.1-17.95-2.8-23.28-15.64-5.31-12.85-.61-21.04,2.83-24.88,3.43-3.85,10.73-6.94,14.07-7.83,4.1-1.1,6.05,4.19,6.96,7.24.46,1.54-.21,2.78-1.67,3.4-.84.35-1.73.5-2.61.72-.9.23-1.79.51-2.65.87-1.7.7-3.32,1.63-4.68,2.86-1.49,1.34-2.66,3.08-3.17,5.02-.48,1.79-.39,3.66-.1,5.48.05.34.88,4.43.99,4.46l1.2-.36c-2.54-9.86,4.57-12.67,6.7-13.38s11.3-3.65,16.82,8.89c5.52,12.55-1.61,20.06-11.41,23.16Z" fill="#54b948"/>
      <path d="M478.39,454.53c-1.16,3.19-2.35,6.44-3.64,9.57-.85,2.07-1.97,3.15-4.26,2.79-.25-.04-.48-.11-.72-.17-.99-.29-1.98-.63-2.95-.97-1.51-.52-3.01-1.06-4.51-1.6-1.85-.66-3.69-1.34-5.53-2.02-2.01-.74-4.01-1.49-6.02-2.24-2-.74-3.99-1.49-5.98-2.24-1.81-.69-3.61-1.36-5.41-2.04-2.07-.76-4.16-1.56-6.2-2.34-.9-.34-1.84-.75-2.34-1.59-.12-.21-.21-.45-.28-.68-.11-.4-.14-.83-.12-1.25.1-1.93,1-3.88,1.63-5.69.68-1.93,1.4-3.83,2.16-5.73,1.98-4.96,4.31-10.6,9.06-13.54,4.94-3.07,13.14-1.28,15.56,4.38.55,1.3.75,2.56.6,3.96-.07.69-.5,2.23-.74,2.88l-.03.08,1.69.6c.05-.14.51-1.2.8-1.72.31-.55.67-1.05,1.07-1.54.4-.48.84-.92,1.32-1.33.48-.39.99-.75,1.53-1.06.54-.31,1.12-.56,1.71-.76.34-.11.69-.21,1.05-.29,2.81-.6,5.97.38,8.37,1.97,1.98,1.32,3.39,2.96,4.22,5.21.89,2.4.88,5.63.49,8.17-.5,3.38-1.39,5.96-2.54,9.17Z" fill="#54b948"/>
      <path d="M465.34,489.52c-4.74,9.11-14.68,10.71-27.52,5.39-12.84-5.32-15.3-14.45-15.6-19.6-.29-5.14,2.69-12.48,4.41-15.48,2.12-3.67,7.24-1.31,10.05.2,1.42.77,1.81,2.12,1.22,3.6-.34.84-.86,1.57-1.33,2.35-.48.79-.91,1.63-1.26,2.48-.71,1.69-1.2,3.5-1.29,5.33-.11,2,.3,4.05,1.31,5.78.92,1.6,2.32,2.85,3.8,3.94.28.2,3.81,2.53,3.86,2.46,0,0,.6-1.11.6-1.11-8.77-5.17-5.72-12.19-4.73-14.19,1-2,5.4-10.57,18.19-5.61,12.77,4.96,13.04,15.33,8.3,24.44Z" fill="#54b948"/>
      <path d="M591.9,393.24c-.74,2.02-1.48,4.03-2.24,6.03-.74,2-1.49,3.98-2.24,5.98-.68,1.81-1.36,3.61-2.03,5.41-.76,2.07-1.57,4.15-2.35,6.19-.35.91-.75,1.85-1.58,2.35-.21.12-.45.21-.69.28-.4.11-.82.15-1.25.12-1.93-.1-3.88-1-5.69-1.64-1.93-.67-3.84-1.39-5.73-2.15-4.96-1.98-10.59-4.31-13.54-9.06-3.07-4.94-1.28-13.14,4.38-15.56,1.3-.55,2.56-.75,3.97-.6.69.06,2.22.5,2.87.74l.08.03.6-1.69c-.14-.05-1.19-.51-1.72-.8-.55-.31-1.05-.67-1.54-1.07-.47-.39-.92-.84-1.32-1.31-.4-.48-.75-1-1.06-1.53-.31-.54-.57-1.12-.77-1.71-.11-.34-.2-.7-.28-1.04-.6-2.81.37-5.98,1.97-8.37,1.32-1.98,2.96-3.4,5.2-4.23,2.4-.89,5.63-.88,8.18-.5,3.38.51,5.96,1.39,9.17,2.55,3.19,1.15,6.43,2.35,9.56,3.64,2.08.85,3.15,1.97,2.79,4.26-.04.24-.11.48-.17.72-.29.99-.63,1.98-.97,2.95-.52,1.51-1.06,3-1.6,4.5-.66,1.85-1.34,3.69-2.02,5.53Z" fill="#54b948"/>
      <path d="M535.5,353.94c-.41.04-.78.09-1.12.18.36-.13.73-.18,1.12-.18Z" fill="#54b948"/>
      <path d="M619.28,384.69c-9.11-4.73-19.47-4.47-24.44,8.3-4.97,12.78,3.61,17.18,5.61,18.19,2,1,9.02,4.04,14.2-4.72l1.1.6c.07.05-2.26,3.58-2.46,3.86-1.08,1.48-2.34,2.87-3.93,3.8-1.74,1.01-3.79,1.41-5.79,1.31-1.83-.1-3.64-.58-5.33-1.29-.86-.37-1.68-.78-2.48-1.27-.77-.46-1.51-.99-2.35-1.33-1.48-.6-2.83-.2-3.59,1.22-1.52,2.8-3.88,7.92-.2,10.04,2.99,1.73,10.34,4.71,15.49,4.41,5.15-.29,14.27-2.76,19.59-15.6,5.33-12.84,3.72-22.77-5.39-27.51ZM610.03,404.79c.27-.02.53-.05.79-.1-.25.07-.52.11-.79.1Z" fill="#54b948"/>
      <path d="M452.83,254.83c-1.55.46-2.78-.21-3.4-1.67-.36-.84-.5-1.73-.73-2.61-.22-.9-.51-1.79-.86-2.65-.7-1.7-1.63-3.32-2.86-4.68-1.34-1.49-3.07-2.65-5.02-3.17-1.78-.48-3.66-.39-5.47-.09-.34.05-4.43.88-4.46.99l.36,1.2c9.86-2.54,12.67,4.57,13.37,6.69.71,2.12,3.66,11.3-8.88,16.82-12.55,5.52-20.06-1.61-23.16-11.41-3.1-9.79,2.79-17.96,15.64-23.28,12.84-5.31,21.04-.61,24.88,2.83,3.85,3.43,6.93,10.72,7.83,14.07,1.09,4.09-4.2,6.05-7.24,6.96Z" fill="#54b948"/>
      <path d="M458.97,292.33c-1.32-.52-2.34-1.27-3.23-2.37-.44-.54-1.22-1.93-1.51-2.56l-.04-.08-1.62.78c.05.13.49,1.2.64,1.79.17.6.27,1.21.34,1.83.06.62.06,1.25,0,1.87s-.16,1.23-.33,1.83c-.16.61-.39,1.19-.67,1.76-.17.32-.34.63-.54.93-1.56,2.42-4.48,3.96-7.31,4.52-2.33.47-4.5.31-6.67-.69-2.33-1.07-4.6-3.36-6.13-5.43-2.03-2.76-3.23-5.2-4.68-8.28-1.44-3.07-2.9-6.21-4.19-9.34-.86-2.08-.83-3.63,1.04-4.99.2-.15.42-.27.63-.39.9-.5,1.84-.95,2.77-1.4,1.44-.7,2.88-1.38,4.32-2.06,1.78-.84,3.56-1.66,5.34-2.47,1.94-.9,3.89-1.8,5.84-2.68,1.94-.89,3.87-1.77,5.81-2.64,1.75-.79,3.52-1.6,5.26-2.38,2.01-.93,4.04-1.83,6.04-2.73.89-.39,1.84-.77,2.78-.53.24.06.47.16.69.28.36.2.69.49.97.8,1.29,1.44,2.04,3.46,2.86,5.18.88,1.84,1.72,3.69,2.53,5.57,2.11,4.91,4.44,10.55,3.17,15.98-1.33,5.66-8.38,10.2-14.1,7.9Z" fill="#54b948"/>
    </g>
    <g>
      <path d="M97.68,565.07c-.03-.18-.07-.36-.12-.54-.09-.31-.2-.6-.34-.89-.15-.28-.31-.55-.5-.81-.19-.25-.4-.49-.64-.7-.23-.21-.48-.41-.75-.58-.26-.16-.79-.42-.86-.45l.35-.84.04.02c.33.14,1.09.4,1.44.45.71.11,1.35.04,2.03-.2,2.94-1.08,4.07-5.2,2.64-7.79-1.37-2.49-4.17-3.82-6.65-4.96-.95-.44-1.9-.85-2.85-1.25-.91-.37-1.87-.88-2.85-.98-.21-.02-.43-.02-.64.03-.12.03-.24.07-.35.12-.44.23-.67.69-.87,1.15-.44,1.02-.91,2.05-1.35,3.09-.39.9-.78,1.8-1.18,2.7-.43,1-.86,1.98-1.3,2.98-.43,1-.87,2-1.29,3-.39.92-.79,1.84-1.17,2.76-.32.75-.62,1.49-.93,2.25-.2.49-.39.98-.57,1.48-.04.12-.08.24-.11.36-.24,1.16.28,1.75,1.31,2.24,1.56.74,3.18,1.43,4.77,2.1,1.6.67,2.89,1.19,4.59,1.53,1.28.26,2.93.35,4.17-.04,1.16-.36,2.03-1.04,2.75-2.01.88-1.17,1.45-2.76,1.22-4.2ZM91.02,564.72l.32-.75c-.02.13-.06.26-.12.39s-.12.25-.2.36Z" fill="#54b948"/>
      <path d="M80.14,558.66c-2.86,6.36-8.13,6.23-12.64,3.58-4.51-2.65-5.06-7.74-2.02-14.13,3.04-6.39,7.75-7.41,10.37-7.42,2.63-.01,6.28,1.69,7.76,2.65,1.81,1.17.48,3.71-.37,5.1-.43.7-1.12.87-1.86.53-.42-.2-.78-.48-1.17-.74-.39-.27-.8-.5-1.23-.71-.84-.41-1.75-.69-2.67-.8-1.02-.11-2.07.04-2.98.51-.84.43-1.51,1.1-2.1,1.83-.11.13-1.39,1.87-1.35,1.9l.54.33c2.86-4.32,6.35-2.59,7.34-2.03.99.56,5.23,3.02,2.37,9.39Z" fill="#54b948"/>
      <path d="M156.71,574.91c-.1.04-.2.08-.29.15.08-.08.18-.12.29-.15Z" fill="#54b948"/>
      <path d="M188.59,569.38c-.11.18-.26.34-.43.47-.77.62-1.81.94-2.71,1.32-.96.4-1.92.78-2.9,1.14-2.55.95-5.48,1.98-8.21,1.19-2.84-.82-4.96-4.53-3.65-7.38.3-.66.71-1.16,1.29-1.58.28-.21,1.01-.57,1.34-.7l.04-.02-.35-.84c-.07.02-.63.21-.93.28-.31.07-.62.11-.94.12-.32.01-.64,0-.95-.05-.31-.04-.62-.12-.92-.22-.31-.1-.59-.23-.87-.38-.16-.09-.31-.19-.46-.3-1.19-.86-1.9-2.38-2.11-3.83-.18-1.2-.04-2.29.52-3.37.61-1.16,1.83-2.26,2.92-2.98,1.45-.95,2.73-1.5,4.33-2.16,1.6-.65,3.23-1.31,4.86-1.89,1.08-.38,1.87-.33,2.51.66.07.11.12.22.18.33.23.48.44.96.64,1.45.32.75.63,1.5.94,2.25.38.93.75,1.85,1.12,2.78.4,1.01.81,2.02,1.21,3.04.4,1.01.8,2.01,1.19,3.02.36.91.72,1.83,1.07,2.74.42,1.04.83,2.1,1.23,3.14.18.46.35.95.2,1.42-.04.12-.1.23-.16.34Z" fill="#54b948"/>
      <path d="M202.71,551.66c-2.37-6.67-6.36-9.88-11.42-8.56-5.06,1.32-8.88,4.95-6.4,11.47,2.48,6.52,7.22,5.26,8.32,4.96,1.1-.31,4.79-1.55,3.76-6.62l.62-.15c.05.02.37,2.12.39,2.3.1.93.09,1.88-.19,2.78-.31.97-.95,1.82-1.75,2.46-.72.59-1.57,1.02-2.46,1.33-.45.16-.91.28-1.37.37-.45.09-.91.14-1.35.3-.76.28-1.13.89-.94,1.69.38,1.57,1.24,4.31,3.35,3.86,1.72-.37,5.51-1.75,7.36-3.61,1.85-1.87,4.46-5.91,2.09-12.58ZM193.64,554.3c.07-.02.13-.05.2-.07.44-.18.84-.45,1.15-.82-.26.51-.79.83-1.35.89Z" fill="#54b948"/>
      <path d="M162.86,539.44c-1.14,2.47-2.47,5.27-4.96,6.64-2.59,1.43-6.71.31-7.79-2.63-.25-.68-.32-1.32-.2-2.03.05-.35.31-1.11.45-1.44l.02-.04-.84-.35c-.03.07-.29.59-.46.85-.17.27-.37.52-.58.75-.21.23-.45.45-.7.63-.25.19-.52.36-.81.5-.28.14-.58.26-.89.35-.18.05-.35.09-.53.12-1.45.23-3.03-.34-4.2-1.22-.97-.72-1.65-1.59-2.01-2.75-.39-1.24-.3-2.89-.04-4.17.35-1.71.86-2.99,1.54-4.6.67-1.59,1.36-3.21,2.1-4.77.49-1.03,1.09-1.55,2.24-1.31.12.03.25.07.36.11.5.17.99.37,1.47.57.75.3,1.5.62,2.25.93.92.38,1.84.78,2.76,1.17,1.01.43,2.01.86,3.01,1.3,1,.43,1.99.86,2.98,1.3.9.39,1.8.79,2.69,1.17,1.04.44,2.07.91,3.09,1.36.45.2.92.43,1.15.87.06.11.1.24.13.36.05.21.05.42.03.64-.11.98-.61,1.95-.98,2.85-.4.96-.81,1.91-1.24,2.86Z" fill="#54b948"/>
      <path d="M168.25,587.38c.36-1.92.3-3.96-.47-5.75-.59-1.38-1.58-2.57-2.75-3.51,1.05-.75,1.91-1.71,2.44-2.96.93-2.18.82-4.64.3-6.91-.59-2.56-1.64-5.18-3.13-7.35-1.11-1.61-2.59-3.01-4.4-3.73-1.45-.58-3.05-.71-4.6-.52-.06,0-.11.01-.16.02.17-1.44.08-2.87-.45-4.16-.89-2.19-2.7-3.86-4.67-5.1-2.23-1.39-4.82-2.5-7.41-2.98-1.92-.36-3.96-.3-5.75.47-1.21.52-2.27,1.35-3.15,2.33-.95-1.32-2.13-2.42-3.55-3.02-2.18-.92-4.64-.82-6.91-.3-2.56.59-5.18,1.65-7.35,3.13-1.61,1.1-3.01,2.59-3.73,4.4-.47,1.19-.65,2.47-.59,3.75-1.7-.32-3.43-.29-4.95.32-2.2.89-3.86,2.7-5.1,4.67-1.4,2.23-2.5,4.82-2.98,7.41-.35,1.92-.3,3.96.47,5.75.59,1.39,1.6,2.59,2.78,3.53-1.1.76-2,1.75-2.55,3.04-.93,2.18-.82,4.64-.3,6.91.59,2.56,1.64,5.18,3.13,7.35,1.1,1.61,2.59,3.01,4.4,3.73,1.45.58,3.05.71,4.6.52.08-.01.17-.02.25-.04-.19,1.45-.09,2.9.44,4.2.89,2.2,2.7,3.86,4.67,5.1,2.23,1.4,4.82,2.5,7.41,2.98,1.92.36,3.96.3,5.75-.47,1.2-.51,2.24-1.32,3.11-2.29.94,1.29,2.11,2.36,3.5,2.95,2.18.92,4.64.82,6.91.3,2.56-.59,5.18-1.64,7.35-3.13,1.61-1.11,3.01-2.59,3.73-4.4.48-1.22.65-2.55.58-3.86,1.72.33,3.48.32,5.03-.31,2.2-.89,3.86-2.7,5.1-4.67,1.4-2.23,2.5-4.82,2.98-7.41ZM158.45,591.88c-.82.81-1.88,1.35-3.05,1.34-1.58-.03-3-.95-4.19-1.9-.22-.18-.45-.36-.72-.48-.67-.29-1.1.13-1.41.69-.59,1.07-1.33,2.41-1.31,3.67,0,.12.02.23.04.34-.04.08-.06.16-.04.23.28,1.17.5.84.71,2.03.54,3.05-1.9,4.77-4.41,5.78-1.06.42-2.2.73-3.35.73-1.15,0-2.28-.37-3.1-1.21-.51-.53-.86-1.17-1.1-1.85.08-.29.15-.59.21-.89.13-.63.11-1.2-.38-1.68-.37-.37-.88-.6-1.35-.82-.62-.29-1.05-.46-1.72-.71-.4-.15-.91-.33-1.33-.22-.66.18-.81.92-.91,1.5-.2,1.19-.55,2.38-1.25,3.37-1.77,2.53-4.71,2.03-7.2.96-1.05-.45-2.07-1.04-2.89-1.85-.81-.82-1.35-1.88-1.33-3.05.03-1.57.95-2.99,1.89-4.18.18-.22.36-.45.48-.72.29-.67-.13-1.1-.69-1.41-1.07-.59-2.41-1.33-3.66-1.31-.63.01-1.12.32-1.53.74-.1.1-.19.21-.28.33-.59.21-1.1.41-1.89.55-3.05.54-4.77-1.9-5.77-4.41-.43-1.06-.74-2.2-.73-3.35,0-1.15.37-2.28,1.22-3.1,1.13-1.09,2.69-.36,3.27-.97.02-.01.03-.04.05-.07.08-.05.15-.11.22-.18.37-.37.6-.88.81-1.35.29-.62.46-1.05.71-1.72.15-.41.33-.91.22-1.33-.17-.66-.92-.81-1.5-.92-1.19-.2-2.38-.56-3.37-1.25-2.53-1.77-2.03-4.71-.97-7.2.45-1.05,1.04-2.08,1.85-2.89.82-.81,1.88-1.35,3.05-1.34,1.57.03,2.99.95,4.19,1.9.22.18.45.36.71.48.67.29,1.11-.12,1.41-.68.58-1.07,1.33-2.41,1.3-3.67,0-.15-.02-.3-.06-.43,0,0,0,0,0-.02,0,0,0,0,0-.02-.29-1.17-.5-.84-.71-2.03-.53-3.04,1.9-4.77,4.41-5.78,1.06-.42,2.2-.73,3.35-.73,1.15,0,2.28.37,3.1,1.21.54.56.91,1.26,1.15,1.99-.07.26-.13.52-.18.78-.12.63-.11,1.2.38,1.68.37.37.88.6,1.35.82.62.28,1.05.45,1.72.7.4.15.91.33,1.33.22.66-.17.81-.92.91-1.5.21-1.19.56-2.38,1.25-3.37,1.77-2.53,4.71-2.03,7.2-.97,1.05.45,2.08,1.04,2.89,1.85.81.82,1.35,1.88,1.34,3.05-.03,1.58-.95,3-1.9,4.19-.18.22-.36.45-.48.72-.29.67.12,1.1.69,1.41,1.07.59,2.41,1.33,3.67,1.31.63-.01,1.12-.32,1.53-.74.12-.13.24-.27.35-.42.53-.18,1.02-.37,1.74-.5,3.04-.53,4.77,1.9,5.78,4.41.42,1.06.73,2.2.73,3.35,0,1.15-.37,2.28-1.22,3.1-.7.67-1.55.66-2.24.68,0,0-.02,0-.04,0-.21.01-.4.03-.57.06-.03.01-.05.01-.08.03-.1.04-.2.08-.29.15-.02,0-.03.02-.05.04h0c-.07.05-.13.09-.19.16-.37.37-.6.88-.82,1.35-.28.62-.45,1.05-.7,1.72-.15.41-.33.91-.22,1.33.17.66.92.81,1.5.92,1.19.2,2.38.56,3.37,1.25,2.53,1.77,2.03,4.71.97,7.2-.45,1.05-1.04,2.08-1.85,2.89Z" fill="#54b948"/>
      <path d="M167.29,528.7c-1.17,1.81-3.72.48-5.1-.37-.7-.42-.87-1.12-.53-1.86.2-.42.48-.78.74-1.16.26-.4.5-.8.7-1.23.41-.84.7-1.75.8-2.68.11-1.01-.05-2.07-.51-2.98-.43-.83-1.1-1.51-1.83-2.1-.13-.11-1.87-1.39-1.9-1.35l-.33.54c4.32,2.86,2.59,6.35,2.03,7.34-.56.99-3.02,5.23-9.39,2.38-6.36-2.86-6.23-8.14-3.58-12.64,2.65-4.51,7.74-5.07,14.13-2.02,6.39,3.04,7.4,7.74,7.42,10.37.01,2.63-1.69,6.28-2.65,7.76Z" fill="#54b948"/>
      <path d="M163.4,623.84c-.11.07-.22.13-.33.18-.47.23-.96.44-1.45.64-.75.32-1.5.63-2.25.93-.92.37-1.85.75-2.78,1.12-1.01.41-2.03.81-3.04,1.21-1.01.4-2.01.8-3.02,1.19-.91.36-1.82.72-2.74,1.07-1.05.42-2.1.83-3.14,1.22-.46.18-.95.35-1.43.2-.12-.04-.23-.1-.34-.17-.18-.11-.33-.26-.47-.43-.62-.76-.95-1.81-1.32-2.71-.4-.96-.78-1.92-1.14-2.89-.94-2.55-1.98-5.48-1.19-8.21.82-2.84,4.53-4.96,7.38-3.65.65.31,1.16.71,1.58,1.3.21.29.57,1.01.7,1.34v.04s.86-.35.86-.35c-.03-.07-.22-.63-.28-.93-.07-.31-.11-.63-.12-.95-.01-.32,0-.63.05-.95s.12-.62.22-.92c.1-.31.23-.6.38-.87.09-.16.19-.31.3-.46.86-1.19,2.39-1.9,3.83-2.11,1.2-.18,2.29-.04,3.37.53,1.16.6,2.25,1.83,2.98,2.92.96,1.45,1.5,2.73,2.16,4.33.65,1.59,1.31,3.23,1.89,4.86.38,1.07.33,1.86-.66,2.5Z" fill="#54b948"/>
      <path d="M160.6,645.57c-6.67,2.37-10.71-.24-12.58-2.09-1.87-1.85-3.24-5.63-3.61-7.36-.45-2.11,2.29-2.96,3.87-3.34.79-.19,1.4.18,1.68.94.16.43.22.89.3,1.35.09.46.21.92.37,1.37.31.88.74,1.73,1.33,2.46.64.79,1.49,1.43,2.47,1.74.89.29,1.85.29,2.78.19.17-.02,2.27-.33,2.3-.38l-.15-.62c-5.07,1.04-6.32-2.66-6.62-3.75-.3-1.1-1.57-5.84,4.96-8.32,6.53-2.48,10.16,1.35,11.47,6.4,1.32,5.06-1.89,9.06-8.56,11.42Z" fill="#54b948"/>
      <path d="M101.12,599.94c-.6,1.16-1.83,2.26-2.92,2.98-1.45.96-2.73,1.5-4.34,2.17-1.6.65-3.23,1.31-4.85,1.88-1.08.38-1.87.33-2.51-.66-.07-.1-.12-.22-.18-.33-.23-.47-.44-.96-.64-1.44-.32-.75-.63-1.5-.93-2.25-.38-.93-.75-1.85-1.12-2.78-.41-1.02-.81-2.03-1.21-3.04-.4-1.01-.79-2.02-1.19-3.02-.36-.92-.71-1.83-1.07-2.74-.42-1.04-.83-2.1-1.23-3.14-.18-.46-.34-.96-.2-1.42.04-.12.1-.24.16-.35.12-.17.27-.33.43-.47.77-.62,1.81-.94,2.71-1.32.96-.4,1.92-.78,2.9-1.14,2.55-.95,5.48-1.98,8.21-1.19,2.84.82,4.97,4.53,3.65,7.37-.3.66-.71,1.16-1.29,1.58-.29.21-1.01.57-1.34.7l-.04.02.35.85c.07-.03.62-.22.93-.28.31-.07.63-.11.94-.12.32-.01.64,0,.95.05.31.04.62.12.92.21.3.1.59.23.87.39.16.09.31.19.46.3,1.19.86,1.9,2.39,2.11,3.83.18,1.2.04,2.3-.52,3.37Z" fill="#54b948"/>
      <path d="M76.19,612.08c-5.06,1.32-9.05-1.89-11.42-8.56-2.36-6.67.24-10.71,2.09-12.58,1.84-1.87,5.64-3.25,7.36-3.61,2.11-.45,2.97,2.29,3.35,3.86.2.8-.18,1.41-.94,1.69-.44.16-.89.21-1.34.3-.47.09-.92.21-1.37.37-.88.31-1.73.74-2.46,1.33-.79.64-1.43,1.5-1.74,2.47-.29.9-.29,1.85-.19,2.78.01.17.33,2.27.38,2.3l.62-.15c-1.03-5.08,2.66-6.32,3.75-6.63,1.1-.31,5.84-1.56,8.32,4.96,2.48,6.52-1.35,10.16-6.4,11.47Z" fill="#54b948"/>
      <path d="M126.38,624.78c-.67,1.59-1.36,3.21-2.1,4.77-.49,1.03-1.08,1.55-2.24,1.31-.12-.03-.24-.07-.36-.11-.5-.17-.99-.37-1.48-.57-.75-.3-1.5-.62-2.25-.93-.92-.38-1.84-.78-2.76-1.17-1-.43-2-.86-3-1.29-1-.43-1.99-.86-2.98-1.3-.9-.4-1.8-.79-2.7-1.18-1.03-.44-2.07-.9-3.09-1.35-.45-.2-.92-.43-1.15-.87-.06-.11-.1-.23-.12-.35-.05-.21-.05-.43-.03-.64.1-.98.61-1.95.98-2.85.4-.96.81-1.91,1.25-2.85,1.14-2.47,2.47-5.28,4.96-6.65,2.59-1.43,6.71-.31,7.8,2.63.25.68.31,1.32.2,2.03-.06.35-.31,1.12-.45,1.44l-.02.04.84.35c.03-.07.29-.6.45-.86.17-.27.37-.52.58-.75.22-.24.45-.45.7-.64.25-.19.52-.35.81-.5.28-.14.58-.26.89-.34.18-.05.35-.09.54-.12,1.44-.23,3.03.35,4.2,1.22.97.72,1.65,1.59,2.01,2.76.39,1.24.3,2.89.04,4.17-.34,1.7-.86,2.99-1.53,4.59Z" fill="#54b948"/>
      <path d="M118.83,642.23c-2.65,4.51-7.74,5.06-14.13,2.02-6.39-3.04-7.4-7.75-7.42-10.37-.01-2.62,1.69-6.28,2.65-7.75,1.17-1.81,3.72-.48,5.1.36.7.43.87,1.12.52,1.86-.19.42-.48.78-.74,1.16-.27.39-.5.8-.71,1.23-.41.84-.7,1.75-.8,2.68-.11,1.01.05,2.07.52,2.97.43.84,1.1,1.51,1.83,2.1.13.11,1.87,1.39,1.9,1.35,0,0,.33-.55.33-.55-4.32-2.86-2.59-6.35-2.03-7.34.56-.99,3.02-5.23,9.39-2.37,6.36,2.86,6.23,8.14,3.58,12.64Z" fill="#54b948"/>
      <path d="M185.69,596.59c-.43,1.01-.86,2.01-1.3,3.01-.43,1-.86,1.99-1.3,2.98-.39.9-.79,1.8-1.18,2.7-.44,1.03-.91,2.07-1.36,3.08-.2.46-.43.92-.87,1.15-.11.06-.23.1-.36.12-.21.05-.42.05-.64.03-.98-.1-1.95-.61-2.85-.98-.97-.39-1.91-.81-2.86-1.24-2.47-1.14-5.27-2.47-6.65-4.96-1.43-2.59-.31-6.71,2.63-7.8.68-.25,1.32-.31,2.03-.2.35.05,1.11.31,1.44.45l.04.02.35-.84c-.07-.03-.59-.29-.86-.45-.27-.17-.52-.37-.75-.58-.23-.21-.45-.45-.63-.7-.19-.25-.36-.53-.5-.81-.14-.28-.26-.58-.35-.89-.05-.18-.09-.36-.11-.54-.23-1.45.34-3.03,1.22-4.2.72-.97,1.59-1.65,2.75-2.01,1.24-.39,2.89-.3,4.17-.04,1.71.35,2.99.86,4.6,1.54,1.59.67,3.21,1.36,4.77,2.1,1.03.49,1.55,1.08,1.31,2.24-.03.12-.07.24-.11.36-.17.5-.37.99-.57,1.48-.3.75-.62,1.5-.93,2.25-.38.92-.78,1.84-1.17,2.76Z" fill="#54b948"/>
      <path d="M158.04,575.14c-.21.01-.4.03-.57.06.19-.06.37-.07.57-.06Z" fill="#54b948"/>
      <path d="M199.83,592.96c-4.51-2.65-9.78-2.78-12.64,3.58-2.86,6.37,1.39,8.83,2.37,9.39.99.56,4.48,2.29,7.34-2.03l.54.33s-1.24,1.76-1.35,1.9c-.59.73-1.26,1.4-2.1,1.83-.91.47-1.96.62-2.98.51-.93-.1-1.83-.39-2.68-.8-.43-.21-.84-.44-1.23-.71-.38-.26-.74-.54-1.16-.74-.74-.35-1.43-.18-1.86.53-.85,1.38-2.18,3.93-.37,5.1,1.48.96,5.13,2.66,7.76,2.65,2.62-.01,7.33-1.03,10.37-7.42,3.04-6.39,2.49-11.48-2.02-14.13ZM194.61,602.94c.14,0,.27,0,.4-.03-.13.03-.27.04-.4.03Z" fill="#54b948"/>
      <path d="M118.61,522.59c-.8.19-1.41-.18-1.69-.94-.16-.44-.21-.89-.3-1.35-.09-.46-.21-.92-.37-1.37-.31-.88-.74-1.73-1.33-2.46-.64-.79-1.49-1.43-2.47-1.74-.89-.29-1.85-.29-2.78-.19-.17.01-2.27.33-2.3.38l.15.62c5.08-1.03,6.32,2.66,6.62,3.75.31,1.1,1.57,5.84-4.96,8.32-6.53,2.48-10.16-1.35-11.47-6.4-1.32-5.06,1.89-9.06,8.56-11.42,6.67-2.37,10.71.24,12.58,2.09,1.87,1.84,3.24,5.63,3.61,7.36.45,2.11-2.29,2.96-3.86,3.35Z" fill="#54b948"/>
      <path d="M120.75,541.81c-.66-.3-1.16-.71-1.58-1.29-.21-.29-.57-1.01-.7-1.34l-.02-.04-.84.35c.02.07.22.62.28.93.07.31.11.62.12.94.01.32,0,.64-.05.95s-.12.62-.22.92c-.1.31-.23.59-.38.87-.09.16-.19.31-.3.46-.86,1.19-2.38,1.9-3.83,2.11-1.2.18-2.29.04-3.37-.52-1.16-.6-2.25-1.83-2.98-2.92-.96-1.45-1.5-2.73-2.16-4.33-.65-1.6-1.31-3.23-1.89-4.86-.38-1.08-.33-1.87.66-2.51.11-.07.22-.12.33-.18.47-.23.96-.44,1.44-.64.75-.32,1.5-.63,2.25-.93.93-.38,1.85-.75,2.78-1.12,1.01-.41,2.03-.81,3.04-1.21,1.01-.4,2.01-.8,3.02-1.19.91-.36,1.83-.72,2.74-1.07,1.05-.42,2.1-.83,3.14-1.23.46-.18.95-.35,1.42-.2.12.04.23.1.34.16.18.11.34.27.47.43.62.77.94,1.81,1.32,2.71.4.96.78,1.92,1.14,2.9.95,2.55,1.98,5.48,1.19,8.21-.82,2.84-4.53,4.96-7.38,3.65Z" fill="#54b948"/>
    </g>
    <path d="M962.62,435.28c-.04-.2-.08-.39-.14-.58-.1-.33-.22-.65-.38-.95-.16-.3-.34-.59-.55-.86-.21-.27-.44-.52-.7-.74-.25-.22-.53-.43-.82-.61-.28-.17-.85-.44-.93-.47l.36-.91.04.02c.35.14,1.18.41,1.56.46.77.11,1.45.02,2.18-.26,3.14-1.22,4.27-5.66,2.68-8.42-1.52-2.65-4.56-4.03-7.23-5.2-1.02-.45-2.05-.88-3.09-1.29-.98-.38-2.03-.91-3.08-1-.22-.02-.46-.01-.68.04-.13.03-.26.08-.38.14-.46.25-.71.76-.91,1.25-.46,1.1-.94,2.22-1.39,3.34-.41.97-.81,1.94-1.22,2.92-.44,1.08-.89,2.15-1.33,3.22-.45,1.08-.89,2.16-1.33,3.25-.41,1-.81,1.99-1.21,2.99-.32.81-.64,1.62-.96,2.43-.2.53-.4,1.06-.58,1.6-.04.13-.08.26-.11.39-.24,1.24.33,1.88,1.45,2.38,1.69.76,3.44,1.48,5.16,2.17,1.73.69,3.13,1.22,4.96,1.56,1.38.25,3.15.32,4.48-.12,1.24-.41,2.16-1.15,2.92-2.21.92-1.28,1.5-2.99,1.23-4.53ZM955.46,435.03l.33-.81c-.02.14-.06.28-.12.42s-.13.27-.21.39Z" fill="#54b948"/>
    <path d="M943.66,428.72c-2.95,6.89-8.61,6.84-13.51,4.09-4.89-2.75-5.58-8.22-2.44-15.13,3.14-6.92,8.18-8.1,10.99-8.16,2.82-.07,6.77,1.69,8.38,2.7,1.96,1.22.58,3.98-.3,5.48-.45.76-1.19.95-1.98.6-.46-.2-.85-.5-1.27-.77-.42-.28-.87-.52-1.33-.74-.91-.42-1.89-.71-2.89-.8-1.1-.1-2.22.09-3.19.61-.89.48-1.6,1.21-2.22,2.01-.12.15-1.46,2.03-1.42,2.06l.59.35c2.99-4.7,6.77-2.9,7.84-2.32,1.07.59,5.68,3.15,2.73,10.04Z" fill="#54b948"/>
    <path d="M1026.18,444.73c-.11.04-.22.09-.31.17.08-.08.19-.14.31-.17Z" fill="#54b948"/>
    <path d="M1060.31,438.18c-.12.2-.28.37-.45.51-.81.68-1.93,1.05-2.89,1.47-1.02.45-2.05.87-3.09,1.28-2.72,1.06-5.84,2.23-8.79,1.44-3.07-.83-5.42-4.77-4.06-7.85.31-.71.74-1.26,1.36-1.72.3-.23,1.07-.63,1.42-.78l.04-.02-.39-.9c-.08.02-.67.24-.99.32-.33.08-.67.13-1.01.15-.34.02-.69,0-1.02-.03-.34-.04-.67-.11-.99-.22-.33-.1-.64-.23-.95-.4-.17-.1-.34-.2-.5-.31-1.29-.9-2.08-2.52-2.34-4.08-.21-1.28-.08-2.46.5-3.63.63-1.25,1.93-2.46,3.08-3.26,1.54-1.05,2.9-1.67,4.61-2.4,1.7-.73,3.44-1.47,5.18-2.12,1.15-.43,2-.39,2.71.66.08.11.14.24.2.35.25.51.49,1.02.71,1.54.36.79.7,1.59,1.05,2.39.42.99.84,1.98,1.26,2.97.45,1.08.91,2.16,1.35,3.24.45,1.07.89,2.15,1.34,3.22.41.97.81,1.95,1.2,2.92.47,1.11.93,2.24,1.38,3.35.2.49.39,1.02.24,1.53-.04.13-.1.25-.17.37Z" fill="#54b948"/>
    <path d="M1075.14,418.89c-2.67-7.12-7.02-10.48-12.43-8.98-5.41,1.51-9.45,5.48-6.66,12.44,2.79,6.96,7.86,5.51,9.03,5.17,1.17-.35,5.11-1.75,3.91-7.18l.66-.18c.06.02.44,2.27.46,2.46.12.99.14,2.02-.15,2.99-.32,1.05-.99,1.97-1.83,2.68-.77.65-1.67,1.13-2.61,1.47-.48.18-.97.32-1.46.42-.49.11-.97.17-1.44.35-.81.31-1.2.97-.98,1.83.44,1.68,1.41,4.61,3.67,4.09,1.84-.43,5.89-1.98,7.83-4.02,1.95-2.04,4.67-6.43,2.01-13.54ZM1065.45,421.89c.07-.03.14-.05.21-.08.47-.2.89-.5,1.22-.9-.27.55-.83.91-1.43.98Z" fill="#54b948"/>
    <path d="M1032.12,406.51c-1.17,2.68-2.56,5.71-5.2,7.23-2.75,1.59-7.2.46-8.42-2.68-.28-.72-.37-1.41-.25-2.18.05-.37.31-1.2.46-1.55l.02-.04-.91-.36c-.04.07-.3.64-.48.93-.18.29-.38.56-.61.82-.22.25-.48.49-.74.69-.26.21-.55.39-.86.55-.3.16-.62.29-.95.39-.19.06-.38.1-.57.13-1.55.28-3.26-.31-4.53-1.23-1.06-.76-1.8-1.68-2.21-2.92-.45-1.33-.38-3.1-.12-4.48.34-1.84.87-3.23,1.56-4.97.68-1.72,1.4-3.47,2.16-5.16.51-1.12,1.14-1.69,2.38-1.45.13.03.27.07.39.11.54.17,1.06.38,1.59.58.82.31,1.63.63,2.44.96,1,.39,1.99.8,2.98,1.2,1.09.44,2.17.88,3.25,1.33,1.08.44,2.15.89,3.22,1.33.97.4,1.95.81,2.92,1.21,1.12.46,2.24.93,3.34,1.4.49.21.99.44,1.25.91.07.12.11.25.14.38.05.22.06.45.04.68-.1,1.05-.62,2.1-1,3.08-.41,1.04-.83,2.07-1.28,3.09Z" fill="#54b948"/>
    <path d="M1038.81,457.89c.35-2.07.24-4.26-.61-6.17-.66-1.47-1.75-2.73-3.02-3.72,1.11-.83,2.02-1.88,2.57-3.23.95-2.36.79-5,.19-7.42-.68-2.74-1.86-5.53-3.5-7.84-1.22-1.7-2.84-3.18-4.8-3.92-1.56-.6-3.29-.7-4.95-.47-.06,0-.12.01-.17.03.16-1.55.03-3.09-.56-4.45-1-2.34-2.97-4.09-5.12-5.38-2.42-1.45-5.23-2.59-8.01-3.06-2.07-.35-4.26-.24-6.17.61-1.29.58-2.41,1.49-3.34,2.56-1.04-1.39-2.33-2.56-3.87-3.18-2.36-.95-5-.79-7.42-.19-2.74.69-5.53,1.87-7.83,3.5-1.71,1.22-3.18,2.84-3.93,4.8-.48,1.28-.65,2.67-.56,4.04-1.83-.31-3.69-.25-5.31.44-2.35,1-4.1,2.97-5.38,5.12-1.46,2.42-2.6,5.22-3.06,8.02-.34,2.07-.24,4.26.62,6.17.66,1.48,1.77,2.75,3.05,3.74-1.16.84-2.11,1.91-2.68,3.31-.95,2.36-.79,5-.19,7.42.68,2.74,1.86,5.53,3.5,7.83,1.22,1.71,2.84,3.18,4.8,3.92,1.56.59,3.29.7,4.95.47.09-.01.18-.03.27-.05-.17,1.56-.04,3.12.55,4.5,1,2.34,2.97,4.1,5.12,5.38,2.42,1.46,5.22,2.6,8.02,3.06,2.07.35,4.26.24,6.17-.62,1.27-.57,2.38-1.46,3.3-2.52,1.04,1.36,2.31,2.5,3.82,3.1,2.36.95,5,.79,7.43.19,2.74-.68,5.53-1.86,7.83-3.5,1.71-1.22,3.18-2.84,3.93-4.8.5-1.32.65-2.75.55-4.16,1.86.32,3.74.27,5.39-.43,2.35-1,4.09-2.98,5.38-5.12,1.46-2.42,2.59-5.23,3.06-8.02ZM1028.38,462.91c-.87.89-1.99,1.49-3.25,1.49-1.69,0-3.24-.96-4.53-1.96-.24-.19-.49-.38-.78-.5-.72-.29-1.18.16-1.5.76-.61,1.16-1.39,2.62-1.34,3.96,0,.13.02.25.05.36-.05.09-.06.17-.04.24.33,1.25.55.89.8,2.16.63,3.26-1.94,5.16-4.63,6.29-1.13.48-2.35.83-3.58.85-1.24.02-2.46-.35-3.35-1.24-.55-.56-.94-1.24-1.22-1.97.08-.31.15-.64.21-.96.13-.68.1-1.29-.44-1.8-.4-.39-.96-.63-1.47-.85-.67-.3-1.13-.47-1.86-.73-.44-.15-.98-.33-1.43-.21-.7.21-.85,1-.95,1.63-.2,1.28-.55,2.56-1.28,3.64-1.86,2.75-5.02,2.27-7.72,1.17-1.14-.46-2.24-1.07-3.13-1.94-.89-.86-1.48-1.99-1.49-3.25,0-1.69.96-3.23,1.95-4.53.19-.24.38-.49.5-.78.3-.73-.16-1.18-.77-1.5-1.16-.61-2.61-1.38-3.96-1.33-.67.02-1.2.36-1.63.83-.11.11-.21.23-.29.36-.63.24-1.17.46-2.02.63-3.26.63-5.16-1.94-6.28-4.62-.48-1.13-.83-2.35-.85-3.59-.02-1.24.35-2.46,1.25-3.35,1.2-1.2,2.88-.44,3.5-1.1.02-.02.03-.04.05-.07.08-.05.16-.12.23-.2.39-.4.62-.96.85-1.47.3-.67.47-1.13.73-1.86.16-.44.34-.98.21-1.43-.2-.71-1-.86-1.62-.95-1.28-.2-2.57-.55-3.64-1.28-2.75-1.86-2.27-5.02-1.18-7.71.46-1.14,1.08-2.25,1.94-3.13.86-.89,1.99-1.49,3.25-1.49,1.69,0,3.23.96,4.53,1.96.24.19.49.38.77.5.73.3,1.19-.15,1.51-.76.61-1.16,1.39-2.62,1.33-3.96,0-.16-.03-.32-.07-.46,0,0,0,0,0-.02,0,0,0,0,0-.02-.33-1.25-.55-.9-.8-2.17-.63-3.26,1.94-5.16,4.63-6.29,1.13-.48,2.35-.83,3.58-.85,1.24-.02,2.46.35,3.35,1.24.59.6,1,1.33,1.28,2.12-.07.28-.13.56-.18.85-.12.68-.09,1.29.44,1.8.4.39.96.63,1.47.85.67.29,1.13.47,1.86.72.44.16.98.34,1.43.21.71-.2.86-1,.95-1.62.2-1.28.55-2.57,1.28-3.64,1.86-2.75,5.02-2.27,7.71-1.18,1.14.46,2.25,1.08,3.13,1.94.89.87,1.49,1.99,1.49,3.25,0,1.69-.96,3.24-1.96,4.53-.19.24-.38.49-.5.78-.29.72.15,1.18.76,1.5,1.16.61,2.62,1.39,3.96,1.34.67-.02,1.2-.36,1.63-.83.13-.14.25-.3.37-.46.57-.21,1.09-.42,1.86-.57,3.26-.63,5.16,1.95,6.29,4.63.48,1.13.83,2.35.85,3.58.02,1.24-.35,2.46-1.25,3.35-.74.74-1.65.74-2.39.78,0,0-.02,0-.04,0-.22.01-.43.04-.61.08-.03.01-.06.02-.08.03-.11.04-.22.09-.31.17-.02,0-.03.03-.05.04h0c-.07.05-.14.1-.2.17-.39.4-.63.96-.85,1.47-.29.67-.47,1.13-.72,1.86-.16.44-.34.98-.21,1.43.2.71,1,.86,1.62.95,1.28.2,2.57.55,3.64,1.28,2.75,1.86,2.27,5.02,1.18,7.71-.46,1.14-1.08,2.25-1.94,3.13Z" fill="#54b948"/>
    <path d="M1036.66,394.91c-1.22,1.97-3.98.58-5.48-.3-.76-.44-.96-1.19-.6-1.99.21-.45.51-.85.77-1.26.28-.43.52-.87.73-1.34.42-.91.72-1.89.81-2.89.1-1.09-.09-2.22-.6-3.19-.48-.89-1.21-1.6-2.01-2.22-.15-.12-2.04-1.46-2.06-1.42l-.35.59c4.69,2.99,2.9,6.77,2.31,7.84-.58,1.07-3.15,5.68-10.04,2.73-6.89-2.95-6.84-8.62-4.09-13.51,2.76-4.89,8.21-5.59,15.13-2.44,6.92,3.14,8.1,8.17,8.16,10.99.07,2.82-1.7,6.78-2.7,8.38Z" fill="#54b948"/>
    <path d="M1034.29,497.13c-.11.08-.24.14-.35.2-.5.26-1.02.49-1.54.72-.8.36-1.6.7-2.4,1.05-.98.42-1.97.84-2.96,1.25-1.08.46-2.16.91-3.24,1.36-1.07.45-2.15.89-3.22,1.34-.97.4-1.94.8-2.92,1.21-1.11.47-2.24.93-3.35,1.37-.49.2-1.02.39-1.53.24-.13-.04-.25-.1-.37-.17-.2-.12-.36-.28-.51-.45-.68-.81-1.05-1.92-1.47-2.89-.45-1.02-.87-2.05-1.28-3.09-1.06-2.72-2.23-5.84-1.43-8.79.83-3.07,4.77-5.41,7.85-4.06.71.32,1.25.74,1.72,1.36.23.3.63,1.07.78,1.42v.04s.92-.39.92-.39c-.03-.07-.25-.67-.32-.99-.08-.33-.13-.67-.15-1.01-.02-.34-.01-.68.03-1.02s.11-.67.22-.99c.1-.33.24-.65.4-.95.1-.17.2-.34.31-.5.9-1.29,2.53-2.08,4.08-2.34,1.28-.21,2.46-.08,3.63.5,1.25.63,2.45,1.92,3.25,3.08,1.06,1.54,1.67,2.9,2.4,4.61.73,1.7,1.47,3.44,2.12,5.18.43,1.15.39,1.99-.66,2.7Z" fill="#54b948"/>
    <path d="M1031.7,520.51c-7.11,2.67-11.51-.05-13.54-2-2.04-1.95-3.59-5.99-4.02-7.83-.52-2.25,2.4-3.22,4.09-3.66.85-.22,1.51.17,1.82.98.18.46.25.95.35,1.44.1.5.25.99.42,1.46.35.94.83,1.84,1.47,2.61.7.84,1.63,1.51,2.68,1.82.97.29,1.99.27,2.99.15.19-.02,2.43-.4,2.46-.46l-.17-.66c-5.43,1.21-6.84-2.73-7.18-3.9-.35-1.17-1.79-6.24,5.16-9.03,6.96-2.78,10.93,1.25,12.44,6.66,1.51,5.41-1.86,9.76-8.97,12.42Z" fill="#54b948"/>
    <path d="M966.97,472.65c-.63,1.25-1.93,2.46-3.08,3.25-1.54,1.06-2.9,1.67-4.61,2.41-1.7.73-3.44,1.46-5.18,2.11-1.15.43-2,.39-2.71-.66-.08-.11-.14-.23-.2-.35-.26-.5-.49-1.02-.71-1.54-.36-.8-.7-1.59-1.05-2.4-.42-.99-.84-1.97-1.26-2.96-.46-1.08-.91-2.16-1.36-3.24-.45-1.08-.89-2.15-1.34-3.22-.4-.98-.8-1.95-1.2-2.92-.47-1.11-.93-2.24-1.38-3.35-.2-.49-.38-1.02-.24-1.53.04-.13.1-.26.17-.37.12-.19.28-.36.45-.51.81-.68,1.93-1.05,2.89-1.47,1.02-.45,2.05-.88,3.09-1.28,2.72-1.06,5.84-2.23,8.79-1.44,3.07.83,5.42,4.76,4.06,7.85-.31.71-.74,1.26-1.36,1.73-.3.23-1.08.63-1.43.78l-.04.02.39.9c.07-.03.66-.24.99-.32.33-.08.67-.13,1.01-.15.34-.02.68,0,1.02.04.34.04.67.11.99.21.33.11.64.24.94.4.17.09.34.2.5.31,1.29.9,2.08,2.53,2.34,4.08.21,1.29.09,2.47-.5,3.63Z" fill="#54b948"/>
    <path d="M940.43,486.16c-5.41,1.51-9.76-1.86-12.43-8.98-2.66-7.12.06-11.51,2.01-13.54,1.94-2.04,5.99-3.6,7.83-4.02,2.26-.53,3.23,2.4,3.67,4.09.22.85-.16,1.52-.98,1.83-.47.18-.95.24-1.44.35-.5.11-.99.25-1.46.42-.94.35-1.84.83-2.61,1.47-.84.7-1.51,1.64-1.82,2.68-.3.97-.28,1.99-.15,2.99.02.18.4,2.43.46,2.46l.66-.17c-1.21-5.43,2.73-6.84,3.91-7.19s6.24-1.79,9.03,5.17c2.79,6.96-1.25,10.93-6.66,12.44Z" fill="#54b948"/>
    <path d="M994.56,498.85c-.69,1.72-1.4,3.47-2.17,5.16-.5,1.11-1.13,1.68-2.38,1.45-.13-.03-.26-.07-.39-.11-.54-.17-1.07-.38-1.6-.58-.82-.31-1.63-.63-2.44-.96-1-.39-1.99-.8-2.98-1.2-1.08-.44-2.17-.89-3.25-1.33-1.08-.44-2.15-.89-3.22-1.33-.98-.41-1.95-.81-2.92-1.22-1.12-.45-2.24-.93-3.34-1.39-.49-.2-.99-.44-1.25-.91-.06-.12-.11-.25-.14-.38-.05-.22-.06-.46-.04-.68.09-1.05.62-2.1,1-3.08.41-1.04.84-2.07,1.29-3.09,1.17-2.68,2.55-5.71,5.2-7.23,2.76-1.59,7.2-.46,8.42,2.68.28.72.36,1.41.26,2.18-.05.38-.31,1.21-.46,1.56l-.02.04.91.36c.03-.08.3-.65.47-.93.18-.29.38-.56.61-.82.23-.26.48-.49.74-.7.27-.21.55-.39.86-.55.3-.16.62-.28.95-.38.19-.06.38-.1.58-.14,1.55-.27,3.26.32,4.53,1.23,1.06.76,1.8,1.68,2.21,2.92.44,1.33.37,3.09.12,4.47-.34,1.84-.87,3.23-1.55,4.96Z" fill="#54b948"/>
    <path d="M986.78,517.72c-2.76,4.89-8.22,5.58-15.14,2.44-6.92-3.14-8.1-8.18-8.16-10.99-.06-2.81,1.7-6.77,2.69-8.38,1.23-1.97,3.98-.58,5.49.29.76.45.95,1.19.6,1.99-.2.45-.5.84-.77,1.26-.28.42-.53.87-.74,1.33-.42.91-.72,1.89-.81,2.89-.1,1.09.09,2.22.61,3.18.47.89,1.21,1.6,2,2.22.15.12,2.03,1.45,2.06,1.42,0,0,.35-.6.35-.6-4.7-2.99-2.9-6.77-2.32-7.84.58-1.08,3.15-5.68,10.04-2.73,6.89,2.95,6.84,8.62,4.09,13.51Z" fill="#54b948"/>
    <path d="M1057.71,467.45c-.44,1.09-.88,2.17-1.33,3.25-.44,1.08-.89,2.15-1.33,3.22-.4.98-.81,1.95-1.21,2.92-.45,1.12-.93,2.24-1.4,3.34-.21.49-.45,1-.91,1.25-.12.06-.25.11-.38.14-.22.05-.45.06-.68.04-1.05-.09-2.1-.62-3.08-1-1.04-.4-2.07-.83-3.09-1.28-2.68-1.17-5.71-2.55-7.23-5.2-1.59-2.76-.46-7.2,2.68-8.42.72-.28,1.41-.36,2.18-.25.37.05,1.2.31,1.55.46l.04.02.36-.91c-.08-.03-.64-.3-.93-.47-.29-.18-.56-.38-.82-.61-.25-.22-.49-.48-.69-.74-.21-.27-.39-.56-.55-.86-.16-.3-.29-.62-.39-.95-.06-.19-.1-.38-.13-.57-.28-1.55.31-3.26,1.23-4.53.76-1.06,1.68-1.8,2.92-2.21,1.33-.44,3.09-.37,4.48-.12,1.84.34,3.23.87,4.97,1.56,1.72.69,3.47,1.4,5.16,2.17,1.12.51,1.69,1.14,1.45,2.38-.02.13-.07.26-.11.39-.17.54-.38,1.07-.58,1.6-.31.82-.63,1.62-.96,2.43-.39,1-.8,1.99-1.2,2.98Z" fill="#54b948"/>
    <path d="M1027.62,444.94c-.22.01-.43.04-.61.08.2-.06.4-.09.61-.08Z" fill="#54b948"/>
    <path d="M1072.83,463.29c-4.89-2.75-10.55-2.8-13.51,4.09-2.95,6.89,1.66,9.46,2.73,10.04,1.08.58,4.86,2.38,7.85-2.32l.59.35s-1.3,1.91-1.42,2.06c-.62.79-1.33,1.53-2.22,2.01-.97.52-2.1.7-3.19.61-1-.09-1.98-.38-2.89-.81-.46-.22-.91-.46-1.33-.74-.41-.27-.81-.57-1.26-.77-.8-.36-1.54-.16-1.98.6-.88,1.5-2.26,4.26-.3,5.48,1.6,1,5.56,2.76,8.38,2.7,2.82-.06,7.85-1.24,10.99-8.16,3.15-6.92,2.46-12.37-2.44-15.13ZM1067.4,474.1c.15,0,.29-.02.43-.04-.14.03-.29.05-.43.04Z" fill="#54b948"/>
    <path d="M984.28,389.26c-.86.22-1.52-.16-1.83-.98-.18-.47-.24-.95-.35-1.44-.1-.5-.25-.99-.42-1.46-.35-.94-.83-1.84-1.47-2.61-.7-.84-1.63-1.51-2.68-1.82-.97-.29-1.99-.28-2.99-.15-.18.02-2.43.4-2.46.46l.17.66c5.43-1.21,6.84,2.73,7.18,3.9.35,1.17,1.79,6.24-5.16,9.03-6.96,2.78-10.93-1.25-12.44-6.66-1.51-5.41,1.86-9.76,8.98-12.43,7.11-2.67,11.51.06,13.54,2.01,2.04,1.94,3.59,5.99,4.02,7.83.52,2.26-2.4,3.23-4.09,3.67Z" fill="#54b948"/>
    <path d="M986.94,409.86c-.71-.31-1.26-.74-1.72-1.35-.23-.3-.63-1.08-.78-1.43l-.02-.04-.9.39c.03.07.24.66.32.99.08.33.13.67.15,1.01.02.34,0,.69-.03,1.02-.04.34-.11.67-.22.99-.1.33-.23.64-.4.95-.1.17-.2.34-.31.5-.9,1.29-2.52,2.08-4.08,2.34-1.28.21-2.46.09-3.63-.5-1.25-.63-2.45-1.92-3.25-3.08-1.06-1.54-1.67-2.9-2.4-4.61-.73-1.7-1.47-3.44-2.12-5.18-.43-1.15-.39-2,.66-2.71.11-.08.23-.14.35-.2.5-.26,1.02-.49,1.54-.71.8-.36,1.6-.7,2.4-1.05.99-.42,1.98-.84,2.96-1.25,1.08-.46,2.16-.91,3.24-1.36,1.07-.45,2.15-.89,3.22-1.34.97-.4,1.95-.81,2.92-1.21,1.12-.47,2.24-.93,3.35-1.38.49-.2,1.02-.39,1.53-.24.13.04.25.1.37.17.2.12.37.28.51.45.68.81,1.05,1.93,1.47,2.89.45,1.02.87,2.05,1.28,3.09,1.06,2.72,2.23,5.84,1.44,8.79-.83,3.07-4.77,5.42-7.85,4.06Z" fill="#54b948"/>
  </g>
</svg>