<?xml version="1.0" encoding="UTF-8"?>
<svg id="Layer_1" xmlns="http://www.w3.org/2000/svg" version="1.1" viewBox="0 0 1719.06 798.84">
  <!-- Generator: Adobe Illustrator 29.4.0, SVG Export Plug-In . SVG Version: 2.1.0 Build 152)  -->
  <g id="flower3">
    <path d="M1300.3,628.87c.06-.09.12-.19.17-.28.09-.17.16-.35.22-.53.05-.18.09-.37.12-.56.02-.19.03-.38.01-.57-.01-.19-.04-.38-.09-.56-.05-.18-.17-.51-.19-.55l.5-.22v.02c.09.19.32.62.45.79.26.34.57.58.97.75,1.73.74,3.92-.59,4.36-2.31.43-1.65-.24-3.39-.85-4.9-.23-.58-.48-1.15-.73-1.72-.24-.54-.45-1.16-.84-1.6-.08-.1-.18-.18-.29-.25-.06-.04-.13-.07-.21-.09-.28-.08-.58.03-.85.14-.61.26-1.24.52-1.86.79-.54.23-1.08.46-1.63.69-.6.26-1.2.51-1.79.77-.6.26-1.2.51-1.8.77-.55.24-1.1.48-1.65.72-.45.2-.89.39-1.33.6-.29.13-.58.27-.86.41-.06.04-.13.07-.19.11-.58.4-.6.88-.35,1.52.37.97.8,1.94,1.21,2.88.42.95.77,1.71,1.37,2.56.45.64,1.13,1.36,1.84,1.7.65.32,1.31.38,2.03.26.87-.15,1.77-.6,2.26-1.33ZM1297.54,625.97l.45-.19c-.06.05-.13.09-.21.12s-.16.06-.23.07Z" fill="#54b948"/>
    <path d="M1295.3,618.84c-3.87,1.6-6.11-.64-6.99-3.65-.87-3.01.99-5.46,4.94-6.99,3.96-1.53,6.43-.04,7.58,1.04,1.15,1.08,2.04,3.32,2.29,4.35.31,1.25-1.32,1.81-2.26,2.07-.48.13-.85-.09-1.03-.54-.1-.26-.14-.53-.2-.8-.06-.28-.14-.55-.24-.82-.2-.52-.47-1.02-.84-1.45-.4-.47-.92-.83-1.51-1-.54-.16-1.11-.14-1.67-.07-.1.01-1.38.24-1.37.27l.1.37c3.03-.71,3.84,1.49,4.04,2.14.2.65,1.04,3.48-2.84,5.07Z" fill="#54b948"/>
    <path d="M1321.98,657.5c-.06-.03-.12-.05-.19-.05.07,0,.13.02.19.05Z" fill="#54b948"/>
    <path d="M1338.16,668.23c-.12.03-.26.04-.38.03-.59-.05-1.18-.34-1.73-.54-.58-.22-1.16-.45-1.73-.7-1.5-.64-3.2-1.39-4.07-2.86-.9-1.53-.3-4.02,1.45-4.72.4-.16.79-.21,1.21-.15.21.02.68.17.87.25h.03s.19-.5.19-.5c-.04-.02-.36-.16-.52-.26-.16-.1-.32-.21-.46-.33-.14-.12-.28-.26-.39-.41-.12-.15-.22-.31-.31-.47-.09-.17-.16-.34-.22-.53-.03-.11-.06-.21-.08-.32-.16-.86.15-1.82.66-2.54.42-.6.93-1.02,1.62-1.25.74-.25,1.73-.23,2.5-.09,1.03.18,1.81.47,2.78.84.97.38,1.95.76,2.9,1.18.63.28.95.63.82,1.32-.01.07-.04.15-.06.22-.1.3-.21.6-.32.89-.17.46-.34.91-.52,1.37-.22.56-.44,1.12-.66,1.68-.24.61-.48,1.22-.73,1.82-.24.6-.48,1.21-.73,1.81-.22.55-.44,1.09-.66,1.64-.25.63-.51,1.26-.76,1.88-.11.27-.24.56-.5.7-.06.04-.14.06-.21.08Z" fill="#54b948"/>
    <path d="M1351.63,666.33c1.72-3.89,1.3-6.93-1.45-8.44-2.75-1.51-5.91-1.5-7.52,2.36-1.61,3.87.98,5.27,1.58,5.59.6.32,2.73,1.3,4.37-1.34l.33.19s-.71,1.08-.78,1.16c-.34.44-.73.86-1.23,1.13-.54.3-1.17.4-1.78.36-.56-.04-1.11-.2-1.62-.43-.26-.12-.51-.25-.75-.4-.24-.15-.45-.31-.71-.42-.45-.19-.86-.08-1.11.35-.48.84-1.24,2.39-.13,3.06.9.55,3.12,1.51,4.7,1.46,1.57-.05,4.38-.74,6.1-4.62ZM1346.58,663.73s.08.04.12.05c.26.1.55.15.84.12-.32.12-.69.04-.96-.17Z" fill="#54b948"/>
    <path d="M1339.29,644.57c-1.51.61-3.25,1.28-4.9.85-1.72-.44-3.05-2.63-2.31-4.36.17-.4.41-.71.75-.97.17-.13.59-.36.79-.44h.02s-.22-.51-.22-.51c-.04.02-.37.14-.55.18-.19.05-.37.07-.56.09-.19.01-.38,0-.57-.01-.19-.02-.38-.06-.56-.12-.18-.05-.36-.13-.53-.22-.1-.05-.19-.11-.28-.17-.73-.5-1.18-1.4-1.33-2.26-.13-.72-.06-1.38.26-2.03.34-.7,1.06-1.38,1.7-1.83.86-.6,1.61-.95,2.56-1.37.95-.42,1.91-.84,2.88-1.21.64-.25,1.11-.23,1.52.35.04.06.08.13.11.2.15.28.28.57.41.85.2.44.4.89.6,1.33.24.55.48,1.1.72,1.65.26.6.52,1.2.78,1.8.26.6.51,1.19.77,1.79.23.54.46,1.08.69,1.62.27.62.53,1.25.79,1.87.12.27.22.57.14.85-.02.07-.05.14-.09.21-.07.11-.15.21-.25.29-.45.38-1.07.6-1.6.84-.57.26-1.14.5-1.72.73Z" fill="#54b948"/>
    <path d="M1321.87,667.69c.95-.69,1.76-1.6,2.17-2.7.31-.85.37-1.77.25-2.66.77.1,1.54.04,2.29-.28,1.3-.57,2.27-1.68,2.98-2.89.8-1.36,1.42-2.94,1.67-4.5.18-1.16.11-2.38-.38-3.44-.39-.85-1.04-1.57-1.79-2.12-.03-.02-.05-.04-.08-.06.67-.56,1.22-1.22,1.52-2,.52-1.32.41-2.79.06-4.15-.4-1.53-1.07-3.08-2-4.35-.69-.95-1.6-1.76-2.7-2.17-.74-.27-1.55-.35-2.33-.28.13-.97.07-1.93-.3-2.78-.57-1.3-1.68-2.27-2.89-2.98-1.36-.8-2.94-1.42-4.5-1.66-1.16-.18-2.38-.11-3.44.38-.69.32-1.3.81-1.8,1.39-.61-.84-1.37-1.54-2.29-1.9-1.33-.52-2.8-.41-4.15-.06-1.53.4-3.08,1.07-4.36,2-.95.69-1.76,1.6-2.16,2.7-.31.85-.37,1.79-.24,2.69-.79-.12-1.59-.06-2.36.27-1.3.57-2.27,1.68-2.98,2.89-.8,1.36-1.42,2.93-1.66,4.5-.18,1.16-.11,2.38.38,3.44.39.85,1.04,1.57,1.79,2.12.04.03.08.06.12.09-.68.56-1.24,1.23-1.54,2.01-.52,1.33-.41,2.8-.06,4.15.4,1.53,1.07,3.08,2,4.36.69.95,1.6,1.76,2.7,2.16.73.27,1.52.35,2.3.28-.12.95-.05,1.9.31,2.73.57,1.3,1.68,2.27,2.89,2.98,1.36.8,2.93,1.42,4.49,1.66,1.16.18,2.38.11,3.44-.38.71-.33,1.34-.84,1.85-1.44.61.86,1.39,1.57,2.32,1.94,1.33.52,2.8.41,4.15.06,1.53-.4,3.08-1.07,4.36-2ZM1315.75,665.61c-.69.02-1.38-.18-1.88-.68-.68-.66-.92-1.65-1.04-2.55-.02-.17-.05-.35-.12-.5-.17-.4-.53-.4-.9-.28-.7.22-1.58.5-2.08,1.06-.05.05-.09.11-.12.16-.05.02-.09.04-.11.08-.36.63-.13.57-.53,1.18-1.02,1.55-2.79,1.3-4.31.7-.64-.25-1.26-.59-1.76-1.06-.5-.48-.84-1.1-.85-1.81,0-.44.11-.86.28-1.26.16-.09.31-.19.46-.3.32-.22.55-.48.53-.89,0-.31-.14-.63-.25-.91-.15-.38-.27-.63-.46-1.02-.12-.23-.26-.52-.49-.64-.36-.19-.73.07-1.02.28-.58.44-1.22.81-1.93.95-1.82.37-2.89-1.06-3.54-2.55-.27-.63-.48-1.31-.49-2-.02-.69.19-1.37.68-1.88.66-.67,1.65-.91,2.55-1.04.17-.02.35-.05.5-.12.4-.17.4-.53.28-.9-.22-.7-.5-1.57-1.06-2.08-.28-.25-.62-.33-.97-.31-.09,0-.17.01-.26.03-.34-.15-.65-.27-1.05-.54-1.55-1.02-1.3-2.79-.7-4.3.25-.64.59-1.26,1.06-1.76.48-.5,1.1-.84,1.81-.85.95-.01,1.32.95,1.83.93.01,0,.03,0,.05-.01.05.01.11.01.17.01.31,0,.62-.14.91-.25.38-.15.63-.27,1.02-.46.23-.11.52-.26.64-.49.2-.36-.06-.73-.27-1.02-.44-.58-.81-1.22-.95-1.93-.37-1.82,1.06-2.89,2.55-3.54.63-.27,1.31-.48,2-.49.69-.02,1.38.18,1.88.68.67.66.91,1.65,1.04,2.55.02.17.05.34.11.5.17.4.53.4.9.29.7-.23,1.58-.5,2.08-1.06.06-.07.11-.14.15-.21,0,0,0,0,0,0,0,0,0,0,0,0,.36-.63.13-.57.53-1.18,1.02-1.55,2.79-1.3,4.31-.7.64.25,1.26.59,1.76,1.06.5.48.84,1.1.85,1.81,0,.47-.12.92-.32,1.35-.14.08-.27.17-.4.27-.31.22-.54.48-.53.89,0,.31.14.63.25.92.15.38.27.63.46,1.02.11.23.26.52.49.64.36.2.73-.06,1.01-.28.58-.43,1.22-.81,1.93-.95,1.82-.37,2.89,1.06,3.54,2.55.27.63.48,1.31.49,2,.02.69-.18,1.38-.68,1.88-.66.68-1.65.92-2.55,1.04-.17.02-.35.05-.5.12-.4.17-.4.53-.28.9.22.7.5,1.58,1.06,2.08.28.25.62.32.97.31.11,0,.22-.02.33-.04.31.14.6.26.96.5,1.55,1.02,1.3,2.79.7,4.31-.25.64-.59,1.26-1.06,1.76-.48.5-1.1.84-1.81.85-.58,0-.95-.35-1.26-.63,0,0,0,0-.02-.01-.09-.08-.19-.15-.27-.21-.02,0-.03-.02-.05-.02-.06-.03-.12-.05-.19-.05-.01,0-.02,0-.04,0h0s-.09-.01-.15-.01c-.31,0-.63.14-.91.25-.38.15-.63.27-1.02.46-.23.11-.52.26-.64.49-.2.36.06.73.27,1.02.44.58.81,1.22.95,1.93.37,1.82-1.06,2.89-2.55,3.54-.63.27-1.31.48-2,.49Z" fill="#54b948"/>
    <path d="M1345.65,641.71c-1.26.31-1.82-1.32-2.07-2.26-.13-.47.08-.85.54-1.03.26-.1.53-.14.8-.2.28-.06.55-.14.81-.25.53-.2,1.03-.47,1.45-.84.46-.4.83-.92,1.01-1.51.16-.54.14-1.11.07-1.67-.01-.1-.24-1.38-.27-1.37l-.37.1c.7,3.03-1.49,3.84-2.14,4.04-.65.2-3.48,1.04-5.07-2.83-1.59-3.87.64-6.11,3.65-6.99,3.01-.88,5.46.98,6.99,4.94,1.53,3.96.04,6.43-1.04,7.58-1.08,1.15-3.33,2.04-4.35,2.29Z" fill="#54b948"/>
    <path d="M1304.73,681.58c-.07-.01-.15-.04-.22-.06-.3-.09-.6-.21-.9-.31-.46-.17-.91-.35-1.37-.52-.56-.22-1.12-.44-1.67-.66-.61-.24-1.22-.48-1.82-.72-.6-.24-1.21-.48-1.81-.73-.55-.22-1.09-.44-1.64-.66-.63-.25-1.26-.51-1.87-.76-.28-.11-.56-.24-.7-.5-.03-.07-.06-.14-.08-.21-.03-.12-.04-.25-.03-.38.04-.59.33-1.18.54-1.73.22-.58.45-1.16.7-1.73.64-1.5,1.39-3.2,2.87-4.07,1.53-.9,4.02-.3,4.72,1.45.16.4.21.79.16,1.22-.03.21-.17.67-.25.87v.02s.5.2.5.2c.02-.04.16-.36.26-.52.1-.16.21-.32.34-.46.12-.14.26-.28.41-.39s.31-.22.47-.31c.17-.09.35-.17.53-.22.11-.03.21-.06.32-.08.86-.16,1.82.16,2.54.66.6.42,1.02.93,1.25,1.62.25.74.23,1.73.09,2.5-.18,1.03-.47,1.81-.84,2.78-.37.96-.76,1.95-1.18,2.9-.28.63-.62.95-1.32.82Z" fill="#54b948"/>
    <path d="M1294.55,689.91c-3.88-1.72-4.57-4.52-4.62-6.1-.05-1.57.91-3.79,1.46-4.7.67-1.1,2.22-.35,3.07.14.42.24.54.66.34,1.1-.11.26-.27.48-.42.71-.15.24-.29.49-.4.75-.23.51-.39,1.06-.43,1.62-.05.61.06,1.24.36,1.78.27.5.69.89,1.13,1.23.08.06,1.13.79,1.16.78l.19-.33c-2.64-1.64-1.66-3.76-1.34-4.37.32-.6,1.73-3.19,5.59-1.58,3.87,1.61,3.87,4.78,2.36,7.52-1.51,2.75-4.56,3.17-8.44,1.45Z" fill="#54b948"/>
    <path d="M1287.43,645.49c-.74.25-1.73.23-2.5.09-1.03-.18-1.81-.47-2.78-.84-.97-.38-1.95-.76-2.89-1.18-.63-.28-.95-.63-.82-1.32.01-.07.04-.15.06-.22.09-.3.21-.6.32-.89.17-.46.34-.91.52-1.37.22-.56.43-1.12.66-1.67.24-.61.48-1.22.72-1.82.24-.61.49-1.21.73-1.81.22-.55.44-1.09.66-1.64.25-.63.51-1.26.76-1.88.11-.27.25-.56.5-.7.07-.04.14-.06.21-.08.12-.03.25-.03.38-.03.59.05,1.18.34,1.73.54.58.22,1.16.45,1.73.7,1.5.64,3.2,1.39,4.07,2.86.9,1.53.3,4.02-1.45,4.72-.4.16-.79.21-1.22.16-.21-.03-.68-.17-.87-.25h-.02s-.2.5-.2.5c.04.02.36.16.52.26.16.1.32.21.46.33.14.13.27.27.39.41.12.15.22.31.31.47.09.17.16.35.22.53.03.1.06.21.08.32.16.86-.16,1.82-.66,2.54-.42.6-.93,1.02-1.62,1.25Z" fill="#54b948"/>
    <path d="M1271.55,640.5c-2.75-1.51-3.17-4.56-1.45-8.44,1.72-3.88,4.52-4.57,6.1-4.62,1.57-.05,3.8.91,4.7,1.46,1.11.67.35,2.22-.13,3.06-.24.43-.66.54-1.11.35-.25-.11-.48-.28-.71-.42-.24-.15-.49-.29-.75-.4-.51-.23-1.06-.39-1.62-.43-.61-.05-1.24.06-1.78.36-.5.27-.89.69-1.23,1.13-.06.08-.79,1.13-.78,1.16l.33.19c1.64-2.64,3.76-1.66,4.37-1.34.6.32,3.19,1.73,1.58,5.59-1.61,3.87-4.77,3.87-7.52,2.36Z" fill="#54b948"/>
    <path d="M1288.2,666.74c-.95.42-1.92.84-2.88,1.21-.64.25-1.11.23-1.52-.35-.04-.06-.08-.13-.11-.19-.15-.28-.28-.57-.41-.86-.2-.44-.4-.89-.6-1.33-.24-.55-.48-1.1-.72-1.65-.26-.6-.52-1.2-.77-1.8-.26-.6-.51-1.2-.77-1.79-.23-.54-.46-1.08-.69-1.63-.27-.62-.53-1.25-.79-1.86-.11-.27-.22-.57-.14-.85.02-.07.05-.14.09-.21.07-.11.15-.21.25-.29.45-.39,1.07-.6,1.6-.84.57-.26,1.14-.5,1.72-.73,1.51-.61,3.25-1.28,4.9-.85,1.72.44,3.05,2.63,2.31,4.36-.17.4-.41.7-.75.97-.17.13-.6.36-.79.44h-.02s.22.51.22.51c.04-.02.37-.14.55-.19.19-.05.37-.07.56-.09.19-.01.38,0,.57.01.19.02.37.06.56.12.18.05.36.13.53.22.1.05.19.11.28.17.72.5,1.18,1.4,1.33,2.26.13.72.06,1.37-.26,2.03-.34.7-1.06,1.38-1.7,1.83-.85.6-1.61.95-2.56,1.37Z" fill="#54b948"/>
    <path d="M1277.71,671.23c-3.01.87-5.46-.99-6.99-4.95-1.53-3.96-.03-6.43,1.04-7.58,1.07-1.15,3.33-2.04,4.35-2.29,1.26-.3,1.82,1.32,2.07,2.26.13.48-.09.85-.54,1.03-.26.1-.53.14-.8.2-.28.06-.55.14-.82.24-.52.2-1.03.47-1.45.84-.46.4-.83.92-1,1.51-.16.54-.14,1.11-.07,1.67.01.1.24,1.38.27,1.37,0,0,.37-.1.37-.1-.71-3.03,1.49-3.84,2.14-4.04.65-.2,3.48-1.04,5.07,2.84,1.6,3.87-.64,6.11-3.65,6.99Z" fill="#54b948"/>
    <path d="M1325.68,678.9c-.6.26-1.2.52-1.8.78-.6.26-1.19.51-1.79.77-.54.23-1.08.46-1.62.69-.62.27-1.25.53-1.86.79-.27.12-.57.22-.85.14-.07-.02-.14-.05-.21-.09-.11-.07-.21-.15-.29-.25-.39-.45-.6-1.07-.84-1.6-.26-.57-.5-1.14-.73-1.72-.61-1.51-1.28-3.25-.85-4.9.44-1.72,2.63-3.05,4.36-2.31.4.17.7.41.97.75.13.17.36.59.44.79v.02s.51-.22.51-.22c-.02-.04-.14-.37-.19-.55-.05-.19-.07-.37-.09-.56-.01-.19,0-.38.01-.57.02-.19.06-.38.12-.56.05-.18.13-.36.22-.53.05-.1.11-.19.17-.28.49-.73,1.4-1.18,2.26-1.33.72-.13,1.38-.06,2.03.26.7.34,1.38,1.06,1.83,1.7.6.86.95,1.61,1.37,2.56.42.95.84,1.92,1.21,2.88.25.64.23,1.11-.35,1.52-.06.04-.13.08-.19.11-.28.15-.57.28-.86.41-.44.2-.89.4-1.33.6-.55.24-1.1.48-1.65.72Z" fill="#54b948"/>
    <path d="M1322.47,658.14c-.09-.08-.19-.15-.27-.21.1.05.19.12.27.21Z" fill="#54b948"/>
    <path d="M1333.34,683.15c-.87-3.01-3.12-5.24-6.99-3.65-3.87,1.6-3.04,4.42-2.84,5.07.2.65,1.01,2.85,4.04,2.14l.1.37s-1.27.26-1.37.27c-.55.08-1.13.09-1.67-.07-.59-.17-1.11-.54-1.51-1-.36-.43-.64-.93-.84-1.45-.1-.27-.18-.54-.24-.82-.06-.27-.1-.54-.2-.8-.18-.45-.55-.67-1.03-.54-.94.25-2.57.81-2.26,2.07.25,1.03,1.14,3.28,2.29,4.35,1.15,1.08,3.62,2.57,7.58,1.04,3.96-1.53,5.82-3.98,4.94-6.99ZM1326.95,685.34c.06.05.12.11.19.15-.07-.04-.13-.09-.19-.15Z" fill="#54b948"/>
    <path d="M1326.94,618.97c-.43-.25-.54-.66-.35-1.11.11-.26.28-.48.42-.71.15-.24.29-.49.4-.75.23-.51.39-1.06.43-1.62.05-.61-.06-1.24-.36-1.78-.27-.5-.69-.89-1.13-1.23-.08-.06-1.13-.79-1.16-.78l-.19.33c2.64,1.64,1.66,3.76,1.34,4.37-.32.6-1.73,3.19-5.59,1.58-3.87-1.61-3.87-4.77-2.36-7.52,1.51-2.75,4.56-3.17,8.44-1.45,3.88,1.72,4.57,4.52,4.62,6.1.05,1.57-.91,3.79-1.46,4.7-.67,1.1-2.22.35-3.06-.13Z" fill="#54b948"/>
    <path d="M1319.95,628.24c-.16-.4-.21-.79-.16-1.21.03-.21.17-.68.25-.87v-.03s-.5-.19-.5-.19c-.02.04-.16.36-.26.52-.1.16-.21.32-.33.46-.12.14-.26.28-.41.39s-.31.22-.47.31c-.17.09-.34.16-.53.22-.11.03-.21.06-.32.08-.86.16-1.82-.15-2.54-.66-.6-.42-1.02-.93-1.25-1.62-.26-.74-.23-1.73-.09-2.5.18-1.03.47-1.81.84-2.78.38-.97.76-1.95,1.18-2.9.28-.63.63-.95,1.32-.82.07.01.15.04.22.06.3.09.6.21.89.32.46.17.91.35,1.37.52.56.22,1.12.44,1.67.66.61.24,1.22.48,1.82.72.6.24,1.21.48,1.81.73.55.22,1.09.44,1.64.66.63.25,1.26.51,1.88.76.27.11.56.24.7.5.04.06.06.14.08.21.03.12.04.26.03.38-.05.59-.34,1.18-.54,1.73-.22.58-.45,1.16-.7,1.73-.64,1.5-1.39,3.2-2.86,4.07-1.53.9-4.02.3-4.72-1.45Z" fill="#54b948"/>
    <path d="M180.56,425.31c-.05-.26-.1-.5-.18-.75-.13-.42-.29-.84-.5-1.23-.21-.39-.44-.76-.71-1.11-.27-.35-.57-.67-.91-.96-.33-.29-.68-.56-1.06-.79-.36-.22-1.1-.57-1.2-.61l.47-1.18.06.02c.46.19,1.53.53,2.02.59.99.14,1.88.03,2.82-.33,4.06-1.58,5.52-7.33,3.47-10.9-1.97-3.43-5.89-5.21-9.36-6.73-1.33-.58-2.66-1.14-4-1.66-1.27-.49-2.63-1.18-3.99-1.29-.29-.03-.6-.01-.88.06-.17.04-.33.1-.49.18-.6.33-.92.98-1.18,1.62-.59,1.42-1.21,2.88-1.8,4.32-.53,1.26-1.04,2.51-1.57,3.78-.57,1.39-1.15,2.78-1.73,4.17-.58,1.4-1.15,2.8-1.72,4.2-.53,1.29-1.05,2.58-1.56,3.87-.42,1.05-.83,2.09-1.24,3.15-.26.68-.52,1.37-.75,2.07-.05.17-.11.34-.14.5-.3,1.61.43,2.43,1.87,3.08,2.19.99,4.45,1.91,6.68,2.8,2.24.89,4.05,1.58,6.42,2.02,1.79.33,4.08.41,5.8-.16,1.6-.53,2.79-1.49,3.78-2.87,1.19-1.65,1.95-3.87,1.59-5.87ZM171.3,424.99l.43-1.05c-.03.17-.08.36-.16.55s-.17.36-.27.5Z" fill="#54b948"/>
    <path d="M156.03,416.83c-3.81,8.91-11.15,8.86-17.48,5.29-6.33-3.56-7.22-10.63-3.16-19.58,4.07-8.95,10.58-10.48,14.23-10.56,3.65-.09,8.77,2.19,10.85,3.49,2.54,1.58.75,5.15-.38,7.09-.58.98-1.54,1.23-2.57.78-.59-.26-1.1-.65-1.64-1-.55-.36-1.13-.68-1.73-.95-1.18-.54-2.44-.92-3.73-1.04-1.42-.13-2.88.11-4.13.79-1.16.62-2.07,1.57-2.87,2.6-.15.19-1.89,2.63-1.83,2.67l.76.45c3.86-6.08,8.76-3.76,10.15-3,1.39.76,7.35,4.07,3.53,12.99Z" fill="#54b948"/>
    <path d="M262.82,437.54c-.14.06-.28.12-.41.22.11-.11.25-.18.41-.22Z" fill="#54b948"/>
    <path d="M306.99,429.07c-.15.25-.36.48-.59.66-1.05.88-2.5,1.36-3.73,1.9-1.33.58-2.65,1.13-4,1.66-3.52,1.38-7.56,2.89-11.37,1.86-3.97-1.07-7.01-6.17-5.25-10.16.4-.92.96-1.63,1.76-2.22.39-.3,1.39-.82,1.84-1.01l.05-.03-.5-1.16c-.1.03-.87.31-1.28.41-.43.1-.87.17-1.3.19-.44.03-.89.01-1.32-.04-.44-.05-.87-.14-1.28-.28-.43-.13-.83-.3-1.23-.51-.22-.13-.43-.26-.64-.41-1.67-1.16-2.69-3.26-3.02-5.27-.28-1.66-.11-3.18.64-4.69.82-1.62,2.49-3.18,3.99-4.21,1.99-1.36,3.75-2.16,5.97-3.11,2.21-.94,4.46-1.9,6.7-2.74,1.49-.56,2.59-.5,3.5.85.1.15.18.31.26.46.33.66.63,1.32.92,2,.46,1.03.91,2.06,1.36,3.1.55,1.28,1.09,2.56,1.63,3.84.59,1.39,1.17,2.79,1.75,4.19.58,1.39,1.16,2.78,1.73,4.17.53,1.26,1.04,2.53,1.56,3.78.61,1.44,1.2,2.9,1.79,4.33.26.64.5,1.32.31,1.97-.05.17-.13.33-.22.48Z" fill="#54b948"/>
    <path d="M326.18,404.1c-3.45-9.21-9.08-13.57-16.08-11.62-7,1.96-12.22,7.1-8.62,16.1,3.61,9,10.17,7.13,11.68,6.69,1.52-.45,6.62-2.27,5.06-9.3l.85-.23c.07.03.57,2.94.6,3.18.16,1.28.18,2.61-.2,3.86-.41,1.36-1.28,2.56-2.37,3.47-.99.84-2.16,1.46-3.38,1.91-.62.23-1.25.42-1.89.55-.63.14-1.26.22-1.86.45-1.05.4-1.55,1.26-1.26,2.37.57,2.17,1.82,5.96,4.74,5.29,2.38-.56,7.62-2.56,10.13-5.2,2.52-2.64,6.05-8.32,2.6-17.53ZM313.63,407.99c.09-.03.19-.07.27-.1.61-.26,1.15-.65,1.58-1.16-.35.72-1.08,1.17-1.86,1.27Z" fill="#54b948"/>
    <path d="M270.51,388.09c-1.52,3.46-3.31,7.39-6.73,9.35-3.56,2.06-9.31.6-10.89-3.47-.36-.94-.47-1.83-.33-2.82.06-.48.4-1.56.59-2.01l.02-.06-1.18-.47c-.05.1-.39.83-.62,1.2-.23.38-.5.73-.79,1.06-.29.33-.62.63-.96.9-.34.28-.72.51-1.11.71-.39.21-.81.37-1.23.5-.24.07-.49.13-.74.17-2.01.36-4.22-.4-5.87-1.59-1.37-.98-2.33-2.18-2.87-3.78-.58-1.72-.49-4.01-.16-5.79.44-2.38,1.13-4.18,2.02-6.43.89-2.23,1.81-4.49,2.8-6.68.66-1.44,1.48-2.18,3.08-1.87.17.03.34.09.51.14.7.23,1.38.49,2.06.75,1.06.4,2.1.82,3.15,1.24,1.29.51,2.58,1.03,3.86,1.56,1.41.57,2.81,1.14,4.21,1.73,1.39.57,2.78,1.15,4.17,1.73,1.26.52,2.52,1.05,3.77,1.56,1.45.59,2.9,1.21,4.32,1.81.64.27,1.29.57,1.62,1.17.09.16.15.33.18.5.07.29.08.59.06.88-.12,1.36-.8,2.72-1.3,3.98-.53,1.35-1.08,2.68-1.66,4Z" fill="#54b948"/>
    <path d="M279.17,454.58c.45-2.68.31-5.51-.8-7.98-.86-1.91-2.26-3.53-3.91-4.81,1.44-1.07,2.62-2.43,3.32-4.18,1.24-3.05,1.03-6.46.25-9.61-.88-3.55-2.41-7.16-4.53-10.14-1.58-2.2-3.67-4.11-6.21-5.07-2.02-.77-4.25-.91-6.4-.61-.08.01-.15.02-.22.04.21-2,.03-3.99-.72-5.76-1.29-3.03-3.85-5.29-6.62-6.97-3.13-1.88-6.76-3.36-10.37-3.96-2.68-.45-5.51-.31-7.98.8-1.67.75-3.12,1.93-4.32,3.31-1.35-1.8-3.02-3.31-5.01-4.11-3.06-1.23-6.47-1.03-9.61-.25-3.54.89-7.16,2.41-10.13,4.54-2.21,1.57-4.12,3.67-5.08,6.21-.63,1.66-.84,3.45-.72,5.23-2.37-.4-4.77-.32-6.87.57-3.04,1.29-5.3,3.85-6.97,6.62-1.88,3.13-3.36,6.76-3.96,10.37-.45,2.68-.31,5.51.8,7.98.86,1.92,2.29,3.56,3.95,4.84-1.5,1.09-2.74,2.48-3.46,4.28-1.24,3.05-1.03,6.46-.25,9.61.88,3.54,2.41,7.15,4.54,10.13,1.57,2.21,3.67,4.12,6.21,5.08,2.02.77,4.25.91,6.4.61.11-.02.23-.04.35-.06-.22,2.02-.05,4.04.71,5.82,1.29,3.03,3.85,5.3,6.62,6.97,3.13,1.88,6.76,3.36,10.37,3.96,2.68.45,5.51.31,7.98-.8,1.65-.74,3.08-1.89,4.27-3.26,1.34,1.76,2.99,3.23,4.94,4.02,3.06,1.23,6.46,1.03,9.61.24,3.54-.88,7.15-2.41,10.13-4.53,2.21-1.58,4.12-3.67,5.08-6.21.64-1.7.85-3.56.71-5.38,2.4.42,4.85.35,6.98-.55,3.04-1.29,5.3-3.85,6.97-6.62,1.88-3.13,3.36-6.76,3.96-10.38ZM265.66,461.08c-1.12,1.15-2.58,1.93-4.21,1.93-2.19,0-4.19-1.25-5.87-2.53-.32-.24-.64-.5-1.01-.65-.93-.38-1.53.2-1.94.99-.79,1.5-1.79,3.39-1.73,5.13,0,.17.03.32.06.47-.06.11-.08.22-.06.31.42,1.62.71,1.15,1.03,2.8.82,4.22-2.52,6.68-5.99,8.14-1.46.62-3.04,1.07-4.64,1.09-1.6.02-3.18-.46-4.34-1.61-.72-.72-1.22-1.61-1.58-2.55.11-.41.2-.82.28-1.24.16-.88.13-1.67-.56-2.33-.52-.51-1.24-.81-1.9-1.1-.87-.38-1.46-.61-2.41-.95-.57-.19-1.27-.43-1.85-.27-.91.27-1.1,1.3-1.23,2.11-.25,1.66-.71,3.32-1.65,4.71-2.4,3.56-6.5,2.93-9.99,1.51-1.47-.6-2.9-1.39-4.06-2.5-1.15-1.11-1.92-2.57-1.92-4.2,0-2.19,1.24-4.18,2.53-5.86.24-.32.5-.64.65-1.01.38-.94-.2-1.53-.99-1.95-1.5-.79-3.38-1.79-5.12-1.73-.87.03-1.55.47-2.11,1.07-.14.14-.27.3-.38.46-.82.3-1.52.6-2.62.81-4.22.82-6.68-2.52-8.13-5.98-.62-1.46-1.08-3.04-1.1-4.64-.02-1.6.46-3.18,1.61-4.33,1.55-1.55,3.72-.57,4.52-1.43.02-.02.04-.05.06-.1.11-.07.2-.16.3-.26.5-.52.81-1.24,1.1-1.9.38-.87.61-1.46.94-2.4.2-.57.44-1.27.27-1.85-.26-.92-1.29-1.11-2.1-1.23-1.66-.25-3.32-.71-4.71-1.65-3.56-2.4-2.94-6.5-1.52-9.98.6-1.48,1.39-2.91,2.5-4.06,1.11-1.15,2.58-1.93,4.21-1.93,2.19,0,4.18,1.24,5.87,2.53.32.24.63.49,1,.64.94.38,1.54-.2,1.95-.98.78-1.5,1.79-3.39,1.72-5.13,0-.21-.04-.41-.09-.59,0,0,0-.01,0-.02,0,0,0-.01,0-.02-.43-1.62-.72-1.16-1.04-2.8-.81-4.22,2.52-6.68,5.99-8.14,1.46-.62,3.04-1.07,4.64-1.09,1.6-.03,3.18.46,4.34,1.61.77.77,1.29,1.72,1.65,2.74-.09.36-.17.73-.24,1.09-.16.88-.12,1.67.56,2.33.52.5,1.24.81,1.9,1.1.87.37,1.47.6,2.41.94.56.2,1.27.44,1.85.27.92-.26,1.11-1.29,1.23-2.1.26-1.66.71-3.32,1.66-4.71,2.4-3.56,6.5-2.94,9.98-1.52,1.47.6,2.91,1.39,4.06,2.5,1.15,1.12,1.93,2.58,1.93,4.21,0,2.19-1.25,4.19-2.53,5.87-.24.32-.5.64-.65,1.01-.38.93.2,1.53.99,1.94,1.5.79,3.39,1.79,5.13,1.73.87-.03,1.55-.47,2.11-1.07.17-.18.33-.38.48-.59.73-.27,1.41-.54,2.41-.73,4.22-.81,6.67,2.52,8.14,5.99.62,1.46,1.07,3.04,1.09,4.64.02,1.6-.46,3.18-1.61,4.33-.95.95-2.14.95-3.1,1-.01,0-.03,0-.05,0-.29.02-.56.05-.79.1-.03.01-.07.02-.11.04-.14.06-.28.12-.41.22-.03.01-.04.03-.06.05h0c-.09.07-.18.13-.26.22-.5.52-.81,1.24-1.1,1.9-.37.87-.6,1.47-.94,2.41-.2.57-.44,1.27-.27,1.85.26.92,1.29,1.11,2.1,1.23,1.66.25,3.32.71,4.71,1.65,3.56,2.4,2.94,6.5,1.52,9.98-.6,1.48-1.39,2.91-2.5,4.06Z" fill="#54b948"/>
    <path d="M276.39,373.07c-1.58,2.55-5.15.76-7.09-.38-.99-.57-1.24-1.54-.78-2.57.27-.59.65-1.1,1-1.63.36-.56.68-1.13.95-1.73.55-1.18.93-2.45,1.04-3.74.12-1.41-.11-2.87-.78-4.12-.62-1.15-1.57-2.07-2.6-2.87-.19-.15-2.64-1.88-2.67-1.83l-.45.76c6.07,3.87,3.75,8.76,2.99,10.15-.75,1.39-4.07,7.35-12.99,3.53-8.91-3.82-8.85-11.15-5.29-17.48,3.57-6.33,10.63-7.23,19.58-3.16,8.95,4.07,10.48,10.57,10.56,14.22.09,3.65-2.19,8.77-3.49,10.85Z" fill="#54b948"/>
    <path d="M273.32,505.35c-.15.1-.3.18-.46.26-.65.34-1.32.63-1.99.93-1.03.46-2.07.91-3.1,1.35-1.27.54-2.56,1.08-3.84,1.62-1.4.59-2.8,1.18-4.19,1.76-1.39.58-2.78,1.16-4.17,1.73-1.26.52-2.52,1.04-3.78,1.56-1.44.6-2.9,1.2-4.34,1.78-.64.26-1.32.5-1.98.31-.16-.05-.33-.13-.48-.22-.25-.15-.47-.36-.66-.59-.88-1.05-1.36-2.49-1.9-3.73-.58-1.32-1.13-2.65-1.66-3.99-1.37-3.53-2.89-7.56-1.86-11.38,1.07-3.97,6.17-7,10.16-5.25.92.41,1.62.96,2.23,1.76.29.39.81,1.39,1.01,1.84l.02.06,1.17-.51c-.04-.1-.32-.87-.42-1.28-.1-.43-.16-.87-.19-1.31-.03-.44-.01-.88.04-1.32.06-.44.14-.87.28-1.28.13-.43.3-.84.51-1.23.13-.22.26-.44.41-.64,1.17-1.67,3.27-2.7,5.28-3.03,1.66-.28,3.18-.11,4.7.65,1.62.81,3.17,2.49,4.21,3.98,1.37,1.99,2.16,3.75,3.11,5.97.95,2.2,1.9,4.46,2.74,6.7.56,1.48.51,2.58-.85,3.5Z" fill="#54b948"/>
    <path d="M269.97,535.62c-9.21,3.46-14.89-.07-17.53-2.59-2.64-2.52-4.65-7.75-5.2-10.14-.68-2.91,3.11-4.17,5.29-4.74,1.1-.28,1.96.22,2.36,1.27.24.6.32,1.24.45,1.86.13.64.32,1.28.55,1.89.45,1.22,1.07,2.39,1.91,3.38.91,1.09,2.11,1.95,3.47,2.36,1.25.38,2.58.35,3.86.2.24-.03,3.15-.52,3.18-.59l-.22-.86c-7.02,1.56-8.85-3.54-9.29-5.05-.45-1.52-2.32-8.08,6.68-11.68,9.01-3.6,14.15,1.62,16.1,8.62,1.96,7-2.4,12.63-11.61,16.08Z" fill="#54b948"/>
    <path d="M186.2,473.68c-.81,1.62-2.49,3.18-3.98,4.21-2,1.37-3.75,2.16-5.97,3.12-2.21.94-4.46,1.89-6.7,2.74-1.49.56-2.59.5-3.5-.85-.1-.14-.18-.3-.26-.46-.33-.65-.63-1.32-.93-1.99-.46-1.03-.91-2.06-1.35-3.1-.55-1.28-1.09-2.55-1.62-3.83-.59-1.4-1.18-2.8-1.76-4.19-.58-1.4-1.15-2.79-1.73-4.17-.52-1.26-1.04-2.52-1.56-3.78-.61-1.44-1.2-2.9-1.79-4.33-.26-.64-.5-1.32-.31-1.97.06-.17.13-.33.22-.48.16-.24.36-.47.58-.66,1.05-.88,2.5-1.36,3.73-1.9,1.33-.58,2.66-1.13,4-1.66,3.52-1.38,7.56-2.89,11.37-1.86,3.97,1.07,7.01,6.17,5.25,10.15-.41.92-.96,1.63-1.75,2.23-.39.3-1.39.82-1.85,1l-.05.02.51,1.17c.1-.04.86-.32,1.28-.42.43-.1.87-.16,1.3-.19.44-.02.88,0,1.32.05.44.05.87.14,1.29.27.42.14.83.31,1.22.52.22.12.44.26.65.4,1.67,1.17,2.69,3.27,3.02,5.27.27,1.67.11,3.19-.64,4.7Z" fill="#54b948"/>
    <path d="M151.85,491.16c-7,1.96-12.63-2.41-16.08-11.62-3.45-9.21.07-14.89,2.6-17.53,2.52-2.64,7.75-4.65,10.13-5.2,2.92-.68,4.18,3.11,4.74,5.29.29,1.1-.21,1.96-1.26,2.37-.6.23-1.23.32-1.86.45-.64.14-1.28.32-1.89.55-1.22.45-2.39,1.07-3.38,1.91-1.09.91-1.95,2.12-2.36,3.47-.38,1.26-.36,2.58-.2,3.87.02.24.52,3.15.59,3.18l.86-.22c-1.56-7.03,3.54-8.85,5.05-9.3,1.52-.45,8.07-2.31,11.68,6.69,3.61,9-1.62,14.14-8.62,16.1Z" fill="#54b948"/>
    <path d="M221.9,507.58c-.89,2.23-1.82,4.49-2.81,6.68-.65,1.44-1.47,2.18-3.08,1.87-.17-.03-.34-.09-.5-.14-.7-.23-1.38-.49-2.07-.75-1.06-.4-2.1-.82-3.15-1.24-1.29-.51-2.58-1.03-3.86-1.56-1.4-.57-2.8-1.15-4.2-1.72-1.39-.57-2.79-1.15-4.17-1.73-1.26-.53-2.52-1.05-3.78-1.57-1.45-.59-2.9-1.2-4.33-1.8-.63-.26-1.29-.57-1.61-1.18-.08-.15-.14-.32-.18-.49-.07-.29-.08-.59-.06-.88.12-1.36.8-2.72,1.29-3.98.53-1.35,1.08-2.68,1.66-4,1.52-3.46,3.3-7.39,6.73-9.36,3.57-2.05,9.32-.59,10.9,3.47.36.93.47,1.83.33,2.82-.07.49-.41,1.56-.59,2.02l-.02.06,1.18.47c.04-.1.39-.84.61-1.2.23-.38.5-.73.79-1.06.29-.33.62-.63.96-.91.35-.27.71-.5,1.11-.71.39-.21.8-.37,1.23-.5.24-.07.49-.13.75-.18,2-.35,4.21.41,5.87,1.59,1.37.98,2.33,2.17,2.86,3.78.57,1.72.48,4,.15,5.79-.44,2.37-1.13,4.18-2.01,6.42Z" fill="#54b948"/>
    <path d="M211.84,532.01c-3.57,6.33-10.63,7.22-19.59,3.15-8.95-4.07-10.48-10.58-10.56-14.23-.08-3.64,2.2-8.76,3.49-10.84,1.59-2.54,5.15-.76,7.1.38.98.58,1.23,1.54.77,2.57-.26.58-.65,1.09-.99,1.63-.36.55-.68,1.13-.95,1.73-.54,1.18-.93,2.45-1.04,3.74-.12,1.41.11,2.87.79,4.12.61,1.15,1.57,2.07,2.59,2.88.19.15,2.63,1.88,2.67,1.83,0,0,.45-.77.45-.77-6.08-3.86-3.76-8.76-3-10.15.75-1.39,4.07-7.35,12.99-3.53,8.91,3.81,8.85,11.15,5.29,17.48Z" fill="#54b948"/>
    <path d="M303.62,466.95c-.57,1.41-1.14,2.81-1.73,4.21-.57,1.39-1.15,2.78-1.73,4.17-.52,1.26-1.05,2.52-1.57,3.78-.59,1.45-1.21,2.9-1.81,4.32-.27.64-.58,1.29-1.18,1.62-.15.08-.32.14-.5.18-.29.07-.59.08-.88.06-1.36-.12-2.72-.8-3.98-1.3-1.35-.52-2.68-1.08-4-1.66-3.46-1.52-7.39-3.3-9.36-6.73-2.05-3.57-.59-9.32,3.47-10.9.93-.36,1.83-.47,2.82-.33.48.06,1.56.4,2.01.59l.06.02.47-1.18c-.1-.04-.83-.39-1.2-.61-.38-.23-.73-.5-1.06-.79-.33-.29-.63-.62-.9-.96-.27-.35-.51-.72-.71-1.11-.21-.39-.37-.81-.5-1.23-.07-.24-.13-.5-.17-.74-.36-2,.4-4.22,1.59-5.87.98-1.37,2.18-2.33,3.78-2.87,1.72-.57,4-.48,5.79-.16,2.38.44,4.18,1.13,6.43,2.02,2.23.89,4.49,1.81,6.67,2.8,1.45.65,2.18,1.47,1.87,3.08-.03.17-.09.34-.14.5-.23.7-.49,1.38-.75,2.07-.4,1.06-.82,2.1-1.24,3.15-.51,1.29-1.03,2.58-1.56,3.86Z" fill="#54b948"/>
    <path d="M264.68,437.82c-.29.02-.56.05-.79.1.26-.08.52-.11.79-.1Z" fill="#54b948"/>
    <path d="M323.19,461.56c-6.33-3.56-13.66-3.62-17.48,5.29-3.82,8.92,2.15,12.24,3.53,12.99,1.39.75,6.28,3.07,10.15-3l.76.45c.05.03-1.68,2.48-1.83,2.67-.8,1.02-1.72,1.97-2.87,2.6-1.26.67-2.71.91-4.13.79-1.29-.12-2.56-.5-3.74-1.04-.6-.28-1.17-.59-1.73-.95-.53-.35-1.04-.73-1.63-.99-1.03-.46-1.99-.21-2.57.78-1.14,1.94-2.93,5.51-.38,7.09,2.07,1.3,7.2,3.58,10.85,3.49,3.65-.08,10.15-1.61,14.22-10.56,4.07-8.95,3.18-16.01-3.16-19.58ZM316.17,475.55c.19,0,.37-.02.56-.05-.18.04-.37.06-.56.05Z" fill="#54b948"/>
    <path d="M208.6,365.77c-1.11.29-1.96-.21-2.37-1.26-.23-.6-.32-1.23-.45-1.86-.13-.64-.32-1.28-.55-1.89-.45-1.22-1.07-2.39-1.91-3.38-.91-1.09-2.11-1.95-3.47-2.36-1.25-.38-2.58-.36-3.86-.2-.24.02-3.15.52-3.18.59l.22.86c7.03-1.56,8.85,3.54,9.29,5.05.45,1.52,2.32,8.08-6.68,11.68-9.01,3.6-14.14-1.62-16.1-8.62-1.96-7,2.4-12.63,11.62-16.08,9.2-3.45,14.89.07,17.53,2.6,2.64,2.52,4.65,7.75,5.2,10.13.68,2.92-3.11,4.17-5.29,4.74Z" fill="#54b948"/>
    <path d="M212.04,392.43c-.92-.4-1.63-.96-2.23-1.75-.3-.39-.82-1.39-1-1.85l-.03-.05-1.16.51c.03.09.32.86.41,1.28.1.43.16.86.19,1.3.03.44.01.89-.04,1.32s-.14.87-.28,1.28c-.13.43-.3.83-.51,1.23-.13.22-.26.44-.41.64-1.16,1.67-3.26,2.69-5.27,3.02-1.66.28-3.19.12-4.7-.64-1.62-.81-3.17-2.49-4.21-3.98-1.37-2-2.16-3.75-3.11-5.97-.94-2.21-1.9-4.46-2.74-6.7-.56-1.49-.5-2.59.85-3.5.15-.1.3-.18.46-.26.65-.33,1.32-.63,1.99-.93,1.03-.46,2.07-.91,3.1-1.35,1.28-.55,2.56-1.09,3.84-1.62,1.4-.59,2.8-1.18,4.19-1.76,1.39-.58,2.78-1.16,4.17-1.73,1.26-.52,2.53-1.04,3.78-1.56,1.45-.61,2.9-1.2,4.34-1.78.64-.26,1.32-.5,1.97-.31.17.05.33.13.48.22.25.15.47.37.66.59.88,1.05,1.36,2.5,1.9,3.73.58,1.33,1.13,2.65,1.66,4,1.38,3.52,2.89,7.56,1.86,11.37-1.07,3.97-6.17,7.01-10.16,5.25Z" fill="#54b948"/>
    <path d="M857.21,527.5c-.02-.16-.05-.32-.1-.47-.07-.27-.17-.53-.29-.78-.12-.25-.26-.49-.42-.71-.17-.23-.35-.44-.55-.63-.2-.19-.42-.37-.65-.52-.22-.15-.68-.38-.74-.41l.32-.73.03.02c.28.13.95.37,1.26.42.62.11,1.19.06,1.78-.15,2.6-.91,3.64-4.5,2.43-6.79-1.17-2.2-3.6-3.41-5.75-4.44-.82-.4-1.65-.78-2.48-1.14-.79-.34-1.63-.8-2.49-.9-.18-.02-.38-.02-.56.02-.11.02-.21.06-.31.1-.39.19-.6.6-.78.99-.4.88-.83,1.79-1.23,2.68-.36.78-.71,1.56-1.07,2.35-.39.87-.79,1.73-1.18,2.59-.39.87-.79,1.74-1.18,2.61-.36.8-.72,1.6-1.07,2.4-.29.65-.57,1.3-.85,1.96-.18.42-.36.85-.52,1.29-.03.1-.08.21-.1.31-.23,1.01.22,1.54,1.11,1.98,1.36.67,2.77,1.3,4.15,1.91,1.39.61,2.52,1.08,4,1.41,1.12.24,2.56.35,3.66.03,1.02-.3,1.79-.88,2.44-1.72.79-1.02,1.31-2.39,1.13-3.66ZM851.38,527.09l.29-.65c-.02.11-.06.23-.11.34s-.11.22-.18.31Z" fill="#54b948"/>
    <path d="M841.93,521.61c-2.6,5.53-7.22,5.34-11.13,2.95-3.91-2.39-4.32-6.86-1.56-12.41,2.76-5.55,6.9-6.37,9.2-6.34,2.3.03,5.48,1.57,6.76,2.44,1.57,1.05.36,3.26-.4,4.46-.39.61-1,.74-1.63.43-.37-.18-.68-.43-1.01-.66-.34-.24-.7-.45-1.07-.64-.73-.37-1.52-.63-2.33-.74-.89-.11-1.82,0-2.62.41-.74.37-1.34.95-1.87,1.57-.1.12-1.25,1.62-1.21,1.64l.47.3c2.57-3.75,5.6-2.18,6.46-1.67.86.51,4.54,2.73,1.94,8.27Z" fill="#54b948"/>
    <path d="M908.79,537.01c-.09.03-.18.07-.26.13.07-.06.16-.11.26-.13Z" fill="#54b948"/>
    <path d="M936.81,532.64c-.1.16-.24.29-.38.41-.68.53-1.6.8-2.4,1.12-.85.34-1.7.65-2.56.96-2.25.79-4.83,1.65-7.21.92-2.48-.76-4.28-4.04-3.09-6.52.27-.57.64-1,1.16-1.36.25-.18.89-.49,1.18-.59l.03-.02-.29-.74c-.06.02-.55.18-.82.23-.27.06-.55.09-.83.09-.28,0-.56-.01-.83-.06-.28-.04-.54-.11-.8-.2-.27-.09-.52-.21-.76-.35-.14-.08-.27-.17-.4-.27-1.03-.77-1.63-2.11-1.79-3.39-.14-1.05,0-2.01.51-2.94.55-1.01,1.64-1.95,2.61-2.57,1.29-.81,2.41-1.28,3.83-1.83,1.41-.55,2.85-1.1,4.28-1.58.95-.32,1.64-.26,2.19.61.06.09.1.2.15.29.19.42.37.85.54,1.28.27.66.53,1.32.79,1.98.32.82.63,1.64.94,2.46.34.89.68,1.79,1.01,2.68.34.89.67,1.78,1,2.67.3.81.6,1.61.9,2.42.35.92.69,1.85,1.03,2.77.15.41.29.84.15,1.25-.03.1-.09.2-.15.3Z" fill="#54b948"/>
    <path d="M949.45,517.32c-1.98-5.88-5.43-8.75-9.88-7.67-4.45,1.08-7.86,4.21-5.78,9.96,2.08,5.75,6.25,4.72,7.22,4.47.97-.25,4.22-1.28,3.39-5.75l.54-.12s.29,1.87.31,2.02c.07.81.05,1.65-.21,2.43-.29.85-.86,1.58-1.57,2.13-.64.51-1.4.87-2.17,1.13-.39.13-.8.23-1.21.3-.4.07-.8.11-1.18.25-.67.23-1.01.76-.85,1.46.31,1.38,1.02,3.8,2.87,3.44,1.52-.3,4.86-1.45,6.5-3.06,1.65-1.61,3.99-5.11,2.02-10.99ZM941.46,519.49c.06-.02.12-.04.17-.06.39-.15.74-.38,1.02-.7-.24.44-.71.72-1.2.76Z" fill="#54b948"/>
    <path d="M914.72,506.01c-1.03,2.15-2.25,4.58-4.45,5.75-2.29,1.22-5.88.17-6.79-2.42-.21-.6-.26-1.16-.15-1.79.05-.3.29-.97.42-1.25l.02-.03-.73-.32c-.03.06-.26.52-.41.74-.15.24-.33.45-.52.65-.19.2-.4.38-.63.55-.22.17-.46.31-.71.42-.25.12-.52.22-.79.29-.16.04-.31.07-.47.09-1.27.18-2.65-.35-3.66-1.13-.84-.65-1.42-1.42-1.72-2.44-.33-1.1-.22-2.54.03-3.65.33-1.49.8-2.61,1.41-4.01.61-1.38,1.24-2.79,1.91-4.15.45-.9.98-1.34,1.98-1.11.11.03.21.06.32.1.43.16.86.34,1.28.52.66.28,1.31.56,1.96.85.8.35,1.6.71,2.4,1.07.88.39,1.75.78,2.61,1.18.87.39,1.73.78,2.59,1.18.78.35,1.57.72,2.34,1.07.9.4,1.8.83,2.69,1.24.4.18.8.39.99.78.05.1.09.21.11.32.04.18.04.37.02.56-.11.86-.56,1.7-.91,2.48-.36.84-.74,1.67-1.13,2.48Z" fill="#54b948"/>
    <path d="M918.72,548.1c.34-1.68.32-3.46-.33-5.05-.5-1.22-1.35-2.27-2.36-3.12.93-.64,1.7-1.47,2.18-2.56.85-1.9.79-4.05.37-6.05-.48-2.26-1.36-4.56-2.63-6.49-.95-1.42-2.23-2.67-3.8-3.33-1.26-.53-2.66-.67-4.02-.53-.05,0-.1,0-.14.02.17-1.26.11-2.52-.33-3.65-.75-1.94-2.31-3.42-4.02-4.54-1.93-1.25-4.19-2.26-6.45-2.72-1.68-.34-3.46-.32-5.05.33-1.07.44-2.01,1.15-2.79,1.99-.81-1.17-1.83-2.15-3.07-2.7-1.9-.84-4.05-.79-6.05-.37-2.25.48-4.56,1.36-6.49,2.64-1.43.94-2.68,2.22-3.34,3.8-.43,1.03-.6,2.16-.57,3.28-1.48-.31-3-.31-4.34.21-1.94.75-3.43,2.31-4.54,4.02-1.26,1.93-2.27,4.19-2.73,6.45-.34,1.68-.32,3.46.33,5.05.5,1.23,1.36,2.29,2.38,3.14-.97.65-1.78,1.5-2.28,2.62-.85,1.9-.79,4.05-.37,6.05.48,2.25,1.36,4.56,2.64,6.49.94,1.43,2.22,2.68,3.8,3.34,1.26.53,2.66.67,4.02.53.07,0,.15-.02.22-.03-.18,1.27-.12,2.54.32,3.69.75,1.94,2.31,3.43,4.02,4.54,1.93,1.26,4.19,2.27,6.45,2.73,1.68.34,3.46.32,5.05-.33,1.06-.43,1.98-1.13,2.76-1.96.81,1.14,1.81,2.1,3.02,2.64,1.9.84,4.05.79,6.05.36,2.25-.48,4.56-1.36,6.48-2.63,1.43-.95,2.68-2.22,3.34-3.8.44-1.06.61-2.22.57-3.38,1.51.32,3.05.33,4.41-.19,1.94-.75,3.42-2.31,4.54-4.02,1.26-1.93,2.26-4.19,2.72-6.45ZM910.06,551.9c-.73.7-1.67,1.16-2.69,1.12-1.38-.05-2.61-.88-3.64-1.72-.19-.16-.39-.33-.62-.43-.58-.26-.97.09-1.25.58-.53.93-1.2,2.09-1.2,3.19,0,.11.01.2.03.3-.04.07-.06.14-.04.2.23,1.03.43.74.59,1.79.42,2.68-1.73,4.15-3.95,5-.94.36-1.94.61-2.95.59-1.01-.02-2-.36-2.7-1.11-.44-.47-.73-1.04-.94-1.64.08-.25.14-.51.2-.78.12-.55.12-1.05-.3-1.48-.32-.33-.76-.54-1.17-.74-.54-.26-.91-.42-1.5-.65-.35-.13-.79-.3-1.16-.21-.58.15-.72.8-.82,1.3-.2,1.04-.52,2.07-1.14,2.93-1.59,2.19-4.16,1.71-6.33.73-.91-.41-1.8-.94-2.5-1.67-.7-.73-1.15-1.66-1.12-2.69.05-1.38.88-2.61,1.72-3.64.16-.19.33-.39.43-.62.26-.58-.09-.97-.58-1.25-.93-.53-2.09-1.2-3.19-1.2-.55,0-.99.26-1.35.63-.09.09-.17.18-.25.28-.52.17-.97.34-1.67.45-2.68.42-4.15-1.73-4.99-3.95-.36-.94-.61-1.94-.59-2.95.02-1.01.36-2,1.11-2.7,1.01-.94,2.36-.28,2.88-.8.01-.01.03-.03.04-.06.07-.04.13-.1.19-.16.33-.32.54-.76.73-1.17.26-.54.42-.91.65-1.5.14-.35.3-.79.21-1.16-.14-.58-.79-.73-1.3-.82-1.04-.2-2.08-.52-2.93-1.14-2.19-1.59-1.71-4.16-.74-6.32.41-.92.94-1.8,1.67-2.5.73-.7,1.67-1.16,2.69-1.12,1.38.05,2.61.88,3.64,1.72.19.16.39.32.62.43.58.26.97-.09,1.25-.58.53-.93,1.2-2.09,1.2-3.19,0-.13-.02-.26-.04-.38,0,0,0,0,0-.01,0,0,0,0,0-.01-.23-1.03-.43-.75-.59-1.79-.42-2.68,1.73-4.15,3.95-5,.94-.36,1.94-.61,2.95-.59,1.01.02,2,.36,2.7,1.11.47.5.78,1.11.98,1.77-.06.22-.12.46-.17.68-.12.55-.11,1.05.3,1.48.32.33.76.54,1.17.74.54.25.91.41,1.5.64.35.14.79.3,1.16.21.58-.14.73-.79.82-1.3.2-1.04.52-2.08,1.15-2.93,1.59-2.19,4.16-1.71,6.32-.74.91.41,1.8.94,2.5,1.67.7.73,1.16,1.67,1.12,2.69-.05,1.38-.88,2.61-1.72,3.64-.16.19-.33.39-.43.62-.26.58.09.97.58,1.25.93.53,2.09,1.2,3.19,1.2.55,0,.99-.26,1.35-.63.11-.11.22-.23.31-.36.47-.15.9-.31,1.53-.41,2.68-.42,4.15,1.74,5,3.96.36.94.61,1.94.59,2.95-.02,1.01-.36,2-1.11,2.7-.62.58-1.37.55-1.97.57,0,0-.02,0-.03,0-.18,0-.35.02-.5.05-.02,0-.05.01-.07.02-.09.03-.18.07-.26.13-.02,0-.03.02-.04.03h0c-.06.04-.12.08-.17.13-.33.32-.54.76-.74,1.17-.25.54-.41.91-.64,1.5-.14.35-.3.79-.21,1.16.14.58.79.73,1.3.82,1.04.2,2.08.52,2.93,1.14,2.19,1.59,1.71,4.16.74,6.32-.41.92-.94,1.8-1.67,2.5Z" fill="#54b948"/>
    <path d="M918.75,496.67c-1.05,1.57-3.26.36-4.46-.4-.61-.38-.75-1-.44-1.64.18-.36.44-.68.67-1,.24-.34.45-.7.64-1.07.37-.73.64-1.52.74-2.34.11-.89,0-1.81-.4-2.62-.37-.74-.95-1.34-1.57-1.87-.12-.1-1.62-1.25-1.64-1.21l-.3.47c3.74,2.57,2.17,5.6,1.66,6.46-.5.86-2.73,4.54-8.26,1.94-5.53-2.6-5.34-7.22-2.95-11.13,2.39-3.91,6.86-4.32,12.41-1.56,5.55,2.76,6.37,6.89,6.35,9.2-.03,2.3-1.57,5.48-2.44,6.76Z" fill="#54b948"/>
    <path d="M913.92,579.98c-.09.06-.2.11-.29.15-.42.2-.85.37-1.28.54-.66.27-1.32.53-1.99.79-.82.31-1.63.63-2.45.94-.89.34-1.79.68-2.68,1.02-.89.34-1.78.67-2.67,1-.8.3-1.61.6-2.41.9-.92.35-1.86.69-2.77,1.02-.41.15-.84.29-1.25.15-.1-.04-.2-.09-.3-.15-.16-.1-.29-.24-.41-.38-.53-.68-.8-1.6-1.12-2.4-.34-.84-.65-1.7-.96-2.55-.79-2.25-1.65-4.83-.92-7.21.76-2.48,4.04-4.28,6.52-3.09.57.28,1,.64,1.37,1.16.18.25.48.89.59,1.18v.04s.76-.29.76-.29c-.02-.06-.18-.55-.24-.82-.06-.27-.08-.55-.09-.83,0-.28.01-.56.05-.83s.11-.54.2-.8c.09-.27.21-.52.35-.76.08-.14.17-.27.27-.4.77-1.03,2.12-1.63,3.39-1.79,1.05-.14,2.01,0,2.95.51,1,.55,1.95,1.64,2.56,2.6.82,1.28,1.28,2.41,1.83,3.83.55,1.41,1.1,2.85,1.58,4.28.32.95.26,1.64-.61,2.19Z" fill="#54b948"/>
    <path d="M911.14,598.98c-5.88,1.98-9.38-.37-10.99-2.02-1.61-1.65-2.76-4.99-3.06-6.5-.36-1.85,2.05-2.56,3.44-2.87.7-.16,1.23.18,1.46.85.14.38.18.79.25,1.18.07.41.17.81.3,1.21.26.78.62,1.53,1.13,2.17.55.71,1.29,1.27,2.14,1.56.78.27,1.62.28,2.43.21.15-.01,2-.26,2.02-.3l-.12-.55c-4.46.83-5.5-2.42-5.75-3.39-.25-.97-1.28-5.14,4.47-7.22,5.76-2.07,8.88,1.33,9.96,5.78,1.08,4.45-1.79,7.91-7.67,9.88Z" fill="#54b948"/>
    <path d="M859.7,558.1c-.55,1-1.64,1.95-2.6,2.56-1.29.82-2.41,1.28-3.83,1.83-1.41.55-2.85,1.1-4.28,1.58-.95.32-1.64.26-2.19-.61-.06-.09-.11-.19-.15-.29-.19-.42-.37-.85-.54-1.27-.27-.66-.53-1.32-.79-1.99-.32-.82-.63-1.63-.94-2.45-.34-.9-.68-1.79-1.02-2.68-.33-.89-.67-1.78-1-2.67-.3-.81-.6-1.61-.9-2.42-.35-.92-.69-1.86-1.03-2.77-.15-.41-.28-.84-.15-1.25.04-.11.09-.21.15-.3.1-.15.24-.29.38-.4.68-.53,1.6-.8,2.4-1.12.85-.34,1.7-.66,2.56-.96,2.25-.79,4.83-1.65,7.21-.92,2.48.76,4.28,4.04,3.09,6.51-.28.57-.64,1-1.15,1.37-.25.18-.9.48-1.19.59h-.03s.29.76.29.76c.06-.02.55-.18.82-.24.27-.06.55-.08.83-.09.28,0,.56.02.83.06.28.04.54.11.81.2.26.1.52.21.76.35.14.08.27.17.4.27,1.03.77,1.62,2.12,1.79,3.39.14,1.06,0,2.02-.51,2.95Z" fill="#54b948"/>
    <path d="M837.67,568.37c-4.45,1.08-7.91-1.79-9.88-7.67-1.97-5.88.37-9.38,2.02-10.99,1.64-1.61,4.99-2.76,6.5-3.06,1.86-.37,2.56,2.05,2.87,3.44.16.7-.18,1.23-.85,1.46-.38.13-.78.17-1.18.24-.41.07-.81.17-1.21.3-.78.26-1.53.62-2.17,1.13-.71.55-1.28,1.29-1.56,2.14-.27.78-.28,1.62-.21,2.43.01.15.26,2,.3,2.02l.55-.12c-.83-4.47,2.42-5.5,3.39-5.75.97-.25,5.14-1.28,7.22,4.47,2.08,5.75-1.33,8.88-5.78,9.96Z" fill="#54b948"/>
    <path d="M881.47,580.25c-.61,1.39-1.24,2.79-1.91,4.15-.44.89-.97,1.34-1.98,1.11-.11-.03-.21-.06-.31-.1-.43-.16-.86-.34-1.29-.52-.66-.28-1.31-.56-1.96-.85-.8-.35-1.6-.71-2.4-1.07-.87-.39-1.74-.78-2.61-1.18-.87-.39-1.73-.79-2.59-1.18-.78-.36-1.57-.72-2.35-1.07-.9-.4-1.8-.82-2.69-1.23-.39-.18-.8-.39-.99-.78-.05-.1-.08-.21-.1-.31-.04-.18-.04-.38-.02-.56.1-.86.56-1.7.9-2.48.36-.84.74-1.66,1.14-2.48,1.03-2.15,2.24-4.59,4.44-5.75,2.29-1.22,5.89-.17,6.79,2.42.21.6.26,1.16.15,1.78-.05.31-.29.98-.42,1.26l-.02.03.73.32c.03-.06.26-.52.41-.74.16-.23.33-.45.52-.65.19-.2.4-.38.63-.55.22-.16.46-.3.71-.42.25-.12.51-.21.78-.29.16-.04.31-.07.47-.1,1.27-.18,2.65.35,3.66,1.13.84.65,1.42,1.42,1.72,2.45.32,1.09.22,2.53-.03,3.65-.33,1.49-.8,2.61-1.41,4Z" fill="#54b948"/>
    <path d="M874.59,595.43c-2.39,3.91-6.86,4.32-12.41,1.56-5.55-2.76-6.37-6.9-6.34-9.2.03-2.3,1.58-5.47,2.44-6.76,1.06-1.57,3.26-.36,4.47.4.61.39.74,1,.43,1.64-.18.36-.43.67-.66,1.01-.24.34-.45.7-.64,1.07-.37.73-.64,1.52-.74,2.34-.11.89,0,1.81.41,2.61.36.74.95,1.34,1.57,1.87.12.1,1.62,1.24,1.64,1.21,0,0,.3-.48.3-.48-3.75-2.57-2.18-5.6-1.67-6.46.51-.86,2.73-4.54,8.27-1.94,5.53,2.6,5.34,7.22,2.95,11.13Z" fill="#54b948"/>
    <path d="M933.86,556.44c-.39.88-.78,1.75-1.18,2.61-.39.87-.78,1.73-1.18,2.59-.36.79-.72,1.57-1.07,2.35-.4.9-.83,1.8-1.23,2.68-.18.4-.39.8-.78,1-.1.05-.21.08-.32.1-.18.04-.37.04-.56.02-.86-.1-1.7-.56-2.48-.91-.84-.36-1.67-.74-2.48-1.13-2.15-1.03-4.58-2.24-5.75-4.44-1.22-2.29-.17-5.89,2.42-6.79.6-.21,1.16-.26,1.79-.15.3.05.97.29,1.25.42l.03.02.32-.73c-.06-.03-.52-.26-.74-.41-.23-.16-.45-.33-.65-.52-.2-.19-.38-.4-.55-.63-.17-.23-.3-.47-.42-.71-.12-.25-.22-.52-.29-.79-.04-.16-.07-.32-.09-.47-.18-1.27.35-2.65,1.13-3.66.65-.84,1.42-1.42,2.44-1.72,1.09-.32,2.53-.22,3.65.03,1.49.33,2.61.8,4.01,1.41,1.38.61,2.79,1.24,4.14,1.91.9.44,1.34.97,1.11,1.98-.02.1-.06.21-.1.31-.16.43-.34.86-.52,1.29-.28.66-.56,1.3-.85,1.96-.35.8-.71,1.6-1.07,2.4Z" fill="#54b948"/>
    <path d="M909.96,537.22c-.18,0-.35.02-.5.05.16-.05.33-.06.5-.05Z" fill="#54b948"/>
    <path d="M946.31,553.47c-3.91-2.39-8.53-2.58-11.13,2.95-2.6,5.54,1.08,7.76,1.94,8.27.86.51,3.89,2.08,6.47-1.67l.47.3s-1.11,1.52-1.21,1.64c-.52.63-1.13,1.21-1.87,1.57-.81.4-1.73.51-2.62.41-.81-.1-1.6-.37-2.34-.74-.37-.19-.73-.4-1.07-.64-.33-.23-.64-.48-1.01-.66-.64-.31-1.25-.18-1.63.43-.76,1.2-1.97,3.41-.4,4.46,1.28.86,4.46,2.41,6.76,2.44,2.3.03,6.44-.79,9.2-6.35,2.76-5.55,2.35-10.02-1.56-12.41ZM941.58,562.13c.12,0,.24,0,.35-.02-.12.02-.23.03-.35.02Z" fill="#54b948"/>
    <path d="M876.19,490.58c-.7.16-1.23-.18-1.46-.85-.13-.39-.17-.78-.25-1.18-.07-.41-.17-.81-.3-1.21-.26-.78-.62-1.53-1.13-2.17-.55-.71-1.29-1.27-2.14-1.56-.78-.27-1.62-.28-2.43-.21-.15.01-2,.26-2.02.3l.12.55c4.47-.83,5.5,2.42,5.75,3.39.25.97,1.28,5.14-4.47,7.22-5.76,2.07-8.88-1.33-9.96-5.78s1.79-7.91,7.67-9.88c5.88-1.97,9.38.37,10.99,2.02,1.61,1.64,2.76,4.99,3.06,6.5.36,1.86-2.05,2.56-3.44,2.87Z" fill="#54b948"/>
    <path d="M877.77,507.46c-.57-.27-1-.64-1.36-1.15-.18-.25-.48-.9-.59-1.19l-.02-.03-.74.3c.02.06.18.55.23.81.06.27.09.55.09.83,0,.28-.01.56-.06.83s-.11.54-.2.8c-.09.27-.21.52-.35.76-.08.14-.17.27-.27.4-.77,1.03-2.11,1.63-3.39,1.79-1.05.14-2.01,0-2.95-.51-1-.55-1.95-1.64-2.56-2.6-.82-1.29-1.28-2.41-1.83-3.83-.55-1.41-1.1-2.85-1.58-4.28-.32-.95-.26-1.64.61-2.19.09-.06.19-.11.29-.15.42-.19.85-.37,1.27-.54.66-.27,1.32-.53,1.99-.79.82-.32,1.64-.63,2.45-.94.89-.34,1.79-.68,2.68-1.02.89-.34,1.78-.67,2.67-1,.8-.3,1.61-.6,2.41-.9.92-.35,1.86-.69,2.77-1.03.41-.15.84-.29,1.25-.15.1.03.2.09.3.15.16.1.29.24.41.38.53.68.8,1.6,1.12,2.4.34.85.65,1.7.96,2.56.79,2.25,1.65,4.83.92,7.21-.76,2.48-4.04,4.28-6.52,3.09Z" fill="#54b948"/>
  </g>
</svg>