<?xml version="1.0" encoding="UTF-8"?>
<svg id="Layer_1" xmlns="http://www.w3.org/2000/svg" version="1.1" viewBox="0 0 1719.06 798.84">
  <!-- Generator: Adobe Illustrator 29.4.0, SVG Export Plug-In . SVG Version: 2.1.0 Build 152)  -->
  <path d="M1211.05,646.55c-.06.02-.12.05-.17.09.05-.04.11-.07.17-.09Z" fill="#54b948"/>
  <path d="M1211.83,646.68c-.12,0-.24.02-.34.04.11-.03.22-.04.34-.04Z" fill="#54b948"/>
  <path d="M1097,650.04c-.01-.08-.03-.15-.05-.23-.04-.13-.09-.26-.15-.38-.06-.12-.14-.23-.22-.34-.08-.11-.18-.21-.28-.3-.1-.09-.21-.17-.33-.24-.11-.07-.34-.18-.37-.19l.14-.36h.02c.14.06.47.17.62.19.31.04.58,0,.87-.1,1.25-.49,1.7-2.26,1.07-3.36-.61-1.06-1.82-1.61-2.89-2.08-.41-.18-.82-.35-1.23-.51-.39-.15-.81-.36-1.23-.4-.09,0-.18,0-.27.02-.05.01-.1.03-.15.06-.19.1-.28.3-.37.5-.18.44-.37.89-.56,1.33-.16.39-.32.78-.49,1.17-.18.43-.36.86-.53,1.29-.18.43-.36.86-.53,1.3-.16.4-.32.8-.48,1.19-.13.32-.26.65-.38.97-.08.21-.16.42-.23.64-.01.05-.03.1-.04.16-.09.5.13.75.58.95.67.31,1.38.59,2.06.87.69.27,1.25.49,1.98.62.55.1,1.26.13,1.79-.05.49-.16.86-.46,1.17-.88.37-.51.6-1.19.49-1.81ZM1094.14,649.94l.13-.32c0,.05-.03.11-.05.17s-.05.11-.08.15Z" fill="#54b948"/>
  <path d="M1122.4,653.81s-.09.04-.13.07c.03-.03.08-.05.13-.07Z" fill="#54b948"/>
  <path d="M1136.03,651.2c-.05.08-.11.15-.18.21-.32.27-.77.42-1.15.59-.41.18-.82.35-1.24.51-1.09.43-2.33.89-3.51.57-1.23-.33-2.16-1.91-1.62-3.14.12-.28.3-.5.54-.69.12-.09.43-.25.57-.31h.02s-.16-.37-.16-.37c-.03,0-.27.1-.4.13-.13.03-.27.05-.4.06-.14,0-.27,0-.41-.01-.14-.02-.27-.04-.4-.09-.13-.04-.26-.09-.38-.16-.07-.04-.13-.08-.2-.13-.52-.36-.83-1.01-.93-1.63-.09-.51-.03-.98.2-1.45.25-.5.77-.98,1.23-1.3.62-.42,1.16-.67,1.84-.96.68-.29,1.38-.59,2.07-.85.46-.17.8-.16,1.08.26.03.05.05.1.08.14.1.2.19.41.28.62.14.32.28.64.42.96.17.39.34.79.5,1.19.18.43.36.86.54,1.29.18.43.36.86.53,1.29.16.39.32.78.48,1.17.19.44.37.89.55,1.34.08.2.16.41.09.61-.01.05-.04.1-.07.15Z" fill="#54b948"/>
  <path d="M1125.64,674.75s-.09.06-.14.08c-.2.1-.41.19-.62.29-.32.14-.64.28-.96.42-.39.17-.79.33-1.18.5-.43.18-.86.36-1.29.54-.43.18-.86.36-1.29.53-.39.16-.78.32-1.17.48-.45.19-.9.37-1.34.55-.2.08-.41.16-.61.1-.05-.02-.1-.04-.15-.07-.08-.05-.15-.11-.21-.18-.27-.32-.42-.77-.59-1.15-.18-.41-.35-.82-.51-1.23-.42-1.09-.89-2.33-.57-3.51.33-1.22,1.9-2.16,3.14-1.62.28.13.5.3.69.54.09.12.25.43.31.57v.02s.37-.16.37-.16c-.01-.03-.1-.27-.13-.4-.03-.13-.05-.27-.06-.4,0-.14,0-.27.01-.41s.04-.27.09-.4c.04-.13.09-.26.16-.38.04-.07.08-.14.13-.2.36-.52,1.01-.83,1.63-.94.51-.09.98-.03,1.45.2.5.25.98.77,1.3,1.23.42.61.67,1.16.96,1.84.29.68.59,1.38.85,2.07.17.46.16.8-.26,1.08Z" fill="#54b948"/>
  <path d="M1124.6,684.1c-2.84,1.07-4.6-.02-5.41-.8-.81-.78-1.43-2.39-1.61-3.13-.21-.9.96-1.29,1.63-1.46.34-.09.6.07.73.39.07.18.1.38.14.57.04.2.1.39.17.58.14.38.33.74.59,1.04.28.34.65.6,1.07.73.39.12.8.11,1.19.06.07,0,.97-.16.98-.18l-.07-.27c-2.17.48-2.73-1.09-2.87-1.56-.14-.47-.72-2.49,2.06-3.61,2.78-1.11,4.37.5,4.97,2.66.6,2.16-.74,3.9-3.59,4.96Z" fill="#54b948"/>
  <path d="M1098.74,664.97c-.25.5-.77.98-1.23,1.3-.62.42-1.16.67-1.84.96-.68.29-1.38.58-2.07.84-.46.17-.8.16-1.08-.26-.03-.04-.06-.09-.08-.14-.1-.2-.19-.41-.29-.61-.14-.32-.28-.64-.42-.96-.17-.39-.34-.79-.5-1.18-.18-.43-.36-.86-.54-1.29-.18-.43-.36-.86-.53-1.29-.16-.39-.32-.78-.48-1.17-.19-.44-.37-.9-.55-1.34-.08-.2-.15-.41-.09-.61.02-.05.04-.1.07-.15.05-.08.11-.14.18-.2.32-.27.77-.42,1.15-.59.41-.18.82-.35,1.24-.51,1.09-.43,2.33-.89,3.51-.57,1.23.33,2.16,1.9,1.62,3.13-.13.29-.3.5-.54.69-.12.09-.43.25-.57.31h-.02s.16.37.16.37c.03-.01.27-.1.4-.13.13-.03.27-.05.4-.06.14,0,.27,0,.41.02.14.02.27.04.4.08.13.04.26.1.38.16.07.04.14.08.2.12.52.36.83,1.01.93,1.63.08.51.03.99-.2,1.45Z" fill="#54b948"/>
  <path d="M1088.14,670.37c-2.16.6-3.9-.74-4.97-3.59-1.06-2.84.02-4.6.8-5.41.78-.81,2.39-1.44,3.13-1.61.9-.21,1.29.96,1.46,1.63.09.34-.07.61-.39.73-.19.07-.38.1-.57.14-.2.04-.39.1-.58.17-.38.14-.74.33-1.04.59-.34.28-.6.65-.73,1.07-.12.39-.11.8-.06,1.19,0,.07.16.97.18.98l.27-.07c-.48-2.17,1.09-2.73,1.56-2.87.47-.14,2.49-.71,3.61,2.07,1.11,2.78-.5,4.37-2.66,4.97Z" fill="#54b948"/>
  <path d="M1109.76,675.44c-.28.69-.56,1.39-.87,2.06-.2.44-.45.67-.95.58-.05-.01-.1-.03-.16-.04-.22-.07-.43-.15-.64-.23-.33-.12-.65-.25-.97-.38-.4-.16-.8-.32-1.19-.48-.43-.18-.87-.35-1.3-.53-.43-.18-.86-.35-1.29-.53-.39-.16-.78-.32-1.17-.49-.45-.18-.9-.37-1.34-.56-.19-.08-.4-.18-.5-.36-.02-.05-.04-.1-.06-.15-.02-.09-.03-.18-.02-.27.04-.42.25-.84.4-1.23.16-.42.33-.83.51-1.23.47-1.07,1.02-2.28,2.08-2.89,1.1-.63,2.88-.18,3.36,1.07.11.29.14.56.1.87-.02.15-.13.48-.18.62v.02s.36.14.36.14c.01-.03.12-.26.19-.37.07-.12.15-.23.24-.33.09-.1.19-.19.3-.28.11-.08.22-.16.34-.22.12-.06.25-.11.38-.15.08-.02.15-.04.23-.05.62-.11,1.3.13,1.81.49.42.3.72.67.88,1.17.18.53.15,1.24.05,1.79-.13.73-.35,1.29-.62,1.98Z" fill="#54b948"/>
  <path d="M1106.66,682.98c-1.1,1.95-3.28,2.23-6.05.97-2.76-1.26-3.23-3.27-3.26-4.39-.03-1.12.68-2.71,1.08-3.35.49-.79,1.59-.23,2.19.12.3.18.38.48.24.79-.08.18-.2.34-.31.5-.11.17-.21.35-.29.53-.17.36-.29.76-.32,1.16-.04.44.04.89.24,1.27.19.36.49.64.8.89.06.05.81.58.82.57,0,0,.14-.24.14-.24-1.88-1.19-1.16-2.7-.93-3.13.23-.43,1.26-2.27,4.01-1.09,2.75,1.18,2.73,3.44,1.63,5.4Z" fill="#54b948"/>
  <path d="M1135,662.9c-.18.43-.35.87-.53,1.3-.18.43-.35.86-.53,1.29-.16.39-.32.78-.48,1.17-.18.45-.37.9-.56,1.33-.08.2-.18.4-.36.5-.05.02-.1.04-.15.06-.09.02-.18.03-.27.02-.42-.04-.84-.25-1.23-.4-.42-.16-.83-.33-1.23-.51-1.07-.47-2.28-1.02-2.89-2.08-.63-1.1-.18-2.88,1.07-3.36.29-.11.56-.14.87-.1.15.02.48.12.62.18h.02s.14-.36.14-.36c-.03-.01-.26-.12-.37-.19-.12-.07-.23-.15-.33-.24-.1-.09-.19-.19-.28-.3-.08-.11-.16-.22-.22-.34-.06-.12-.12-.25-.16-.38-.02-.08-.04-.15-.05-.23-.11-.62.12-1.3.49-1.81.3-.42.67-.72,1.17-.88.53-.18,1.24-.15,1.79-.05.73.14,1.29.35,1.98.62.69.28,1.39.56,2.06.87.45.2.67.45.58.95,0,.05-.03.1-.04.16-.07.22-.15.43-.23.64-.12.33-.25.65-.38.97-.16.4-.32.8-.48,1.19Z" fill="#54b948"/>
  <path d="M1122.97,653.9c-.09,0-.17.01-.24.03.08-.03.16-.03.24-.03Z" fill="#54b948"/>
  <path d="M1141.04,661.23c-1.95-1.1-4.22-1.12-5.4,1.63-1.18,2.75.66,3.78,1.09,4.01.43.23,1.94.95,3.13-.93l.24.14s-.52.76-.57.82c-.25.32-.53.61-.89.8-.39.21-.84.28-1.27.24-.4-.04-.79-.15-1.16-.32-.18-.09-.36-.18-.53-.29-.16-.11-.32-.23-.5-.31-.32-.14-.62-.06-.79.24-.35.6-.9,1.7-.12,2.19.64.4,2.22,1.1,3.35,1.08,1.13-.02,3.14-.5,4.39-3.26,1.26-2.76.98-4.94-.97-6.05ZM1138.87,665.55c.06,0,.12,0,.17-.02-.06.01-.11.02-.17.02Z" fill="#54b948"/>
  <g id="flower2">
    <path d="M653.98,466.64c-.11-.27-.22-.53-.36-.79-.23-.44-.5-.86-.82-1.25-.32-.38-.66-.75-1.03-1.07-.38-.33-.78-.62-1.21-.87-.43-.25-.88-.47-1.35-.65-.45-.16-1.35-.39-1.46-.42l.26-1.41h.07c.55.12,1.81.27,2.37.23,1.13-.06,2.09-.38,3.05-.98,4.16-2.64,4.53-9.34,1.48-12.85-2.93-3.37-7.68-4.5-11.85-5.43-1.6-.36-3.2-.68-4.8-.97-1.52-.27-3.17-.73-4.71-.57-.33.04-.67.12-.97.26-.18.08-.35.18-.5.31-.59.5-.8,1.29-.96,2.05-.35,1.71-.72,3.46-1.06,5.19-.31,1.51-.61,3.02-.92,4.53-.33,1.67-.67,3.34-1.01,5.01-.34,1.68-.67,3.36-1,5.04-.3,1.55-.6,3.09-.89,4.63-.24,1.25-.47,2.5-.69,3.76-.14.81-.28,1.64-.39,2.46-.02.2-.05.4-.05.59.01,1.85,1.01,2.6,2.75,3.01,2.64.62,5.36,1.15,8.03,1.66,2.68.5,4.84.87,7.56.84,2.06-.03,4.61-.43,6.4-1.44,1.66-.94,2.78-2.27,3.57-4,.96-2.09,1.32-4.72.49-6.86ZM643.63,468.3l.24-1.25c0,.2-.01.42-.06.64s-.11.43-.19.61Z" fill="#54b948"/>
    <path d="M624.9,462.57c-2.29,10.73-10.44,12.26-18.25,9.68-7.8-2.58-10.33-10.23-7.77-21.04,2.56-10.83,9.46-13.94,13.49-14.82,4.03-.89,10.21.52,12.8,1.51,3.16,1.2,1.96,5.55,1.12,7.95-.43,1.22-1.44,1.7-2.68,1.42-.71-.16-1.36-.48-2.03-.75-.69-.28-1.4-.5-2.12-.68-1.42-.35-2.91-.49-4.37-.34-1.6.17-3.17.75-4.41,1.77-1.15.94-1.96,2.2-2.62,3.51-.12.24-1.52,3.33-1.45,3.36l.95.33c2.96-7.59,8.9-6.08,10.61-5.55,1.71.54,9.04,2.92,6.75,13.65Z" fill="#54b948"/>
    <path d="M747.94,462.27c-.15.09-.28.2-.4.33.1-.14.24-.25.4-.33Z" fill="#54b948"/>
    <path d="M795.11,443.25c-.11.31-.29.61-.51.87-.98,1.2-2.47,2.05-3.73,2.92-1.34.93-2.7,1.83-4.08,2.71-3.61,2.3-7.76,4.85-12.22,4.54-4.64-.32-9.12-5.32-8.04-10.13.25-1.11.71-2.01,1.47-2.85.36-.42,1.36-1.21,1.83-1.52l.05-.04-.81-1.18c-.1.06-.89.54-1.34.73-.45.21-.92.38-1.41.5-.48.13-.98.21-1.48.24-.5.04-.99.03-1.49-.03-.5-.05-.99-.15-1.47-.3-.27-.09-.54-.19-.8-.31-2.11-.92-3.7-3.03-4.5-5.19-.67-1.78-.82-3.51-.31-5.35.55-1.98,2.07-4.07,3.51-5.54,1.92-1.94,3.69-3.21,5.95-4.76,2.24-1.53,4.53-3.08,6.84-4.5,1.53-.94,2.76-1.12,4.07.18.14.14.26.3.39.45.51.66.99,1.33,1.46,2.01.74,1.04,1.46,2.09,2.18,3.14.89,1.3,1.77,2.6,2.64,3.91.96,1.42,1.91,2.84,2.86,4.27.95,1.42,1.89,2.83,2.83,4.26.86,1.28,1.71,2.58,2.55,3.86.99,1.46,1.96,2.95,2.93,4.42.42.65.85,1.35.77,2.12-.02.2-.07.39-.14.58Z" fill="#54b948"/>
    <path d="M810.97,411.35c-5.84-9.47-13.04-13.08-20.38-9.38-7.34,3.7-12.02,10.54-6.05,19.75,5.96,9.21,12.84,5.7,14.42,4.88,1.59-.83,6.85-3.96,3.59-11.42l.9-.44c.09.02,1.27,3.14,1.36,3.4.46,1.39.77,2.86.62,4.33-.16,1.6-.86,3.12-1.87,4.36-.92,1.14-2.08,2.09-3.33,2.85-.63.39-1.3.73-1.98,1.02-.67.29-1.35.52-1.97.91-1.08.68-1.45,1.74-.89,2.9,1.11,2.29,3.32,6.22,6.42,4.83,2.53-1.14,7.9-4.51,10.11-7.98,2.22-3.48,4.9-10.55-.94-20.02ZM797.89,418.4c.1-.06.19-.12.28-.18.62-.42,1.14-.97,1.5-1.63-.23.87-.94,1.54-1.78,1.81Z" fill="#54b948"/>
    <path d="M745.69,405.72c-.93,4.17-2.06,8.92-5.43,11.85-3.5,3.06-10.2,2.69-12.84-1.47-.61-.96-.93-1.93-.98-3.06-.04-.55.11-1.82.22-2.36v-.07s-1.4-.26-1.4-.26c-.03.12-.25,1.01-.42,1.46-.17.47-.39.92-.65,1.35-.25.43-.55.83-.87,1.21-.32.38-.68.72-1.07,1.03-.39.31-.81.59-1.26.83-.26.13-.52.25-.78.35-2.15.84-4.77.47-6.86-.49-1.74-.79-3.06-1.91-4-3.57-1.01-1.78-1.42-4.34-1.44-6.39-.02-2.74.34-4.88.84-7.57.5-2.67,1.03-5.38,1.65-8.02.42-1.75,1.16-2.74,3.01-2.75.2,0,.4.02.6.05.82.1,1.64.24,2.45.39,1.26.21,2.51.45,3.77.69,1.54.29,3.08.59,4.62.89,1.69.33,3.37.66,5.05,1,1.67.33,3.34.67,5.01,1.01,1.51.3,3.03.61,4.53.91,1.74.34,3.48.71,5.19,1.07.77.16,1.55.36,2.05.95.13.16.23.33.31.51.14.3.22.63.26.97.16,1.54-.29,3.19-.57,4.7-.29,1.61-.61,3.21-.97,4.8Z" fill="#54b948"/>
    <path d="M769.8,477.62c-.08-3.07-.85-6.18-2.62-8.68-1.37-1.93-3.28-3.43-5.38-4.49,1.36-1.5,2.37-3.26,2.77-5.36.71-3.66-.27-7.4-1.82-10.72-1.75-3.75-4.23-7.42-7.24-10.27-2.23-2.1-4.97-3.76-8-4.28-2.41-.42-4.92-.08-7.24.72-.08.03-.16.05-.24.09-.21-2.27-.83-4.44-2.06-6.24-2.09-3.08-5.42-5.04-8.87-6.29-3.88-1.41-8.24-2.25-12.37-2.13-3.07.08-6.18.85-8.68,2.62-1.69,1.2-3.04,2.82-4.07,4.62-1.89-1.71-4.07-3.01-6.46-3.47-3.66-.7-7.4.27-10.72,1.82-3.74,1.76-7.42,4.24-10.26,7.24-2.11,2.23-3.77,4.97-4.28,8-.33,1.98-.18,4.01.34,5.96-2.71.07-5.37.68-7.5,2.13-3.09,2.1-5.05,5.43-6.29,8.87-1.41,3.89-2.26,8.24-2.14,12.38.09,3.07.85,6.18,2.63,8.69,1.37,1.94,3.31,3.45,5.44,4.51-1.43,1.53-2.5,3.35-2.91,5.51-.71,3.66.27,7.4,1.82,10.72,1.75,3.74,4.23,7.41,7.24,10.26,2.23,2.11,4.97,3.77,8,4.28,2.41.41,4.92.08,7.24-.72.12-.04.25-.09.37-.14.2,2.3.82,4.49,2.06,6.31,2.09,3.09,5.43,5.05,8.87,6.29,3.89,1.41,8.24,2.26,12.38,2.14,3.07-.08,6.18-.85,8.69-2.63,1.67-1.18,3-2.77,4.02-4.55,1.87,1.67,4.02,2.93,6.36,3.38,3.66.7,7.4-.27,10.72-1.83,3.74-1.75,7.41-4.23,10.26-7.24,2.11-2.24,3.77-4.97,4.28-8,.34-2.03.16-4.13-.38-6.13,2.76-.06,5.46-.67,7.62-2.13,3.09-2.1,5.04-5.43,6.29-8.87,1.41-3.89,2.25-8.24,2.13-12.38ZM756.22,487.78c-.99,1.52-2.44,2.7-4.25,3.06-2.43.47-4.92-.47-7.06-1.53-.4-.2-.82-.41-1.26-.5-1.12-.22-1.65.56-1.94,1.52-.55,1.84-1.25,4.15-.8,6.07.04.18.1.35.17.51-.04.14-.04.26,0,.36.82,1.71,1.04,1.12,1.76,2.88,1.83,4.5-1.34,7.96-4.87,10.34-1.49,1-3.14,1.85-4.91,2.23-1.77.37-3.63.19-5.16-.84-.95-.64-1.7-1.52-2.31-2.49.03-.48.04-.96.04-1.44,0-1.01-.22-1.89-1.13-2.46-.69-.45-1.55-.63-2.34-.81-1.05-.24-1.76-.36-2.88-.52-.67-.09-1.51-.2-2.11.1-.95.5-.94,1.68-.91,2.61.08,1.9-.07,3.84-.81,5.59-1.89,4.48-6.57,4.67-10.75,3.86-1.76-.34-3.53-.91-5.05-1.89-1.52-.99-2.69-2.44-3.05-4.25-.48-2.43.47-4.91,1.53-7.06.2-.4.41-.82.5-1.26.22-1.13-.56-1.65-1.53-1.94-1.84-.55-4.14-1.25-6.06-.8-.96.23-1.62.85-2.11,1.65-.12.19-.23.39-.32.6-.84.52-1.56,1-2.73,1.47-4.5,1.83-7.96-1.34-10.33-4.87-1.01-1.49-1.86-3.14-2.23-4.91-.37-1.77-.19-3.63.85-5.16,1.38-2.06,4.01-1.45,4.71-2.57.02-.03.04-.07.05-.12.1-.1.19-.22.28-.35.44-.69.62-1.55.8-2.35.24-1.05.36-1.76.52-2.87.1-.68.21-1.5-.1-2.11-.49-.96-1.67-.95-2.6-.91-1.9.08-3.84-.07-5.59-.81-4.48-1.89-4.68-6.57-3.87-10.75.34-1.77.91-3.53,1.89-5.05.99-1.52,2.44-2.7,4.25-3.06,2.43-.48,4.91.47,7.06,1.53.4.2.81.41,1.25.5,1.13.22,1.66-.56,1.95-1.52.54-1.84,1.25-4.15.79-6.07-.05-.23-.13-.45-.23-.64,0,0,0-.01-.01-.03,0,0,0-.01,0-.02-.83-1.71-1.05-1.13-1.76-2.88-1.82-4.5,1.34-7.96,4.87-10.34,1.49-1,3.14-1.85,4.91-2.23,1.77-.38,3.63-.19,5.16.84,1.02.69,1.81,1.63,2.43,2.69-.02.42-.03.84-.02,1.27.02,1.01.23,1.88,1.13,2.46.69.44,1.55.63,2.35.81,1.04.23,1.76.35,2.88.51.67.1,1.5.21,2.11-.1.96-.49.95-1.67.91-2.6-.07-1.9.07-3.84.81-5.59,1.89-4.48,6.57-4.68,10.75-3.87,1.76.34,3.53.91,5.05,1.89,1.52.99,2.7,2.44,3.06,4.25.47,2.43-.47,4.92-1.53,7.06-.2.4-.41.82-.5,1.26-.22,1.12.55,1.65,1.52,1.94,1.84.55,4.15,1.25,6.07.8.96-.23,1.62-.86,2.11-1.65.15-.24.28-.5.4-.76.75-.46,1.45-.9,2.51-1.34,4.5-1.82,7.96,1.34,10.34,4.88,1,1.49,1.85,3.14,2.23,4.91.37,1.77.19,3.63-.85,5.16-.85,1.26-2.16,1.52-3.22,1.79-.01,0-.03,0-.06.01-.31.08-.61.17-.86.28-.04.02-.08.04-.11.07-.15.09-.28.2-.4.33-.03.02-.04.05-.06.07h0c-.09.1-.17.19-.24.3-.44.69-.63,1.55-.81,2.34-.23,1.04-.35,1.76-.51,2.88-.1.68-.21,1.5.1,2.11.49.96,1.67.95,2.6.91,1.9-.08,3.84.07,5.59.81,4.48,1.89,4.68,6.57,3.87,10.75-.34,1.77-.91,3.53-1.89,5.05Z" fill="#54b948"/>
    <path d="M748.94,387.77c-1.2,3.17-5.56,1.96-7.95,1.12-1.22-.42-1.71-1.44-1.43-2.68.17-.71.49-1.36.75-2.03.27-.7.5-1.4.67-2.13.35-1.43.5-2.92.34-4.38-.17-1.59-.75-3.16-1.77-4.41-.94-1.14-2.2-1.96-3.51-2.62-.24-.12-3.34-1.52-3.36-1.45l-.33.95c7.59,2.97,6.08,8.91,5.54,10.61-.53,1.7-2.92,9.04-13.64,6.75-10.72-2.3-12.26-10.45-9.68-18.25,2.58-7.81,10.22-10.34,21.04-7.77,10.83,2.56,13.94,9.45,14.83,13.48.89,4.03-.52,10.21-1.51,12.8Z" fill="#54b948"/>
    <path d="M774.37,535.25c-.14.14-.3.27-.45.39-.65.52-1.33.99-2.01,1.47-1.05.74-2.1,1.46-3.15,2.18-1.3.88-2.6,1.76-3.9,2.64-1.42.96-2.85,1.92-4.27,2.86-1.42.95-2.83,1.89-4.26,2.83-1.28.85-2.57,1.7-3.85,2.55-1.47.98-2.96,1.96-4.43,2.92-.65.43-1.35.85-2.13.78-.19-.02-.39-.07-.58-.14-.31-.11-.6-.29-.87-.51-1.2-.97-2.05-2.47-2.92-3.73-.93-1.34-1.83-2.7-2.71-4.07-2.29-3.61-4.85-7.76-4.54-12.23.32-4.64,5.32-9.12,10.13-8.04,1.11.25,2.01.71,2.86,1.47.41.37,1.2,1.37,1.52,1.83l.03.06,1.18-.82c-.07-.1-.54-.89-.74-1.33-.21-.45-.37-.93-.5-1.41-.13-.48-.21-.97-.24-1.47-.03-.5-.03-.99.03-1.49.05-.5.16-.99.3-1.47.09-.27.19-.54.31-.8.93-2.11,3.04-3.71,5.2-4.51,1.78-.67,3.51-.82,5.35-.3,1.97.55,4.07,2.07,5.54,3.51,1.95,1.91,3.21,3.69,4.76,5.95,1.53,2.23,3.08,4.53,4.5,6.84.94,1.52,1.12,2.75-.18,4.07Z" fill="#54b948"/>
    <path d="M777.25,569.57c-9.47,5.84-16.54,3.17-20.02.95-3.48-2.22-6.85-7.59-7.98-10.12-1.39-3.09,2.54-5.3,4.84-6.42,1.16-.55,2.22-.19,2.89.89.39.61.63,1.3.91,1.97.29.68.63,1.35,1.02,1.98.77,1.25,1.71,2.41,2.85,3.33,1.25,1.01,2.77,1.7,4.37,1.86,1.47.15,2.94-.17,4.33-.62.26-.09,3.38-1.26,3.4-1.35l-.44-.9c-7.46,3.27-10.59-2-11.41-3.58-.83-1.59-4.33-8.46,4.87-14.42,9.21-5.96,16.06-1.28,19.75,6.05,3.7,7.34.09,14.54-9.38,20.38Z" fill="#54b948"/>
    <path d="M670.78,519.09c-.55,1.97-2.07,4.07-3.51,5.54-1.92,1.95-3.69,3.21-5.95,4.76-2.24,1.53-4.53,3.07-6.84,4.5-1.53.94-2.76,1.12-4.07-.18-.14-.13-.26-.3-.39-.45-.51-.65-.99-1.33-1.46-2.01-.74-1.05-1.46-2.09-2.18-3.15-.89-1.3-1.77-2.59-2.64-3.9-.96-1.43-1.92-2.85-2.86-4.27-.95-1.42-1.89-2.84-2.83-4.26-.85-1.29-1.7-2.57-2.55-3.86-.99-1.46-1.96-2.96-2.93-4.42-.42-.65-.84-1.36-.77-2.12.02-.2.07-.4.14-.59.12-.31.3-.6.5-.86.98-1.2,2.47-2.05,3.73-2.92,1.34-.93,2.7-1.84,4.08-2.71,3.61-2.3,7.76-4.85,12.22-4.54,4.64.32,9.13,5.31,8.04,10.12-.25,1.11-.71,2.01-1.46,2.86-.37.42-1.37,1.21-1.83,1.52l-.05.04.82,1.18c.1-.07.89-.54,1.33-.74.45-.21.93-.37,1.41-.5.48-.12.98-.2,1.48-.23.5-.04.99-.03,1.49.02.5.06.99.16,1.47.31.27.08.54.19.81.3,2.11.93,3.7,3.04,4.5,5.19.67,1.79.82,3.52.31,5.36Z" fill="#54b948"/>
    <path d="M636.47,545.98c-7.34,3.7-14.54.08-20.38-9.38-5.84-9.47-3.16-16.54-.94-20.02,2.22-3.48,7.59-6.85,10.11-7.98,3.1-1.39,5.31,2.54,6.42,4.83.56,1.16.19,2.23-.89,2.9-.62.38-1.3.62-1.97.9-.68.29-1.35.63-1.98,1.02-1.25.77-2.41,1.71-3.33,2.85-1.01,1.25-1.7,2.77-1.86,4.37-.15,1.48.16,2.94.62,4.34.08.26,1.26,3.38,1.35,3.4l.9-.44c-3.27-7.46,2-10.59,3.58-11.42,1.59-.83,8.46-4.33,14.42,4.88,5.96,9.21,1.29,16.05-6.05,19.75Z" fill="#54b948"/>
    <path d="M717.8,548.93c-.51,2.67-1.03,5.38-1.66,8.03-.41,1.74-1.15,2.74-3.01,2.75-.2,0-.39-.02-.59-.05-.82-.1-1.64-.24-2.46-.39-1.26-.21-2.51-.45-3.77-.69-1.54-.29-3.08-.59-4.62-.89-1.68-.33-3.36-.66-5.04-1-1.67-.33-3.34-.67-5.01-1.01-1.52-.31-3.03-.61-4.53-.92-1.73-.34-3.48-.7-5.2-1.06-.76-.16-1.55-.36-2.05-.96-.12-.15-.23-.33-.31-.5-.14-.3-.22-.64-.26-.97-.17-1.54.29-3.19.57-4.7.29-1.61.62-3.21.97-4.8.93-4.17,2.05-8.93,5.43-11.85,3.51-3.06,10.21-2.69,12.85,1.47.6.96.92,1.92.98,3.05.03.56-.11,1.82-.22,2.37v.07s1.4.26,1.4.26c.02-.12.25-1.01.42-1.46.18-.47.39-.92.65-1.35.25-.43.55-.83.87-1.21.33-.37.68-.72,1.07-1.03.39-.31.81-.58,1.25-.82.26-.13.52-.25.79-.36,2.14-.83,4.77-.46,6.86.49,1.74.79,3.06,1.9,4,3.57,1.01,1.78,1.41,4.34,1.43,6.39.03,2.73-.34,4.88-.83,7.57Z" fill="#54b948"/>
    <path d="M711.95,578.24c-2.58,7.8-10.23,10.33-21.05,7.77-10.83-2.56-13.93-9.46-14.82-13.49-.88-4.02.53-10.2,1.51-12.79,1.21-3.17,5.56-1.96,7.96-1.13,1.22.43,1.7,1.44,1.42,2.69-.16.7-.48,1.35-.75,2.03-.28.69-.51,1.4-.68,2.12-.35,1.42-.5,2.92-.34,4.38.17,1.59.75,3.16,1.77,4.4.93,1.15,2.2,1.96,3.51,2.63.24.12,3.33,1.51,3.36,1.45,0,0,.33-.95.33-.95-7.59-2.96-6.08-8.9-5.55-10.61.53-1.71,2.92-9.04,13.65-6.75,10.73,2.29,12.26,10.45,9.68,18.25Z" fill="#54b948"/>
    <path d="M799.64,486.02c-.33,1.69-.66,3.37-1,5.05-.33,1.67-.67,3.34-1.01,5.01-.3,1.52-.61,3.03-.91,4.54-.34,1.73-.71,3.48-1.07,5.19-.16.77-.36,1.56-.95,2.06-.15.12-.33.23-.51.31-.3.14-.63.22-.97.26-1.54.17-3.19-.29-4.7-.57-1.61-.28-3.21-.61-4.8-.97-4.17-.93-8.92-2.05-11.85-5.43-3.06-3.51-2.69-10.21,1.47-12.85.96-.6,1.92-.92,3.06-.98.55-.04,1.82.11,2.36.22h.07s.26-1.4.26-1.4c-.12-.02-1.01-.25-1.46-.42-.47-.18-.92-.39-1.35-.65-.43-.25-.83-.55-1.21-.87-.38-.33-.72-.69-1.03-1.07-.31-.39-.59-.81-.83-1.26-.13-.26-.25-.52-.35-.79-.84-2.15-.47-4.77.49-6.86.79-1.74,1.91-3.06,3.57-4,1.78-1.01,4.34-1.41,6.39-1.44,2.74-.02,4.88.34,7.57.84,2.66.5,5.38,1.03,8.02,1.66,1.75.41,2.74,1.15,2.75,3.01,0,.19-.02.39-.05.59-.1.82-.24,1.64-.39,2.46-.21,1.26-.45,2.51-.69,3.76-.29,1.54-.59,3.08-.89,4.62Z" fill="#54b948"/>
    <path d="M750.06,462.18c-.31.08-.61.17-.86.28.27-.15.55-.24.86-.28Z" fill="#54b948"/>
    <path d="M820.18,475.77c-7.8-2.58-15.95-1.04-18.25,9.68-2.29,10.73,5.05,13.11,6.75,13.65,1.71.53,7.64,2.04,10.62-5.54l.95.33c.06.03-1.33,3.12-1.45,3.36-.66,1.31-1.48,2.57-2.62,3.51-1.25,1.02-2.81,1.6-4.41,1.77-1.46.15-2.95,0-4.38-.34-.72-.18-1.43-.4-2.12-.68-.67-.27-1.32-.59-2.03-.75-1.24-.29-2.26.2-2.68,1.42-.84,2.41-2.05,6.75,1.12,7.95,2.59.99,8.77,2.4,12.8,1.51,4.03-.88,10.92-4,13.48-14.83,2.57-10.82.03-18.47-7.77-21.04ZM815.43,492.83c.21-.05.41-.1.61-.18-.19.08-.4.15-.61.18Z" fill="#54b948"/>
    <path d="M672.11,394.44c-1.17.56-2.23.19-2.9-.89-.39-.62-.62-1.3-.91-1.97-.29-.68-.63-1.35-1.02-1.98-.77-1.25-1.71-2.41-2.85-3.33-1.25-1.01-2.77-1.7-4.37-1.86-1.47-.15-2.94.16-4.33.62-.26.08-3.38,1.26-3.4,1.35l.44.9c7.46-3.27,10.59,2,11.41,3.58.83,1.59,4.33,8.46-4.87,14.42-9.21,5.96-16.05,1.29-19.75-6.05-3.7-7.34-.09-14.54,9.38-20.38,9.46-5.84,16.54-3.16,20.02-.94,3.48,2.22,6.85,7.59,7.98,10.11,1.39,3.09-2.54,5.31-4.83,6.42Z" fill="#54b948"/>
    <path d="M681.75,423.28c-1.11-.25-2.01-.71-2.85-1.46-.42-.37-1.21-1.37-1.52-1.83l-.04-.05-1.18.82c.06.1.54.89.74,1.33.21.45.37.92.5,1.41.13.48.21.98.24,1.48s.03.99-.03,1.49c-.05.5-.15.99-.3,1.47-.09.27-.19.54-.31.8-.92,2.11-3.03,3.7-5.19,4.5-1.78.67-3.51.82-5.36.31-1.97-.55-4.06-2.07-5.54-3.51-1.95-1.92-3.21-3.69-4.76-5.95-1.53-2.24-3.08-4.53-4.5-6.84-.94-1.53-1.12-2.76.18-4.07.14-.14.3-.26.45-.39.65-.51,1.33-.99,2.01-1.46,1.05-.74,2.1-1.46,3.15-2.18,1.3-.89,2.6-1.77,3.9-2.64,1.42-.96,2.85-1.92,4.27-2.86,1.42-.95,2.83-1.89,4.26-2.83,1.28-.85,2.58-1.71,3.85-2.55,1.47-.99,2.96-1.96,4.43-2.92.65-.42,1.35-.85,2.12-.77.2.02.39.07.58.14.31.11.61.3.87.51,1.2.98,2.05,2.47,2.92,3.73.93,1.34,1.83,2.7,2.71,4.08,2.3,3.61,4.85,7.76,4.54,12.22-.32,4.64-5.32,9.12-10.13,8.04Z" fill="#54b948"/>
    <g>
      <path d="M1225.16,558.01c-.03-.15-.06-.3-.1-.44-.08-.25-.17-.49-.29-.73-.12-.23-.26-.45-.42-.65-.16-.21-.34-.4-.54-.57-.19-.17-.4-.33-.63-.47-.21-.13-.65-.34-.71-.36l.28-.7h.03c.27.12.9.33,1.19.36.59.08,1.11.02,1.67-.2,2.4-.93,3.27-4.34,2.06-6.45-1.16-2.03-3.49-3.08-5.54-3.98-.78-.34-1.57-.67-2.37-.98-.75-.29-1.55-.7-2.36-.77-.17-.01-.35,0-.52.03-.1.02-.2.06-.29.11-.36.19-.54.58-.7.96-.35.84-.72,1.7-1.07,2.56-.31.74-.62,1.49-.93,2.23-.34.82-.68,1.64-1.02,2.47-.34.83-.68,1.66-1.02,2.49-.31.76-.62,1.53-.92,2.29-.25.62-.49,1.24-.73,1.86-.16.4-.31.81-.45,1.22-.03.1-.06.2-.08.3-.18.95.26,1.44,1.11,1.82,1.29.59,2.64,1.13,3.95,1.66,1.33.53,2.4.93,3.8,1.19,1.06.19,2.41.24,3.43-.09.95-.31,1.65-.88,2.23-1.7.7-.98,1.15-2.29.94-3.47ZM1219.68,557.82l.25-.62c-.02.1-.05.21-.09.32s-.1.21-.16.3Z" fill="#54b948"/>
      <path d="M1210.64,552.99c-2.26,5.28-6.6,5.24-10.35,3.13-3.74-2.11-4.27-6.29-1.87-11.59,2.41-5.3,6.26-6.2,8.42-6.25,2.16-.05,5.19,1.3,6.42,2.07,1.5.93.44,3.05-.23,4.2-.34.58-.91.73-1.52.46-.35-.15-.65-.38-.97-.59-.32-.21-.67-.4-1.02-.56-.7-.32-1.45-.55-2.21-.62-.84-.07-1.7.07-2.44.47-.68.37-1.23.93-1.7,1.54-.09.11-1.12,1.56-1.08,1.58l.45.26c2.29-3.6,5.18-2.22,6.01-1.78.82.45,4.35,2.41,2.09,7.69Z" fill="#54b948"/>
      <path d="M1273.85,565.25c-.09.03-.17.07-.24.13.06-.06.15-.1.24-.13Z" fill="#54b948"/>
      <path d="M1299.99,560.23c-.09.15-.21.28-.35.39-.62.52-1.48.8-2.21,1.12-.78.34-1.57.67-2.37.98-2.08.81-4.48,1.71-6.73,1.1-2.35-.63-4.15-3.65-3.11-6.01.24-.54.57-.96,1.04-1.32.23-.18.82-.48,1.09-.6l.03-.02-.3-.69c-.06.02-.51.19-.76.24-.25.06-.51.1-.77.11-.26.02-.52,0-.78-.03-.26-.03-.51-.09-.76-.17-.25-.08-.49-.18-.73-.3-.13-.07-.26-.15-.38-.24-.99-.69-1.59-1.93-1.79-3.12-.16-.98-.06-1.88.38-2.78.48-.96,1.47-1.88,2.36-2.49,1.18-.81,2.22-1.28,3.53-1.84,1.31-.56,2.64-1.12,3.97-1.62.88-.33,1.53-.3,2.07.5.06.09.1.18.15.27.19.39.37.78.55,1.18.27.61.54,1.22.8,1.83.32.76.64,1.51.96,2.27.35.82.69,1.65,1.04,2.48.34.82.68,1.64,1.02,2.47.31.75.62,1.49.92,2.24.36.85.71,1.71,1.06,2.56.15.38.3.78.18,1.17-.03.1-.07.19-.13.28Z" fill="#54b948"/>
      <path d="M1311.34,545.46c-2.04-5.45-5.37-8.03-9.52-6.87-4.14,1.16-7.23,4.2-5.1,9.53,2.13,5.33,6.02,4.22,6.91,3.96.9-.27,3.92-1.34,2.99-5.5l.5-.13s.34,1.74.35,1.88c.09.76.11,1.54-.12,2.29-.24.8-.76,1.51-1.4,2.05-.59.49-1.28.86-2,1.13-.36.14-.74.25-1.12.32-.37.08-.74.13-1.1.27-.62.24-.92.75-.75,1.4.34,1.29,1.08,3.53,2.81,3.13,1.41-.33,4.51-1.52,6-3.08,1.49-1.56,3.58-4.92,1.54-10.37ZM1303.92,547.76c.05-.02.11-.04.16-.06.36-.15.68-.38.94-.69-.21.42-.64.69-1.1.75Z" fill="#54b948"/>
      <path d="M1278.39,535.98c-.9,2.05-1.96,4.37-3.98,5.54-2.11,1.22-5.51.35-6.45-2.05-.22-.55-.28-1.08-.19-1.67.04-.29.24-.92.35-1.19v-.03s-.68-.28-.68-.28c-.03.06-.23.49-.36.71-.13.23-.29.43-.47.63-.17.19-.36.37-.57.53-.2.16-.42.3-.65.42-.23.12-.48.22-.73.3-.14.04-.29.08-.44.1-1.19.21-2.5-.24-3.47-.94-.81-.58-1.38-1.29-1.7-2.23-.34-1.02-.29-2.37-.09-3.43.26-1.41.67-2.47,1.2-3.8.52-1.32,1.07-2.66,1.65-3.95.39-.86.87-1.29,1.82-1.11.1.02.2.05.3.08.41.13.82.29,1.22.45.62.24,1.24.49,1.87.73.76.3,1.52.61,2.29.92.83.34,1.66.68,2.49,1.02.82.34,1.65.68,2.47,1.02.74.31,1.49.62,2.23.93.86.35,1.72.72,2.56,1.07.38.16.76.34.96.69.05.09.09.19.11.29.04.17.05.35.03.52-.07.81-.47,1.61-.77,2.36-.31.8-.64,1.59-.98,2.37Z" fill="#54b948"/>
      <path d="M1283.52,575.33c.27-1.58.19-3.26-.47-4.72-.51-1.13-1.34-2.09-2.31-2.85.85-.63,1.55-1.44,1.96-2.47.73-1.81.61-3.83.15-5.69-.52-2.1-1.42-4.24-2.68-6-.93-1.3-2.17-2.43-3.67-3-1.2-.46-2.52-.54-3.79-.36-.05,0-.09.01-.13.02.12-1.19.02-2.36-.43-3.41-.76-1.79-2.28-3.13-3.92-4.12-1.85-1.11-4-1.99-6.14-2.34-1.58-.27-3.26-.19-4.72.47-.99.45-1.85,1.14-2.55,1.96-.8-1.07-1.79-1.96-2.96-2.43-1.81-.73-3.83-.61-5.69-.15-2.1.53-4.23,1.43-6,2.68-1.31.93-2.44,2.17-3.01,3.68-.37.98-.5,2.04-.43,3.09-1.4-.24-2.82-.19-4.07.34-1.8.77-3.14,2.28-4.12,3.92-1.12,1.85-1.99,4-2.35,6.14-.26,1.59-.19,3.26.47,4.72.51,1.14,1.35,2.1,2.34,2.87-.89.64-1.62,1.47-2.05,2.53-.73,1.81-.61,3.83-.15,5.69.52,2.1,1.43,4.23,2.68,6,.93,1.31,2.17,2.44,3.67,3.01,1.2.45,2.52.54,3.79.36.07-.01.14-.02.21-.04-.13,1.2-.03,2.39.42,3.45.76,1.8,2.28,3.14,3.92,4.12,1.85,1.12,4,1.99,6.14,2.35,1.58.27,3.26.19,4.72-.47.98-.44,1.82-1.12,2.52-1.93.79,1.04,1.77,1.91,2.92,2.38,1.81.73,3.83.61,5.69.14,2.1-.52,4.23-1.43,6-2.68,1.31-.93,2.44-2.17,3.01-3.68.38-1.01.5-2.1.42-3.18,1.42.25,2.87.21,4.13-.33,1.8-.77,3.13-2.28,4.12-3.92,1.12-1.85,1.99-4,2.34-6.14ZM1275.53,579.18c-.66.68-1.52,1.14-2.49,1.14-1.3,0-2.48-.74-3.47-1.5-.19-.14-.38-.29-.6-.38-.55-.23-.91.12-1.15.58-.47.89-1.06,2-1.02,3.03,0,.1.02.19.04.28-.04.07-.05.13-.03.19.25.96.42.68.61,1.66.49,2.5-1.49,3.95-3.54,4.82-.87.36-1.8.63-2.75.65-.95.01-1.88-.27-2.57-.95-.42-.43-.72-.95-.93-1.51.06-.24.12-.49.16-.74.1-.52.08-.99-.33-1.38-.31-.3-.73-.48-1.12-.65-.51-.23-.87-.36-1.43-.56-.33-.12-.75-.26-1.09-.16-.54.16-.65.77-.73,1.25-.15.98-.42,1.96-.98,2.79-1.42,2.11-3.85,1.74-5.91.9-.87-.35-1.72-.82-2.4-1.48-.68-.66-1.14-1.52-1.14-2.49,0-1.29.74-2.48,1.5-3.47.14-.19.29-.38.38-.6.23-.56-.12-.91-.59-1.15-.89-.47-2-1.06-3.03-1.02-.52.02-.92.28-1.25.63-.08.09-.16.18-.23.27-.48.18-.9.36-1.55.48-2.5.49-3.95-1.49-4.81-3.54-.37-.87-.64-1.8-.65-2.75-.01-.95.27-1.88.95-2.56.92-.92,2.2-.34,2.68-.84.01-.01.03-.03.04-.06.06-.04.12-.1.18-.15.3-.31.48-.73.65-1.12.23-.51.36-.87.56-1.42.12-.34.26-.75.16-1.09-.15-.54-.76-.65-1.24-.73-.98-.15-1.97-.42-2.79-.98-2.11-1.42-1.74-3.84-.9-5.91.36-.87.82-1.72,1.48-2.4.66-.68,1.52-1.14,2.49-1.14,1.29,0,2.48.74,3.47,1.5.19.14.37.29.59.38.56.23.91-.12,1.15-.58.46-.89,1.06-2,1.02-3.03,0-.12-.02-.24-.05-.35,0,0,0,0,0-.01,0,0,0,0,0-.01-.25-.96-.42-.69-.61-1.66-.48-2.5,1.49-3.95,3.54-4.82.87-.36,1.8-.63,2.75-.65.95-.02,1.88.27,2.57.95.45.46.76,1.02.98,1.62-.05.21-.1.43-.14.65-.09.52-.07.99.33,1.38.31.3.73.48,1.13.65.51.22.87.36,1.42.55.33.12.75.26,1.09.16.54-.15.65-.76.73-1.24.15-.98.42-1.97.98-2.79,1.42-2.11,3.84-1.74,5.91-.9.87.35,1.72.82,2.4,1.48.68.66,1.14,1.52,1.14,2.49,0,1.3-.74,2.48-1.5,3.47-.14.19-.29.38-.38.6-.23.55.12.9.58,1.15.89.47,2,1.06,3.03,1.02.52-.02.92-.28,1.25-.63.1-.11.19-.23.28-.35.43-.16.83-.32,1.42-.43,2.5-.48,3.95,1.49,4.81,3.55.36.87.63,1.8.65,2.75.01.95-.27,1.88-.95,2.56-.56.56-1.26.56-1.83.59,0,0-.02,0-.03,0-.17.01-.33.03-.47.06-.02,0-.04.01-.07.02-.09.03-.17.07-.24.13-.02,0-.02.02-.04.03h0c-.05.04-.11.08-.15.13-.3.31-.48.73-.65,1.12-.22.51-.36.87-.55,1.42-.12.34-.26.75-.16,1.09.15.54.76.65,1.24.73.98.15,1.97.42,2.79.98,2.11,1.42,1.74,3.84.9,5.91-.36.87-.82,1.72-1.48,2.4Z" fill="#54b948"/>
      <path d="M1281.87,527.09c-.94,1.51-3.05.45-4.2-.23-.58-.34-.73-.91-.46-1.52.16-.35.39-.65.59-.96.21-.33.4-.67.56-1.02.32-.7.55-1.45.62-2.21.07-.84-.07-1.7-.46-2.44-.37-.68-.93-1.23-1.54-1.7-.11-.09-1.56-1.12-1.58-1.08l-.26.45c3.59,2.29,2.22,5.19,1.77,6.01-.44.82-2.41,4.35-7.69,2.09-5.27-2.26-5.24-6.6-3.13-10.35,2.11-3.75,6.29-4.28,11.59-1.87,5.3,2.41,6.2,6.26,6.25,8.42.05,2.16-1.3,5.19-2.07,6.42Z" fill="#54b948"/>
      <path d="M1280.06,605.38c-.09.06-.18.11-.27.15-.39.2-.78.37-1.18.55-.61.27-1.22.54-1.84.8-.75.32-1.51.64-2.27.96-.83.35-1.65.7-2.48,1.04-.82.34-1.64.68-2.47,1.02-.74.31-1.49.62-2.23.92-.85.36-1.72.71-2.57,1.05-.38.16-.78.3-1.17.19-.1-.03-.19-.07-.28-.13-.15-.09-.28-.21-.39-.35-.52-.62-.8-1.47-1.12-2.21-.34-.78-.67-1.57-.98-2.36-.81-2.09-1.71-4.48-1.1-6.74.63-2.35,3.65-4.14,6.01-3.11.54.24.96.57,1.32,1.04.17.23.48.82.6,1.09v.03s.7-.3.7-.3c-.02-.06-.19-.51-.25-.76-.06-.25-.1-.51-.11-.78-.02-.26,0-.52.02-.78s.09-.51.17-.76c.08-.25.18-.5.3-.73.07-.13.15-.26.24-.38.69-.99,1.94-1.6,3.12-1.79.98-.16,1.88-.06,2.78.38.96.48,1.88,1.47,2.49,2.36.81,1.18,1.28,2.22,1.84,3.53.56,1.3,1.12,2.64,1.62,3.97.33.88.3,1.53-.5,2.07Z" fill="#54b948"/>
      <path d="M1278.08,623.29c-5.45,2.05-8.81-.04-10.37-1.53-1.56-1.49-2.75-4.59-3.08-6-.4-1.72,1.84-2.47,3.13-2.81.65-.17,1.16.13,1.4.75.14.35.19.73.27,1.1.08.38.19.76.32,1.12.27.72.63,1.41,1.13,2,.54.64,1.25,1.15,2.05,1.4.74.22,1.53.21,2.29.12.14-.02,1.86-.31,1.88-.35l-.13-.51c-4.16.93-5.24-2.09-5.5-2.99-.27-.9-1.37-4.78,3.96-6.91,5.33-2.13,8.37.96,9.53,5.1,1.16,4.14-1.42,7.47-6.87,9.52Z" fill="#54b948"/>
      <path d="M1228.5,586.63c-.48.96-1.47,1.88-2.36,2.49-1.18.81-2.22,1.28-3.53,1.85-1.31.56-2.64,1.12-3.96,1.62-.88.33-1.53.3-2.07-.5-.06-.08-.11-.18-.15-.27-.2-.39-.37-.78-.55-1.18-.27-.61-.54-1.22-.8-1.84-.32-.76-.65-1.51-.96-2.27-.35-.83-.7-1.65-1.04-2.48-.34-.83-.68-1.65-1.02-2.47-.31-.75-.61-1.49-.92-2.24-.36-.85-.71-1.72-1.06-2.56-.15-.38-.29-.78-.18-1.17.03-.1.08-.2.13-.29.09-.14.21-.28.35-.39.62-.52,1.48-.8,2.21-1.12.78-.34,1.57-.67,2.37-.98,2.08-.81,4.48-1.71,6.73-1.1,2.35.63,4.15,3.65,3.11,6.01-.24.55-.57.96-1.04,1.32-.23.18-.82.48-1.09.59h-.03s.3.7.3.7c.06-.02.51-.19.76-.25.25-.06.51-.1.77-.11.26-.01.52,0,.78.03.26.03.51.09.76.16.25.08.49.18.72.31.13.07.26.15.38.24.99.69,1.59,1.93,1.79,3.12.16.99.07,1.89-.38,2.78Z" fill="#54b948"/>
      <path d="M1208.17,596.98c-4.14,1.16-7.47-1.43-9.52-6.87-2.04-5.45.04-8.81,1.54-10.37,1.49-1.56,4.59-2.75,6-3.08,1.73-.4,2.47,1.84,2.81,3.13.17.65-.13,1.16-.75,1.4-.36.14-.73.19-1.1.26-.38.08-.76.19-1.12.32-.72.27-1.41.63-2,1.13-.64.54-1.15,1.25-1.4,2.05-.23.74-.21,1.53-.12,2.29.01.14.31,1.86.35,1.88l.51-.13c-.92-4.16,2.09-5.24,2.99-5.5.9-.27,4.78-1.37,6.91,3.96,2.13,5.33-.96,8.37-5.1,9.53Z" fill="#54b948"/>
      <path d="M1249.63,606.7c-.53,1.32-1.07,2.66-1.66,3.95-.39.85-.87,1.29-1.82,1.11-.1-.02-.2-.05-.3-.08-.41-.13-.82-.29-1.22-.45-.62-.24-1.24-.49-1.87-.73-.76-.3-1.52-.61-2.29-.92-.83-.34-1.66-.68-2.49-1.02-.82-.34-1.65-.68-2.47-1.02-.75-.31-1.49-.62-2.23-.93-.86-.35-1.72-.71-2.56-1.07-.37-.16-.76-.34-.95-.7-.05-.09-.08-.19-.11-.29-.04-.17-.05-.35-.03-.52.07-.81.47-1.61.76-2.36.31-.8.64-1.58.98-2.37.9-2.05,1.96-4.38,3.98-5.54,2.11-1.22,5.51-.35,6.45,2.05.21.55.28,1.08.2,1.67-.04.29-.24.92-.35,1.19v.03s.68.28.68.28c.02-.06.23-.5.36-.71.14-.22.29-.43.47-.63.17-.2.36-.37.57-.54.2-.16.42-.3.65-.42.23-.12.47-.22.73-.29.14-.04.29-.08.44-.1,1.18-.21,2.49.24,3.47.94.81.58,1.38,1.29,1.69,2.24.34,1.02.29,2.37.09,3.43-.26,1.41-.67,2.47-1.19,3.8Z" fill="#54b948"/>
      <path d="M1243.67,621.15c-2.11,3.74-6.29,4.27-11.59,1.87-5.3-2.41-6.2-6.26-6.25-8.42-.05-2.15,1.3-5.19,2.06-6.42.94-1.51,3.05-.45,4.2.23.58.34.73.91.46,1.52-.15.34-.38.65-.59.97-.21.32-.4.67-.56,1.02-.32.7-.55,1.45-.62,2.21-.07.84.07,1.7.47,2.44.36.68.93,1.23,1.53,1.7.11.09,1.56,1.11,1.58,1.08,0,0,.27-.46.27-.46-3.6-2.29-2.22-5.18-1.78-6.01.45-.82,2.41-4.35,7.69-2.09,5.28,2.26,5.24,6.6,3.13,10.35Z" fill="#54b948"/>
      <path d="M1297.99,582.65c-.34.83-.68,1.66-1.02,2.49-.34.82-.68,1.65-1.02,2.47-.31.75-.62,1.49-.93,2.24-.35.86-.72,1.72-1.07,2.56-.16.38-.34.76-.7.96-.09.05-.19.08-.29.11-.17.04-.35.05-.52.03-.81-.07-1.61-.47-2.36-.77-.8-.31-1.59-.64-2.37-.98-2.05-.9-4.37-1.95-5.54-3.98-1.22-2.11-.35-5.51,2.05-6.45.55-.21,1.08-.28,1.67-.19.29.04.92.24,1.19.35h.03s.28-.68.28-.68c-.06-.02-.49-.23-.71-.36-.22-.14-.43-.29-.63-.47-.19-.17-.37-.36-.53-.57-.16-.21-.3-.43-.42-.65-.12-.23-.22-.48-.3-.73-.04-.14-.08-.29-.1-.44-.21-1.19.24-2.5.94-3.47.58-.81,1.29-1.38,2.23-1.7,1.02-.34,2.37-.29,3.43-.09,1.41.26,2.47.67,3.8,1.2,1.32.53,2.66,1.07,3.95,1.66.86.39,1.29.87,1.11,1.82-.02.1-.05.2-.08.3-.13.41-.29.82-.45,1.22-.24.62-.48,1.24-.73,1.86-.3.76-.61,1.52-.92,2.29Z" fill="#54b948"/>
      <path d="M1274.95,565.41c-.17.01-.33.03-.47.06.15-.05.31-.07.47-.06Z" fill="#54b948"/>
      <path d="M1309.57,579.46c-3.74-2.11-8.08-2.14-10.35,3.13-2.26,5.28,1.27,7.24,2.09,7.69.82.45,3.72,1.82,6.01-1.78l.45.26s-1,1.47-1.08,1.58c-.47.61-1.02,1.17-1.7,1.54-.74.4-1.61.54-2.44.47-.77-.07-1.51-.29-2.21-.62-.35-.16-.69-.35-1.02-.56-.32-.2-.62-.43-.97-.59-.61-.27-1.18-.12-1.52.46-.68,1.15-1.73,3.26-.23,4.2,1.23.77,4.26,2.12,6.42,2.07,2.16-.05,6.01-.95,8.42-6.25,2.41-5.3,1.88-9.48-1.87-11.59ZM1305.42,587.74c.11,0,.22-.01.33-.03-.11.02-.22.04-.33.03Z" fill="#54b948"/>
      <path d="M1241.75,522.77c-.65.17-1.16-.13-1.4-.75-.14-.36-.19-.73-.27-1.1-.08-.38-.19-.76-.32-1.12-.27-.72-.63-1.41-1.13-2-.54-.64-1.25-1.15-2.05-1.4-.74-.22-1.53-.21-2.29-.12-.14.01-1.86.31-1.88.35l.13.51c4.16-.92,5.24,2.09,5.5,2.99.27.9,1.37,4.78-3.96,6.91-5.33,2.13-8.37-.96-9.53-5.1-1.16-4.14,1.42-7.47,6.87-9.52,5.45-2.04,8.81.04,10.37,1.54,1.56,1.49,2.75,4.59,3.08,6,.4,1.73-1.84,2.47-3.13,2.81Z" fill="#54b948"/>
      <path d="M1243.79,538.55c-.54-.24-.96-.57-1.32-1.04-.18-.23-.48-.82-.59-1.09l-.02-.03-.69.3c.02.05.19.51.24.76.06.25.1.51.11.77.02.26,0,.52-.03.78s-.09.51-.17.76c-.08.25-.18.49-.3.73-.07.13-.15.26-.24.38-.69.99-1.93,1.59-3.12,1.79-.98.16-1.89.07-2.78-.38-.96-.48-1.88-1.47-2.49-2.36-.81-1.18-1.28-2.22-1.84-3.53-.56-1.31-1.12-2.64-1.62-3.97-.33-.88-.3-1.53.5-2.07.09-.06.18-.11.27-.15.39-.2.78-.37,1.18-.55.61-.27,1.22-.54,1.84-.8.76-.32,1.51-.64,2.27-.96.83-.35,1.65-.7,2.48-1.04.82-.34,1.64-.68,2.47-1.02.74-.31,1.49-.62,2.23-.92.86-.36,1.72-.71,2.57-1.06.38-.15.78-.3,1.17-.18.1.03.19.07.28.13.15.09.28.22.39.35.52.62.8,1.48,1.12,2.21.34.78.67,1.57.98,2.37.81,2.08,1.71,4.48,1.1,6.73-.63,2.35-3.65,4.15-6.01,3.11Z" fill="#54b948"/>
    </g>
    <path d="M307.53,545.04c.11-.16.2-.31.29-.48.15-.29.27-.58.37-.89.09-.31.16-.62.19-.94.03-.32.04-.64.02-.96-.02-.32-.07-.64-.15-.95-.08-.3-.28-.86-.31-.93l.85-.38.02.04c.14.33.53,1.06.75,1.34.45.58.97.97,1.64,1.27,2.92,1.25,6.62-1,7.37-3.9.72-2.79-.41-5.72-1.44-8.28-.39-.98-.8-1.95-1.23-2.91-.41-.91-.77-1.95-1.42-2.71-.14-.16-.3-.31-.49-.42-.11-.06-.23-.12-.35-.16-.48-.13-.98.04-1.44.24-1.04.44-2.1.88-3.15,1.33-.92.39-1.83.78-2.75,1.16-1.01.43-2.02.86-3.03,1.29-1.02.43-2.03.87-3.04,1.31-.93.4-1.86.81-2.79,1.22-.75.33-1.5.67-2.25,1.01-.49.22-.97.45-1.45.69-.11.06-.23.12-.33.19-.98.68-1.01,1.49-.6,2.56.63,1.63,1.34,3.27,2.05,4.87.71,1.61,1.3,2.89,2.32,4.33.77,1.08,1.91,2.3,3.1,2.88,1.11.54,2.22.65,3.43.43,1.46-.25,2.99-1.02,3.83-2.25ZM302.86,540.15l.76-.33c-.1.08-.23.15-.36.2s-.27.1-.4.12Z" fill="#54b948"/>
    <path d="M299.07,528.1c-6.54,2.7-10.33-1.08-11.81-6.17-1.48-5.09,1.66-9.23,8.35-11.82,6.69-2.59,10.87-.06,12.81,1.76,1.94,1.82,3.45,5.62,3.87,7.36.52,2.12-2.24,3.07-3.82,3.5-.8.22-1.43-.15-1.73-.91-.17-.44-.24-.9-.34-1.36-.1-.47-.24-.93-.41-1.38-.34-.88-.8-1.73-1.42-2.45-.68-.79-1.56-1.41-2.55-1.7-.92-.27-1.88-.24-2.82-.11-.17.02-2.33.41-2.32.46l.17.62c5.12-1.19,6.48,2.51,6.82,3.62.34,1.11,1.75,5.87-4.79,8.57Z" fill="#54b948"/>
    <path d="M371.5,611.55c-.21.05-.43.07-.64.05-1-.08-1.99-.57-2.92-.92-.99-.37-1.96-.77-2.93-1.18-2.54-1.08-5.42-2.36-6.88-4.84-1.52-2.59-.5-6.79,2.45-7.97.68-.27,1.33-.36,2.05-.26.36.04,1.14.28,1.47.42h.04s.33-.85.33-.85c-.07-.03-.61-.28-.88-.44-.28-.16-.54-.35-.78-.57-.24-.21-.47-.45-.67-.7-.2-.25-.38-.52-.53-.8-.16-.29-.28-.58-.38-.89-.05-.18-.1-.35-.13-.54-.28-1.46.26-3.08,1.12-4.29.7-1.01,1.57-1.72,2.73-2.12,1.26-.43,2.92-.39,4.23-.16,1.73.31,3.06.79,4.7,1.43,1.63.63,3.29,1.29,4.89,1.99,1.06.47,1.6,1.06,1.39,2.23-.02.13-.07.25-.1.37-.16.51-.35,1.01-.54,1.51-.28.77-.58,1.54-.87,2.31-.37.95-.74,1.89-1.11,2.83-.41,1.03-.82,2.05-1.23,3.08-.41,1.02-.82,2.04-1.23,3.06-.37.93-.75,1.85-1.12,2.77-.42,1.06-.85,2.12-1.28,3.17-.19.46-.41.94-.85,1.19-.11.06-.23.11-.36.14Z" fill="#54b948"/>
    <path d="M394.25,608.34c2.9-6.57,2.19-11.71-2.45-14.27-4.64-2.55-9.99-2.54-12.71,3.99-2.72,6.53,1.66,8.91,2.67,9.45,1.02.54,4.61,2.2,7.38-2.26l.56.32c.02.05-1.21,1.82-1.31,1.96-.57.75-1.24,1.45-2.07,1.91-.91.5-1.97.68-3,.6-.94-.07-1.87-.35-2.74-.73-.44-.2-.86-.42-1.27-.68-.4-.25-.77-.53-1.2-.71-.75-.33-1.45-.14-1.87.59-.81,1.42-2.09,4.04-.23,5.18,1.53.93,5.28,2.55,7.94,2.46,2.66-.09,7.4-1.25,10.3-7.81ZM385.72,603.96c.07.03.13.06.2.08.45.18.93.25,1.42.2-.55.2-1.16.06-1.61-.29Z" fill="#54b948"/>
    <path d="M373.41,571.57c-2.56,1.03-5.49,2.16-8.28,1.44-2.91-.75-5.16-4.44-3.91-7.37.29-.67.69-1.19,1.27-1.64.28-.22,1.01-.6,1.33-.75l.04-.02-.38-.85c-.07.03-.63.23-.93.31-.31.08-.63.13-.95.15-.32.02-.64.01-.96-.02-.32-.03-.63-.1-.94-.19-.31-.09-.61-.22-.9-.37-.16-.09-.32-.18-.47-.29-1.23-.84-1.99-2.36-2.25-3.83-.21-1.21-.11-2.33.43-3.43.58-1.19,1.79-2.34,2.87-3.1,1.45-1.01,2.72-1.6,4.33-2.32,1.6-.71,3.23-1.42,4.87-2.05,1.08-.42,1.88-.38,2.56.6.07.11.13.22.19.33.25.47.47.96.69,1.44.35.75.68,1.5,1.01,2.26.41.93.81,1.85,1.22,2.78.44,1.02.88,2.03,1.31,3.05.43,1.01.86,2.02,1.29,3.03.39.91.78,1.83,1.17,2.74.45,1.05.89,2.11,1.33,3.15.2.46.38.96.24,1.44-.04.13-.09.24-.16.35-.11.18-.26.35-.42.49-.76.65-1.81,1.01-2.71,1.41-.96.43-1.93.85-2.91,1.24Z" fill="#54b948"/>
    <path d="M343.98,610.64c1.6-1.16,2.98-2.71,3.66-4.57.53-1.43.62-2.99.42-4.5,1.3.18,2.6.07,3.86-.48,2.2-.96,3.84-2.85,5.03-4.88,1.35-2.3,2.4-4.96,2.81-7.6.3-1.95.18-4.02-.65-5.81-.66-1.44-1.75-2.65-3.02-3.59-.05-.03-.09-.07-.14-.09,1.13-.94,2.06-2.06,2.57-3.37.87-2.24.7-4.72.11-7.01-.67-2.58-1.81-5.2-3.38-7.36-1.16-1.6-2.71-2.98-4.57-3.66-1.26-.46-2.61-.59-3.94-.48.22-1.63.12-3.27-.51-4.7-.96-2.2-2.85-3.84-4.88-5.03-2.3-1.35-4.96-2.39-7.6-2.81-1.96-.31-4.02-.19-5.82.64-1.17.55-2.2,1.37-3.04,2.36-1.03-1.42-2.32-2.6-3.87-3.21-2.24-.88-4.73-.7-7.01-.11-2.58.67-5.2,1.81-7.36,3.38-1.6,1.17-2.98,2.71-3.66,4.57-.53,1.44-.62,3.02-.41,4.54-1.34-.2-2.69-.11-3.99.46-2.2.96-3.84,2.85-5.03,4.88-1.35,2.3-2.4,4.96-2.81,7.6-.31,1.96-.19,4.02.64,5.82.66,1.43,1.75,2.65,3.02,3.59.07.05.14.1.21.15-1.15.94-2.09,2.08-2.6,3.4-.88,2.24-.7,4.73-.11,7.01.67,2.58,1.81,5.2,3.38,7.36,1.16,1.6,2.71,2.98,4.57,3.66,1.24.46,2.57.59,3.89.48-.2,1.6-.09,3.21.52,4.62.96,2.2,2.85,3.84,4.89,5.03,2.3,1.35,4.96,2.4,7.59,2.81,1.96.31,4.02.19,5.82-.64,1.2-.56,2.26-1.42,3.12-2.44,1.04,1.45,2.35,2.66,3.92,3.28,2.24.88,4.73.7,7.01.11,2.58-.67,5.2-1.81,7.36-3.39ZM333.62,607.13c-1.17.03-2.33-.31-3.18-1.14-1.14-1.12-1.55-2.79-1.77-4.31-.04-.29-.08-.58-.19-.85-.29-.68-.9-.68-1.52-.48-1.18.38-2.66.85-3.52,1.79-.08.09-.15.18-.21.28-.09.03-.15.07-.19.14-.61,1.06-.22.96-.89,1.99-1.73,2.62-4.72,2.19-7.27,1.18-1.08-.43-2.13-.99-2.98-1.8-.85-.81-1.43-1.86-1.44-3.05,0-.74.19-1.46.48-2.13.26-.16.52-.33.78-.51.53-.37.92-.81.9-1.5-.01-.53-.23-1.06-.43-1.54-.26-.64-.45-1.07-.77-1.72-.2-.39-.44-.87-.82-1.08-.61-.33-1.24.11-1.72.47-.98.74-2.06,1.36-3.27,1.61-3.07.63-4.88-1.79-5.98-4.31-.46-1.06-.8-2.21-.84-3.38-.03-1.17.31-2.32,1.14-3.17,1.12-1.14,2.78-1.54,4.31-1.76.29-.04.58-.08.85-.19.68-.29.68-.9.48-1.52-.38-1.18-.85-2.66-1.79-3.51-.47-.43-1.05-.55-1.65-.52-.15,0-.29.02-.43.05-.58-.26-1.1-.46-1.78-.91-2.62-1.73-2.19-4.72-1.18-7.27.42-1.08.99-2.14,1.8-2.98.81-.85,1.86-1.43,3.05-1.43,1.6-.02,2.23,1.6,3.09,1.57.02,0,.05,0,.08-.02.09.02.19.02.29.02.53-.02,1.05-.24,1.54-.43.64-.26,1.07-.45,1.72-.77.4-.19.88-.44,1.08-.82.33-.61-.11-1.24-.46-1.72-.74-.98-1.37-2.07-1.61-3.27-.63-3.07,1.78-4.89,4.3-5.98,1.07-.46,2.21-.81,3.38-.84,1.17-.03,2.33.31,3.18,1.14,1.14,1.12,1.54,2.78,1.77,4.31.04.29.08.58.19.85.29.68.9.68,1.52.48,1.18-.38,2.66-.85,3.52-1.79.1-.11.19-.23.26-.35,0,0,0,0,0-.01,0,0,0,0,.01-.01.6-1.06.22-.97.89-1.99,1.73-2.61,4.72-2.19,7.27-1.18,1.08.43,2.13.99,2.98,1.8.85.8,1.43,1.86,1.44,3.05,0,.79-.21,1.56-.54,2.27-.23.14-.46.29-.68.45-.53.38-.92.81-.9,1.5.02.53.23,1.06.43,1.55.26.64.46,1.06.78,1.72.19.39.44.88.82,1.08.61.33,1.24-.11,1.71-.47.98-.73,2.07-1.37,3.27-1.61,3.07-.63,4.89,1.78,5.98,4.3.46,1.06.81,2.21.84,3.38.03,1.17-.31,2.33-1.14,3.18-1.12,1.14-2.79,1.55-4.31,1.77-.29.04-.58.08-.85.19-.68.29-.68.9-.48,1.52.38,1.18.85,2.66,1.79,3.52.47.43,1.05.55,1.65.52.18,0,.37-.03.55-.07.52.23,1.01.44,1.63.85,2.61,1.73,2.19,4.72,1.18,7.28-.43,1.08-.99,2.13-1.8,2.98-.81.85-1.86,1.43-3.05,1.43-.98,0-1.6-.59-2.13-1.06,0,0-.01-.02-.03-.03-.16-.14-.31-.26-.46-.35-.03-.01-.05-.03-.08-.03-.1-.04-.21-.08-.32-.09-.02,0-.04,0-.06,0h0c-.08-.01-.16-.02-.25-.02-.53.02-1.06.23-1.54.43-.64.26-1.06.46-1.72.78-.4.19-.88.44-1.08.82-.33.61.11,1.24.46,1.72.74.98,1.37,2.07,1.61,3.27.63,3.07-1.78,4.89-4.3,5.98-1.07.46-2.21.81-3.38.84Z" fill="#54b948"/>
    <path d="M384.14,566.74c-2.12.52-3.07-2.24-3.5-3.82-.22-.8.14-1.43.9-1.74.44-.17.9-.24,1.35-.34.47-.11.93-.24,1.38-.42.89-.34,1.73-.8,2.45-1.42.79-.67,1.41-1.55,1.7-2.55.26-.92.24-1.88.11-2.82-.02-.17-.41-2.33-.46-2.32l-.62.17c1.19,5.12-2.52,6.48-3.62,6.82-1.1.34-5.87,1.75-8.57-4.79-2.69-6.54,1.08-10.33,6.17-11.81,5.09-1.48,9.23,1.66,11.82,8.35,2.59,6.69.06,10.86-1.76,12.81-1.82,1.94-5.62,3.45-7.36,3.87Z" fill="#54b948"/>
    <path d="M315,634.12c-.13-.02-.25-.06-.37-.1-.51-.16-1.01-.35-1.51-.53-.77-.29-1.54-.58-2.31-.88-.94-.37-1.88-.74-2.83-1.11-1.03-.4-2.06-.81-3.08-1.22-1.02-.41-2.04-.82-3.06-1.23-.92-.37-1.84-.74-2.76-1.11-1.06-.42-2.13-.86-3.17-1.29-.47-.19-.94-.41-1.19-.85-.06-.11-.11-.23-.13-.36-.05-.21-.06-.43-.05-.64.08-.99.56-1.99.92-2.92.37-.98.77-1.96,1.18-2.93,1.09-2.54,2.36-5.42,4.84-6.88,2.58-1.52,6.79-.5,7.97,2.45.27.68.35,1.33.26,2.06-.05.35-.29,1.14-.42,1.47l-.02.04.87.33c.03-.07.28-.62.44-.88.16-.28.36-.54.57-.78.21-.24.44-.47.69-.67s.52-.38.8-.53c.29-.16.59-.28.89-.38.18-.05.36-.1.54-.13,1.46-.27,3.08.26,4.3,1.12,1.01.7,1.72,1.57,2.12,2.74.43,1.25.38,2.92.16,4.22-.3,1.74-.79,3.06-1.43,4.7-.63,1.63-1.29,3.29-1.99,4.89-.47,1.06-1.05,1.6-2.23,1.39Z" fill="#54b948"/>
    <path d="M297.81,648.18c-6.56-2.9-7.73-7.64-7.81-10.3-.09-2.66,1.53-6.41,2.47-7.94,1.13-1.86,3.75-.59,5.18.23.72.41.91,1.11.58,1.87-.18.43-.46.81-.71,1.2-.26.4-.49.83-.68,1.27-.39.86-.66,1.79-.73,2.74-.08,1.03.1,2.09.6,3,.46.84,1.16,1.5,1.91,2.07.14.11,1.91,1.34,1.96,1.32l.32-.56c-4.46-2.77-2.81-6.36-2.26-7.38.54-1.02,2.92-5.39,9.45-2.68,6.53,2.72,6.55,8.07,3.99,12.71-2.55,4.64-7.7,5.36-14.26,2.45Z" fill="#54b948"/>
    <path d="M285.77,573.13c-1.25.43-2.92.39-4.22.16-1.74-.31-3.06-.79-4.7-1.42-1.63-.63-3.29-1.29-4.89-1.99-1.06-.47-1.6-1.06-1.39-2.23.02-.12.06-.25.1-.37.16-.51.35-1.01.53-1.51.29-.77.58-1.54.88-2.31.37-.95.73-1.89,1.11-2.83.41-1.03.81-2.06,1.22-3.08.41-1.02.82-2.04,1.23-3.06.38-.92.75-1.84,1.12-2.77.42-1.06.86-2.13,1.28-3.17.19-.46.42-.94.85-1.19.12-.06.24-.11.36-.14.21-.05.43-.06.64-.05,1,.08,1.99.57,2.92.92.99.37,1.96.76,2.93,1.18,2.54,1.08,5.42,2.36,6.88,4.84,1.52,2.59.51,6.79-2.45,7.97-.68.28-1.33.36-2.05.27-.36-.05-1.14-.29-1.48-.42l-.04-.02-.33.87c.07.03.61.27.88.44.28.16.54.36.78.57.24.21.46.45.66.7.2.25.38.52.53.8.15.29.27.58.37.89.06.18.1.36.13.54.27,1.46-.27,3.08-1.12,4.29-.71,1.01-1.57,1.72-2.73,2.12Z" fill="#54b948"/>
    <path d="M258.95,564.7c-4.64-2.55-5.35-7.7-2.45-14.27,2.91-6.56,7.64-7.72,10.3-7.81,2.66-.09,6.41,1.53,7.94,2.46,1.87,1.14.59,3.75-.23,5.18-.41.72-1.11.92-1.87.59-.43-.19-.8-.46-1.2-.72-.41-.26-.83-.49-1.27-.68-.86-.39-1.79-.66-2.74-.73-1.03-.08-2.1.11-3,.6-.84.46-1.5,1.16-2.08,1.92-.11.14-1.34,1.91-1.32,1.96l.56.32c2.78-4.46,6.36-2.81,7.38-2.27s5.39,2.92,2.67,9.45c-2.72,6.53-8.07,6.54-12.71,3.99Z" fill="#54b948"/>
    <path d="M287.07,609.03c-1.61.71-3.24,1.42-4.87,2.05-1.08.42-1.88.39-2.56-.6-.07-.11-.13-.22-.19-.33-.25-.47-.47-.96-.69-1.45-.35-.75-.68-1.5-1.01-2.26-.41-.93-.81-1.85-1.22-2.78-.44-1.01-.87-2.03-1.31-3.04-.43-1.01-.87-2.02-1.29-3.03-.39-.92-.78-1.83-1.16-2.75-.45-1.04-.9-2.11-1.33-3.15-.19-.46-.38-.96-.24-1.44.04-.12.09-.24.16-.35.11-.18.26-.35.42-.49.76-.65,1.81-1.01,2.71-1.42.96-.43,1.93-.84,2.91-1.23,2.56-1.03,5.5-2.17,8.28-1.44,2.91.75,5.16,4.45,3.91,7.37-.29.67-.69,1.19-1.27,1.64-.29.22-1.01.61-1.34.75l-.04.02.38.85c.07-.03.63-.24.93-.31.31-.08.63-.13.95-.15.32-.02.64-.01.96.02.32.04.63.1.94.19.31.09.61.22.89.37.16.09.32.18.48.29,1.22.84,1.99,2.36,2.25,3.83.21,1.21.1,2.32-.44,3.43-.58,1.19-1.79,2.33-2.88,3.1-1.44,1.01-2.72,1.6-4.33,2.32Z" fill="#54b948"/>
    <path d="M269.35,616.62c-5.09,1.47-9.23-1.66-11.82-8.36-2.59-6.69-.06-10.86,1.76-12.81,1.82-1.94,5.62-3.44,7.35-3.87,2.13-.52,3.07,2.24,3.51,3.82.22.8-.15,1.43-.91,1.74-.43.17-.89.24-1.35.34-.47.1-.93.24-1.38.41-.88.34-1.73.8-2.45,1.42-.79.67-1.41,1.55-1.69,2.55-.27.91-.24,1.88-.12,2.82.02.17.41,2.32.46,2.32,0,0,.63-.17.63-.17-1.19-5.12,2.51-6.48,3.62-6.82,1.1-.34,5.87-1.75,8.57,4.79,2.7,6.54-1.08,10.33-6.17,11.81Z" fill="#54b948"/>
    <path d="M350.4,629.58c-1.02.44-2.03.88-3.05,1.31-1.01.43-2.02.86-3.03,1.29-.92.39-1.83.78-2.75,1.17-1.04.45-2.11.89-3.15,1.33-.46.2-.96.38-1.44.24-.12-.04-.24-.09-.35-.16-.18-.11-.35-.26-.49-.42-.65-.76-1.01-1.81-1.41-2.71-.44-.96-.85-1.93-1.24-2.91-1.03-2.56-2.17-5.49-1.44-8.28.75-2.91,4.45-5.16,7.37-3.91.67.29,1.19.69,1.64,1.27.22.28.6,1.01.75,1.33l.02.04.85-.38c-.03-.07-.23-.63-.31-.93-.08-.31-.13-.63-.15-.95-.02-.32-.01-.64.02-.96.03-.32.1-.64.19-.94.09-.31.22-.61.37-.9.09-.16.19-.32.29-.47.84-1.23,2.36-1.99,3.83-2.25,1.21-.21,2.33-.11,3.43.43,1.19.58,2.33,1.79,3.1,2.87,1.01,1.45,1.6,2.72,2.32,4.33.7,1.6,1.41,3.24,2.05,4.87.42,1.08.39,1.88-.6,2.56-.1.07-.22.13-.33.19-.47.25-.96.47-1.45.69-.75.35-1.5.68-2.25,1.01-.93.41-1.85.81-2.78,1.22Z" fill="#54b948"/>
    <path d="M363.35,636.75c-1.48-5.09-5.27-8.86-11.81-6.17-6.54,2.7-5.13,7.47-4.79,8.57.34,1.1,1.71,4.81,6.82,3.62l.17.62s-2.14.43-2.32.46c-.94.13-1.9.15-2.82-.11-1-.29-1.88-.91-2.55-1.7-.61-.72-1.08-1.56-1.42-2.45-.17-.45-.31-.91-.41-1.38-.1-.45-.17-.91-.34-1.35-.3-.77-.93-1.13-1.73-.91-1.59.43-4.34,1.38-3.82,3.5.42,1.73,1.93,5.54,3.87,7.36,1.94,1.82,6.11,4.35,12.81,1.76,6.69-2.59,9.83-6.72,8.35-11.82ZM352.55,640.46c.1.09.2.18.32.26-.12-.07-.23-.16-.32-.26Z" fill="#54b948"/>
    <path d="M352.54,528.32c-.72-.41-.92-1.11-.59-1.87.19-.43.46-.8.71-1.2.26-.4.49-.83.68-1.27.39-.86.66-1.79.73-2.74.08-1.03-.1-2.09-.6-3-.46-.84-1.16-1.5-1.91-2.07-.14-.11-1.91-1.34-1.96-1.32l-.32.56c4.46,2.78,2.81,6.36,2.26,7.38-.54,1.02-2.92,5.39-9.45,2.68-6.53-2.72-6.54-8.07-3.99-12.71,2.55-4.64,7.7-5.36,14.27-2.45,6.56,2.9,7.72,7.64,7.81,10.3.09,2.66-1.53,6.41-2.46,7.94-1.14,1.87-3.75.59-5.18-.23Z" fill="#54b948"/>
    <path d="M340.72,543.98c-.27-.68-.36-1.33-.27-2.05.05-.36.29-1.14.42-1.48v-.04s-.85-.33-.85-.33c-.03.07-.27.61-.44.88-.16.28-.35.53-.57.78-.21.24-.45.47-.7.67-.25.2-.52.38-.8.53-.29.16-.58.28-.89.38-.18.05-.36.1-.54.13-1.46.28-3.08-.26-4.29-1.12-1.01-.7-1.72-1.57-2.12-2.73-.43-1.25-.38-2.92-.16-4.22.31-1.74.79-3.06,1.43-4.7.63-1.63,1.29-3.29,1.99-4.89.47-1.06,1.06-1.6,2.23-1.39.13.02.25.06.37.1.51.16,1.01.35,1.51.53.77.29,1.54.58,2.31.88.95.37,1.89.74,2.83,1.11,1.03.4,2.06.81,3.08,1.22,1.02.41,2.04.82,3.06,1.23.92.37,1.85.75,2.76,1.11,1.06.42,2.13.86,3.17,1.29.46.19.94.41,1.19.85.06.11.11.23.14.36.05.21.06.43.05.64-.08,1-.57,1.99-.92,2.92-.37.99-.77,1.96-1.18,2.93-1.08,2.54-2.36,5.42-4.84,6.88-2.59,1.52-6.79.5-7.97-2.45Z" fill="#54b948"/>
    <path d="M1089.43,647.42c-1.18,2.75-3.44,2.73-5.4,1.63-1.95-1.1-2.23-3.28-.97-6.05,1.26-2.76,3.27-3.24,4.39-3.26,1.13-.03,2.71.68,3.35,1.08.78.49.23,1.59-.12,2.19-.18.3-.48.38-.79.24-.18-.08-.34-.2-.51-.31-.17-.11-.35-.21-.53-.29-.36-.17-.75-.28-1.15-.32-.44-.04-.89.03-1.27.24-.36.19-.64.49-.89.8-.05.06-.58.81-.57.82l.24.14c1.19-1.88,2.7-1.16,3.13-.93.43.23,2.27,1.26,1.09,4.01Z" fill="#54b948"/>
    <path d="M1141.96,643.49c-1.07-2.84-2.8-4.19-4.97-3.59-2.16.6-3.77,2.19-2.66,4.97,1.11,2.78,3.14,2.2,3.61,2.07.47-.14,2.04-.7,1.56-2.87l.26-.07s.17.91.18.98c.05.4.05.81-.06,1.19-.13.42-.39.79-.73,1.07-.31.26-.67.45-1.04.59-.19.07-.39.13-.58.17-.19.04-.39.07-.57.14-.33.12-.48.39-.39.73.18.67.56,1.84,1.46,1.63.74-.17,2.35-.79,3.13-1.61.78-.81,1.87-2.57.8-5.41ZM1138.09,644.69s.06-.02.08-.03c.19-.08.36-.2.49-.36-.11.22-.33.36-.57.39Z" fill="#54b948"/>
    <path d="M1124.77,638.55c-.47,1.07-1.02,2.28-2.08,2.89-1.1.63-2.88.18-3.36-1.07-.11-.29-.15-.56-.1-.87.02-.15.12-.48.18-.62v-.02s-.36-.14-.36-.14c-.01.03-.12.26-.19.37-.07.12-.15.23-.24.33-.09.1-.19.19-.3.28-.11.09-.22.16-.34.22-.12.06-.25.12-.38.16-.08.02-.15.04-.23.05-.62.11-1.3-.12-1.81-.49-.42-.3-.72-.67-.88-1.17-.18-.53-.15-1.24-.05-1.79.14-.73.35-1.29.62-1.98.27-.69.56-1.39.86-2.06.2-.45.46-.67.95-.58.05.01.11.03.16.04.22.07.43.15.64.23.33.12.65.25.97.38.4.16.8.32,1.19.48.43.18.87.35,1.3.53.43.18.86.35,1.29.53.39.16.78.32,1.16.48.45.18.9.37,1.34.56.2.08.4.18.5.36.03.05.05.1.06.15.02.09.03.18.02.27-.04.42-.25.84-.4,1.23-.16.42-.33.83-.51,1.23Z" fill="#54b948"/>
    <path d="M1127.44,659.08c.14-.83.1-1.7-.25-2.46-.27-.59-.7-1.09-1.21-1.48.44-.33.81-.75,1.03-1.29.38-.94.32-2,.08-2.97-.27-1.1-.74-2.21-1.4-3.13-.49-.68-1.13-1.27-1.92-1.57-.62-.24-1.31-.28-1.98-.19-.02,0-.05,0-.07.01.06-.62.01-1.23-.22-1.78-.4-.93-1.19-1.63-2.04-2.15-.97-.58-2.09-1.04-3.2-1.22-.83-.14-1.7-.1-2.46.25-.52.23-.96.59-1.33,1.02-.42-.56-.93-1.02-1.55-1.27-.94-.38-2-.32-2.97-.08-1.09.27-2.21.75-3.13,1.4-.68.49-1.27,1.13-1.57,1.92-.19.51-.26,1.07-.22,1.61-.73-.12-1.47-.1-2.12.17-.94.4-1.64,1.19-2.15,2.04-.58.97-1.04,2.09-1.22,3.2-.14.83-.1,1.7.25,2.46.27.59.71,1.1,1.22,1.49-.46.34-.84.77-1.07,1.32-.38.94-.32,2-.08,2.97.27,1.09.74,2.21,1.4,3.13.49.68,1.13,1.27,1.92,1.57.63.24,1.31.28,1.98.19.04,0,.07-.01.11-.02-.07.63-.02,1.25.22,1.8.4.94,1.19,1.64,2.04,2.15.97.58,2.09,1.04,3.2,1.22.83.14,1.7.1,2.46-.25.51-.23.95-.58,1.32-1.01.41.54.92,1,1.52,1.24.94.38,2,.32,2.97.07,1.09-.27,2.21-.74,3.13-1.4.68-.49,1.27-1.13,1.57-1.92.2-.53.26-1.1.22-1.66.74.13,1.5.11,2.15-.17.94-.4,1.64-1.19,2.15-2.04.58-.97,1.04-2.09,1.22-3.2ZM1123.27,661.08c-.35.36-.8.59-1.3.6-.68,0-1.29-.38-1.81-.78-.1-.08-.2-.15-.31-.2-.29-.12-.47.06-.6.3-.24.46-.55,1.05-.53,1.58,0,.05,0,.1.02.14-.02.03-.03.07-.02.1.13.5.22.36.32.86.25,1.3-.78,2.06-1.85,2.51-.45.19-.94.33-1.43.34-.49,0-.98-.14-1.34-.5-.22-.22-.38-.5-.49-.79.03-.13.06-.25.09-.38.05-.27.04-.52-.17-.72-.16-.16-.38-.25-.59-.34-.27-.12-.45-.19-.74-.29-.17-.06-.39-.13-.57-.08-.28.08-.34.4-.38.65-.08.51-.22,1.02-.51,1.45-.74,1.1-2.01.91-3.08.47-.45-.18-.9-.43-1.25-.77-.36-.34-.59-.79-.59-1.3,0-.67.38-1.29.78-1.81.08-.1.15-.2.2-.31.12-.29-.06-.47-.31-.6-.46-.24-1.04-.55-1.58-.53-.27,0-.48.14-.65.33-.04.04-.08.09-.12.14-.25.09-.47.19-.81.25-1.3.25-2.06-.78-2.51-1.85-.19-.45-.33-.94-.34-1.43,0-.49.14-.98.5-1.34.48-.48,1.15-.18,1.4-.44,0,0,.01-.02.02-.03.03-.02.06-.05.09-.08.15-.16.25-.38.34-.59.12-.27.19-.45.29-.74.06-.18.14-.39.08-.57-.08-.28-.4-.34-.65-.38-.51-.08-1.03-.22-1.45-.51-1.1-.74-.91-2.01-.47-3.08.19-.46.43-.9.77-1.25.34-.36.8-.59,1.3-.6.67,0,1.29.38,1.81.78.1.08.19.15.31.2.29.12.47-.06.6-.3.24-.46.55-1.05.53-1.58,0-.07-.01-.13-.03-.18,0,0,0,0,0,0,0,0,0,0,0,0-.13-.5-.22-.36-.32-.87-.25-1.3.78-2.06,1.85-2.51.45-.19.94-.33,1.43-.34.49,0,.98.14,1.34.5.24.24.4.53.51.85-.03.11-.05.22-.07.34-.05.27-.04.52.17.72.16.15.38.25.59.34.27.12.45.19.74.29.17.06.39.14.57.08.28-.08.34-.4.38-.65.08-.51.22-1.03.51-1.45.74-1.1,2.01-.91,3.08-.47.45.18.9.43,1.25.77.36.35.59.8.6,1.3,0,.68-.38,1.29-.78,1.81-.08.1-.15.2-.2.31-.12.29.06.47.3.6.46.24,1.05.55,1.58.53.27,0,.48-.15.65-.33.05-.06.1-.12.15-.18.23-.08.44-.17.74-.23,1.3-.25,2.06.78,2.51,1.85.19.45.33.94.34,1.43,0,.49-.14.98-.5,1.34-.29.29-.66.29-.96.31,0,0,0,0-.02,0-.09,0-.17.01-.24.03-.01,0-.02,0-.03.01-.04.02-.09.04-.13.07,0,0-.01.01-.02.02h0s-.06.04-.08.07c-.15.16-.25.38-.34.59-.12.27-.19.45-.29.74-.06.18-.14.39-.08.57.08.28.4.34.65.38.51.08,1.03.22,1.45.51,1.1.74.91,2.01.47,3.08-.19.46-.43.9-.77,1.25Z" fill="#54b948"/>
    <path d="M1126.59,633.91c-.49.79-1.59.23-2.19-.12-.3-.18-.38-.47-.24-.79.08-.18.2-.34.31-.5.11-.17.21-.35.29-.53.17-.37.29-.76.32-1.16.04-.44-.04-.89-.24-1.27-.19-.35-.49-.64-.8-.89-.06-.05-.81-.58-.82-.57l-.14.24c1.88,1.19,1.16,2.71.92,3.13-.23.43-1.26,2.27-4.01,1.09-2.75-1.18-2.73-3.44-1.63-5.4,1.1-1.96,3.28-2.23,6.05-.97,2.76,1.26,3.24,3.26,3.26,4.39.03,1.13-.68,2.71-1.08,3.35Z" fill="#54b948"/>
    <path d="M1105.66,631.65c-.34.09-.61-.07-.73-.39-.07-.19-.1-.38-.14-.57-.04-.2-.1-.39-.17-.58-.14-.38-.33-.74-.59-1.04-.28-.34-.65-.6-1.07-.73-.39-.12-.8-.11-1.19-.06-.07,0-.97.16-.98.18l.07.27c2.17-.48,2.73,1.09,2.87,1.56.14.47.72,2.49-2.06,3.61-2.78,1.11-4.37-.5-4.97-2.66-.6-2.16.74-3.9,3.59-4.97,2.84-1.07,4.6.02,5.41.8.81.78,1.43,2.39,1.61,3.13.21.9-.96,1.29-1.63,1.46Z" fill="#54b948"/>
    <path d="M1106.72,639.89c-.28-.12-.5-.3-.69-.54-.09-.12-.25-.43-.31-.57v-.02s-.37.16-.37.16c.01.03.1.27.13.39.03.13.05.27.06.4,0,.14,0,.27-.01.41s-.04.27-.09.4c-.04.13-.09.26-.16.38-.04.07-.08.14-.13.2-.36.52-1.01.83-1.63.93-.51.09-.98.04-1.45-.2-.5-.25-.98-.77-1.3-1.23-.42-.62-.67-1.16-.96-1.84-.29-.68-.59-1.38-.85-2.07-.17-.46-.16-.8.26-1.08.05-.03.09-.06.14-.08.2-.1.41-.19.61-.29.32-.14.64-.28.96-.42.39-.17.79-.34,1.18-.5.43-.18.86-.36,1.29-.54.43-.18.86-.36,1.29-.53.39-.16.78-.32,1.17-.48.45-.19.9-.37,1.34-.55.2-.08.41-.16.61-.09.05.01.1.04.15.07.08.05.15.11.21.18.27.32.42.77.59,1.15.18.41.35.82.51,1.24.43,1.09.89,2.33.57,3.51-.33,1.23-1.91,2.16-3.14,1.62Z" fill="#54b948"/>
  </g>
</svg>