<?xml version="1.0" encoding="UTF-8"?>
<svg id="Layer_1" xmlns="http://www.w3.org/2000/svg" version="1.1" viewBox="0 0 1719.06 798.84">
  <!-- Generator: Adobe Illustrator 29.4.0, SVG Export Plug-In . SVG Version: 2.1.0 Build 152)  -->
  <g id="flower4">
    <path d="M1071.41,693.19c0-.06-.02-.11-.04-.17-.03-.09-.06-.19-.11-.27-.04-.09-.1-.17-.15-.25-.06-.08-.12-.15-.2-.22-.07-.07-.15-.13-.23-.18-.08-.05-.24-.13-.26-.14l.11-.26h.01c.1.05.34.13.45.14.22.03.42.01.63-.06.91-.33,1.26-1.61.81-2.41-.42-.77-1.29-1.18-2.05-1.53-.29-.13-.59-.26-.88-.39-.28-.11-.58-.27-.88-.3-.06,0-.13,0-.2,0-.04,0-.07.02-.11.04-.13.07-.21.21-.27.36-.14.31-.28.63-.42.95-.12.28-.24.55-.36.83-.13.31-.27.61-.4.92-.13.31-.27.62-.4.93-.12.28-.24.57-.36.85-.1.23-.19.46-.29.69-.06.15-.12.3-.18.46-.01.04-.03.07-.03.11-.07.36.09.54.4.69.48.23.98.44,1.47.65.49.21.89.37,1.42.47.4.08.9.11,1.29-.01.36-.11.63-.32.85-.62.27-.36.45-.85.38-1.3ZM1069.36,693.08l.1-.23s-.02.08-.04.12-.04.08-.06.11Z" fill="#54b948"/>
    <path d="M1066,691.21c-.88,1.97-2.51,1.92-3.9,1.11-1.39-.82-1.56-2.39-.62-4.36.94-1.97,2.39-2.29,3.2-2.29.81,0,1.94.52,2.4.82.56.36.15,1.15-.11,1.57-.13.22-.35.27-.57.16-.13-.06-.24-.15-.36-.23-.12-.08-.25-.15-.38-.22-.26-.13-.54-.21-.83-.25-.31-.03-.64.01-.92.16-.26.13-.47.34-.65.57-.03.04-.43.58-.42.59l.17.1c.88-1.33,1.96-.8,2.27-.63.31.17,1.62.93.73,2.9Z" fill="#54b948"/>
    <path d="M1089.64,696.23s-.06.03-.09.05c.02-.02.06-.04.09-.05Z" fill="#54b948"/>
    <path d="M1099.48,694.52c-.04.06-.08.1-.13.15-.24.19-.56.29-.84.41-.3.12-.59.24-.9.35-.79.29-1.69.61-2.53.37-.88-.25-1.53-1.4-1.13-2.28.09-.2.22-.36.4-.49.09-.07.31-.18.41-.22h.01s-.11-.27-.11-.27c-.02,0-.19.07-.29.09-.1.02-.19.03-.29.04-.1,0-.2,0-.29-.01-.1-.01-.19-.04-.28-.07-.09-.03-.18-.07-.27-.12-.05-.03-.1-.06-.14-.09-.37-.26-.59-.74-.65-1.18-.06-.37-.01-.71.16-1.04.19-.36.57-.7.9-.92.45-.29.84-.46,1.34-.67.49-.2,1-.4,1.5-.58.33-.12.58-.1.77.2.02.03.04.07.06.1.07.15.13.3.2.45.1.23.19.46.29.69.12.29.23.57.35.86.12.31.25.62.37.94.12.31.25.62.37.93.11.28.22.57.33.85.13.32.26.65.38.97.05.14.11.29.06.44-.01.04-.03.07-.05.11Z" fill="#54b948"/>
    <path d="M1103.84,689.05c-.73-2.06-1.96-3.05-3.53-2.64-1.56.41-2.74,1.53-1.98,3.54.77,2.01,2.23,1.62,2.57,1.53.34-.09,1.48-.48,1.16-2.05l.19-.05s.11.66.12.71c.03.29.03.58-.06.86-.1.3-.29.56-.54.76-.22.18-.49.32-.76.41-.14.05-.28.09-.42.11-.14.03-.28.04-.42.09-.24.09-.35.27-.29.52.12.49.38,1.33,1.03,1.19.53-.11,1.7-.54,2.27-1.12.57-.58,1.38-1.82.65-3.88ZM1101.04,689.86s.04-.01.06-.02c.14-.05.26-.14.36-.25-.08.16-.24.26-.42.27Z" fill="#54b948"/>
    <path d="M1091.54,685.27c-.35.76-.76,1.63-1.53,2.05-.8.44-2.07.1-2.41-.81-.08-.21-.1-.41-.06-.63.02-.11.1-.34.14-.44h0s-.26-.12-.26-.12c-.01.02-.09.18-.14.26-.05.08-.11.16-.18.23-.07.07-.14.14-.22.2-.08.06-.16.11-.25.15-.09.04-.18.08-.28.11-.05.02-.11.03-.16.04-.45.07-.93-.11-1.3-.38-.3-.22-.51-.49-.62-.85-.12-.38-.09-.89-.01-1.29.11-.53.27-.92.47-1.42.21-.49.42-.99.65-1.47.15-.32.34-.48.69-.4.04,0,.08.02.11.03.15.05.3.11.45.18.23.09.46.19.7.29.28.12.57.24.85.36.31.13.62.27.93.4.31.13.61.27.92.4.28.12.56.24.83.36.32.14.64.28.95.42.14.06.28.13.35.27.02.04.03.07.04.11.01.06.02.13,0,.2-.03.3-.19.6-.3.88-.12.3-.25.59-.38.88Z" fill="#54b948"/>
    <path d="M1093.2,700.08c.11-.59.09-1.22-.15-1.78-.18-.43-.49-.79-.85-1.08.32-.23.59-.53.75-.91.29-.67.25-1.43.09-2.13-.18-.79-.51-1.6-.97-2.27-.34-.5-.8-.93-1.36-1.15-.45-.18-.94-.22-1.42-.16-.02,0-.03,0-.05,0,.05-.44.02-.89-.14-1.28-.27-.68-.83-1.19-1.44-1.57-.69-.43-1.49-.77-2.29-.92-.59-.11-1.22-.09-1.78.15-.37.16-.7.42-.97.72-.29-.41-.66-.75-1.1-.93-.67-.29-1.43-.25-2.13-.09-.79.18-1.6.51-2.27.97-.5.34-.93.8-1.15,1.36-.15.37-.2.76-.18,1.16-.52-.1-1.06-.09-1.53.1-.68.28-1.19.83-1.57,1.44-.43.69-.77,1.49-.92,2.29-.11.59-.09,1.22.15,1.78.18.43.49.8.86,1.09-.34.24-.62.54-.79.94-.29.67-.25,1.43-.09,2.13.18.79.51,1.6.97,2.27.34.5.8.93,1.36,1.15.45.18.94.22,1.42.16.03,0,.05,0,.08-.01-.06.45-.03.9.14,1.3.27.68.83,1.19,1.44,1.57.69.43,1.49.77,2.29.92.59.11,1.22.09,1.78-.15.37-.16.69-.41.96-.71.29.4.65.73,1.08.91.67.29,1.43.25,2.13.09.79-.18,1.6-.51,2.27-.97.5-.34.93-.8,1.15-1.36.15-.38.2-.79.18-1.19.53.1,1.08.1,1.55-.09.68-.28,1.19-.83,1.57-1.44.43-.69.77-1.49.92-2.29ZM1090.17,701.47c-.25.25-.58.42-.94.41-.49,0-.93-.29-1.29-.59-.07-.06-.14-.11-.22-.15-.21-.09-.34.04-.44.21-.18.33-.41.74-.4,1.13,0,.04,0,.07.01.1-.01.02-.02.05-.01.07.09.36.15.26.22.63.17.94-.59,1.47-1.36,1.78-.33.13-.68.23-1.03.22-.36,0-.71-.11-.96-.37-.16-.16-.26-.36-.34-.57.03-.09.05-.18.07-.27.04-.19.04-.37-.12-.52-.11-.11-.27-.19-.42-.25-.19-.09-.32-.14-.53-.22-.12-.05-.28-.1-.41-.07-.2.06-.25.28-.28.46-.06.37-.17.73-.39,1.04-.55.78-1.46.63-2.22.3-.32-.14-.64-.32-.89-.57-.25-.25-.42-.58-.41-.94,0-.49.29-.92.58-1.29.06-.07.11-.14.15-.22.09-.21-.04-.34-.21-.44-.33-.18-.74-.41-1.13-.4-.19,0-.35.1-.47.23-.03.03-.06.07-.09.1-.18.06-.34.13-.58.17-.94.17-1.47-.59-1.78-1.36-.13-.33-.23-.68-.23-1.04,0-.36.11-.71.38-.96.35-.34.83-.11,1.01-.3,0,0,0-.01.01-.02.02-.02.05-.04.07-.06.11-.11.18-.27.25-.42.09-.19.14-.32.22-.53.05-.13.1-.28.07-.41-.05-.2-.28-.25-.46-.28-.37-.06-.74-.17-1.04-.39-.78-.55-.63-1.45-.3-2.22.14-.33.32-.64.57-.89.25-.25.58-.42.94-.41.49,0,.92.29,1.29.59.07.06.14.11.22.15.21.09.34-.04.44-.21.18-.33.41-.74.4-1.13,0-.05,0-.09-.02-.13,0,0,0,0,0,0,0,0,0,0,0,0-.09-.36-.15-.26-.22-.63-.16-.94.59-1.47,1.36-1.78.33-.13.68-.23,1.03-.22.36,0,.71.11.96.37.17.17.28.39.36.62-.02.08-.04.16-.06.24-.04.19-.03.37.12.52.11.11.27.19.42.25.19.09.32.14.53.22.12.05.28.1.41.07.2-.05.25-.28.28-.46.06-.37.17-.74.39-1.04.55-.78,1.45-.63,2.22-.3.32.14.64.32.89.57.25.25.42.58.41.94,0,.49-.29.93-.59,1.29-.06.07-.11.14-.15.22-.09.21.04.34.21.44.33.18.74.41,1.13.4.19,0,.35-.1.47-.23.04-.04.07-.08.11-.13.16-.06.32-.11.54-.15.94-.16,1.47.59,1.78,1.36.13.33.23.68.22,1.03,0,.36-.11.71-.38.96-.22.21-.48.2-.69.21,0,0,0,0-.01,0-.06,0-.12,0-.18.02,0,0-.02,0-.02,0-.03.01-.06.03-.09.05,0,0,0,0-.01.01h0s-.04.03-.06.05c-.11.11-.19.27-.25.42-.09.19-.14.32-.22.53-.05.13-.1.28-.07.41.05.2.28.25.46.28.37.06.74.17,1.04.39.78.55.63,1.45.3,2.22-.14.33-.32.64-.57.89Z" fill="#54b948"/>
    <path d="M1092.9,681.96c-.36.56-1.15.15-1.57-.11-.22-.13-.27-.35-.16-.57.06-.13.15-.24.23-.36.08-.12.15-.25.22-.38.13-.26.22-.54.25-.83.03-.31-.01-.64-.16-.92-.13-.26-.34-.47-.57-.65-.04-.03-.58-.43-.59-.42l-.1.17c1.33.88.8,1.96.63,2.27-.17.3-.93,1.62-2.9.73-1.96-.88-1.92-2.51-1.11-3.9.82-1.39,2.39-1.56,4.36-.62,1.97.94,2.29,2.39,2.29,3.2,0,.81-.52,1.94-.82,2.4Z" fill="#54b948"/>
    <path d="M1091.7,711.33s-.07.04-.1.06c-.15.07-.3.13-.45.2-.23.1-.46.19-.69.29-.29.12-.57.23-.86.35-.31.13-.63.25-.94.37-.31.12-.62.25-.93.37-.28.11-.56.22-.84.33-.32.13-.65.25-.97.38-.14.06-.29.11-.44.06-.04-.01-.07-.03-.1-.05-.06-.04-.1-.08-.15-.13-.19-.24-.29-.56-.41-.84-.12-.3-.24-.59-.35-.89-.29-.79-.61-1.69-.37-2.54.25-.88,1.4-1.53,2.28-1.13.2.09.36.22.49.4.06.09.17.31.22.41h0s.26-.1.26-.1c0-.02-.07-.19-.09-.29-.02-.1-.03-.19-.04-.29,0-.1,0-.2.01-.29s.04-.19.07-.28c.03-.09.07-.18.12-.27.03-.05.06-.1.09-.14.27-.37.74-.59,1.18-.65.37-.06.71-.01,1.04.16.36.19.7.57.92.9.3.45.46.84.67,1.34.2.49.4,1,.58,1.5.12.33.1.57-.2.77Z" fill="#54b948"/>
    <path d="M1090.84,718.04c-2.06.73-3.31-.07-3.88-.64-.58-.57-1-1.74-1.12-2.27-.14-.65.71-.91,1.19-1.03.24-.06.43.06.52.29.05.13.07.28.09.42.03.14.07.28.11.42.1.27.23.53.41.76.2.25.46.44.76.54.28.09.57.09.86.06.05,0,.7-.1.71-.12l-.05-.19c-1.57.32-1.95-.82-2.04-1.16-.09-.34-.48-1.8,1.53-2.57,2.02-.76,3.14.42,3.54,1.98.41,1.56-.58,2.8-2.64,3.53Z" fill="#54b948"/>
    <path d="M1072.47,703.95c-.19.36-.57.7-.9.92-.45.3-.84.46-1.34.67-.49.2-1,.4-1.5.58-.33.12-.58.1-.77-.2-.02-.03-.04-.07-.06-.1-.07-.15-.13-.3-.2-.45-.1-.23-.19-.46-.29-.69-.12-.29-.23-.57-.35-.86-.13-.31-.25-.63-.37-.94-.12-.31-.25-.62-.37-.93-.11-.28-.22-.56-.33-.85-.13-.32-.25-.65-.38-.97-.05-.14-.1-.3-.06-.44.01-.04.03-.07.05-.11.04-.05.08-.1.13-.14.24-.19.56-.29.84-.41.3-.12.59-.24.9-.35.79-.29,1.69-.61,2.53-.37.88.25,1.53,1.4,1.13,2.28-.09.2-.22.36-.4.49-.09.06-.31.18-.41.22h-.01s.11.27.11.27c.02,0,.19-.07.29-.09.1-.02.19-.03.29-.04.1,0,.2,0,.29.02.1.01.19.04.28.07.09.03.18.07.27.12.05.03.1.06.14.09.37.27.59.74.65,1.18.05.37.01.71-.16,1.04Z" fill="#54b948"/>
    <path d="M1064.78,707.7c-1.56.41-2.8-.58-3.53-2.64-.73-2.06.07-3.31.65-3.88.57-.58,1.74-1,2.27-1.12.65-.14.92.71,1.03,1.19.06.25-.05.44-.29.52-.13.05-.28.07-.41.09-.14.03-.28.07-.42.11-.27.1-.53.23-.76.41-.25.2-.44.46-.54.76-.09.28-.09.57-.06.86,0,.05.1.7.12.71l.19-.05c-.32-1.57.82-1.95,1.16-2.05s1.8-.48,2.57,1.53c.77,2.01-.42,3.14-1.98,3.54Z" fill="#54b948"/>
    <path d="M1080.27,711.62c-.21.49-.42.99-.65,1.47-.15.32-.33.48-.69.4-.04,0-.07-.02-.11-.03-.15-.05-.31-.11-.46-.18-.23-.09-.46-.19-.7-.29-.28-.12-.57-.24-.85-.36-.31-.13-.62-.27-.93-.4-.31-.13-.61-.27-.92-.4-.28-.12-.56-.24-.83-.36-.32-.14-.64-.28-.95-.42-.14-.06-.28-.13-.35-.27-.02-.03-.03-.07-.04-.11-.01-.06-.02-.13,0-.2.03-.3.19-.6.3-.88.12-.3.25-.59.39-.88.35-.76.76-1.63,1.53-2.05.8-.44,2.07-.1,2.41.81.08.21.1.41.06.63-.02.11-.1.35-.14.45h0s.26.12.26.12c0-.02.09-.18.14-.26.05-.08.11-.16.18-.23.07-.07.14-.14.22-.2.08-.06.16-.11.25-.15.09-.04.18-.08.27-.11.05-.02.11-.03.17-.04.45-.07.93.11,1.3.38.3.22.51.49.62.85.12.38.09.89.01,1.29-.11.53-.27.92-.47,1.42Z" fill="#54b948"/>
    <path d="M1077.94,717.01c-.82,1.39-2.39,1.56-4.36.62-1.97-.94-2.29-2.39-2.29-3.2,0-.81.52-1.94.82-2.39.36-.56,1.15-.15,1.58.11.22.13.27.35.16.57-.06.13-.15.24-.23.36-.08.12-.16.25-.22.38-.13.26-.22.54-.25.83-.03.31.01.64.16.92.13.26.34.47.56.65.04.03.58.43.59.42,0,0,.1-.17.1-.17-1.33-.88-.8-1.96-.63-2.27.17-.31.93-1.62,2.9-.73,1.97.88,1.92,2.51,1.11,3.9Z" fill="#54b948"/>
    <path d="M1098.58,702.92c-.13.31-.27.62-.4.93-.13.31-.27.61-.4.92-.12.28-.24.56-.36.83-.14.32-.28.64-.42.95-.06.14-.13.28-.27.36-.03.02-.07.03-.11.04-.06.01-.13.02-.2,0-.3-.03-.6-.19-.88-.3-.3-.12-.59-.25-.88-.38-.76-.35-1.63-.76-2.05-1.53-.44-.8-.1-2.07.81-2.41.21-.08.41-.1.63-.06.11.02.34.1.44.14h.01s.11-.25.11-.25c-.02,0-.18-.09-.26-.14-.08-.05-.16-.11-.23-.18-.07-.07-.14-.14-.2-.22-.06-.08-.11-.16-.15-.25-.04-.09-.08-.18-.11-.28-.02-.05-.03-.11-.03-.17-.07-.45.11-.93.38-1.3.22-.3.49-.51.85-.62.38-.12.89-.09,1.29-.01.53.11.92.27,1.42.47.49.21.99.42,1.47.65.32.15.48.33.4.69,0,.04-.02.07-.03.11-.05.15-.11.31-.18.46-.09.23-.19.46-.29.69-.12.28-.24.57-.36.85Z" fill="#54b948"/>
    <path d="M1090.05,696.3c-.06,0-.12,0-.18.02.06-.02.12-.02.18-.02Z" fill="#54b948"/>
    <path d="M1102.95,701.8c-1.39-.82-3.02-.86-3.9,1.11-.88,1.97.43,2.73.73,2.9.31.17,1.38.71,2.27-.63l.17.1s-.38.54-.42.59c-.18.22-.39.43-.65.57-.28.14-.61.19-.92.16-.29-.03-.57-.12-.83-.25-.13-.06-.26-.14-.38-.22-.12-.08-.23-.17-.36-.23-.23-.11-.44-.05-.57.16-.26.43-.67,1.21-.11,1.57.46.3,1.58.82,2.4.82.81,0,2.26-.32,3.2-2.29.94-1.97.77-3.54-.62-4.36ZM1101.34,704.88s.08,0,.12,0c-.04,0-.08.01-.12,0Z" fill="#54b948"/>
    <path d="M1077.87,680.07c-.25.06-.44-.05-.52-.29-.05-.14-.07-.28-.09-.42-.03-.14-.07-.28-.11-.42-.1-.27-.23-.53-.41-.76-.2-.25-.46-.44-.76-.54-.28-.09-.57-.09-.86-.06-.05,0-.7.1-.71.12l.05.19c1.57-.32,1.95.82,2.04,1.16.09.34.48,1.8-1.53,2.57-2.02.76-3.14-.42-3.54-1.98-.41-1.56.58-2.8,2.64-3.53,2.06-.73,3.31.07,3.88.65.58.57,1,1.74,1.12,2.27.14.65-.71.92-1.19,1.03Z" fill="#54b948"/>
    <path d="M1078.53,686.01c-.2-.09-.36-.22-.49-.4-.06-.09-.18-.31-.22-.41h0s-.26.1-.26.1c0,.02.07.19.09.29.02.1.03.19.04.29,0,.1,0,.2-.01.29s-.04.19-.07.28c-.03.09-.07.18-.12.27-.03.05-.06.1-.09.14-.26.37-.74.59-1.18.65-.37.06-.71.01-1.04-.16-.36-.19-.7-.57-.92-.9-.3-.45-.46-.84-.67-1.34-.2-.49-.4-1-.58-1.5-.12-.33-.1-.58.2-.77.03-.02.07-.04.1-.06.15-.07.3-.13.45-.2.23-.1.46-.19.69-.29.29-.12.57-.23.86-.35.31-.13.63-.25.94-.37.31-.12.62-.25.93-.37.28-.11.57-.22.84-.33.32-.13.65-.25.97-.38.14-.05.29-.11.44-.06.04.01.07.03.11.05.06.04.1.08.15.13.19.24.29.56.41.84.12.3.24.59.35.9.29.79.61,1.69.37,2.53-.25.88-1.4,1.53-2.28,1.13Z" fill="#54b948"/>
    <path d="M375.67,688.73c-.01-.06-.02-.12-.04-.18-.03-.1-.07-.2-.11-.3-.05-.09-.1-.18-.17-.27-.06-.08-.13-.16-.21-.23-.08-.07-.16-.14-.25-.19-.09-.05-.26-.14-.28-.15l.12-.28h.01c.11.05.36.14.48.16.24.04.45.01.68-.07.98-.36,1.35-1.73.88-2.59-.46-.83-1.39-1.27-2.21-1.65-.31-.15-.63-.28-.95-.42-.3-.12-.62-.29-.95-.33-.07,0-.14,0-.21,0-.04,0-.08.02-.12.04-.15.08-.22.23-.29.38-.15.34-.3.68-.45,1.03-.13.3-.26.6-.39.9-.14.33-.29.66-.43.99-.14.33-.29.67-.43,1-.13.31-.26.61-.39.92-.1.25-.21.5-.31.75-.07.16-.13.33-.19.49-.01.04-.03.08-.04.12-.08.38.09.58.44.74.52.25,1.06.48,1.59.7.53.22.96.39,1.53.51.43.09.97.12,1.39-.01.39-.12.68-.35.92-.67.29-.39.48-.92.41-1.4ZM373.45,688.62l.11-.25s-.02.09-.04.13-.04.08-.07.12Z" fill="#54b948"/>
    <path d="M369.83,686.6c-.95,2.12-2.71,2.07-4.21,1.19-1.5-.88-1.68-2.58-.67-4.7,1.01-2.13,2.58-2.47,3.45-2.47.87,0,2.09.56,2.58.88.6.39.16,1.24-.12,1.7-.14.23-.37.29-.62.17-.14-.07-.26-.16-.39-.25-.13-.09-.27-.17-.41-.24-.28-.14-.58-.23-.89-.26-.34-.04-.69.01-.99.17-.28.14-.5.37-.7.61-.04.04-.46.62-.45.63l.18.11c.95-1.44,2.11-.86,2.44-.68.33.19,1.74,1.01.79,3.13Z" fill="#54b948"/>
    <path d="M395.31,692.01s-.07.03-.1.05c.03-.03.06-.04.1-.05Z" fill="#54b948"/>
    <path d="M405.92,690.17c-.04.06-.09.11-.14.16-.26.21-.6.31-.9.44-.32.13-.64.26-.96.38-.85.31-1.82.66-2.73.4-.95-.27-1.65-1.51-1.21-2.45.1-.22.24-.39.43-.52.09-.07.34-.19.45-.23h.01s-.12-.29-.12-.29c-.02,0-.21.07-.31.09-.1.02-.21.04-.31.04-.11,0-.21,0-.32-.02-.1-.01-.21-.04-.31-.07-.1-.03-.2-.08-.29-.13-.05-.03-.1-.06-.15-.1-.4-.28-.63-.79-.7-1.28-.06-.4-.01-.76.17-1.12.2-.39.61-.75.97-.99.48-.32.91-.5,1.44-.72.53-.22,1.08-.44,1.62-.63.36-.13.62-.11.84.22.02.04.04.07.06.11.08.16.15.32.21.48.11.25.21.5.31.75.13.31.25.62.37.93.13.34.27.67.4,1.01.13.34.26.67.4,1.01.12.3.24.61.36.91.14.35.28.7.41,1.04.06.15.12.32.07.47-.01.04-.03.08-.05.11Z" fill="#54b948"/>
    <path d="M410.62,684.27c-.79-2.22-2.12-3.29-3.8-2.85-1.68.44-2.96,1.65-2.13,3.82.83,2.17,2.4,1.75,2.77,1.65.37-.1,1.59-.52,1.25-2.2l.2-.05s.12.71.13.76c.03.31.03.63-.06.92-.1.32-.32.61-.58.82-.24.2-.52.34-.82.44-.15.05-.3.09-.46.12-.15.03-.3.05-.45.1-.25.09-.38.3-.31.56.13.52.41,1.44,1.11,1.29.57-.12,1.83-.58,2.45-1.2.61-.62,1.48-1.97.7-4.19ZM407.6,685.15s.04-.02.07-.02c.15-.06.28-.15.38-.27-.09.17-.26.28-.45.3Z" fill="#54b948"/>
    <path d="M397.36,680.2c-.38.82-.82,1.75-1.65,2.21-.86.48-2.23.1-2.59-.88-.08-.23-.11-.44-.07-.68.02-.12.1-.37.15-.48h0s-.28-.13-.28-.13c-.01.02-.1.2-.15.28-.06.09-.12.17-.19.25-.07.08-.15.15-.23.21-.08.06-.17.12-.27.17-.09.05-.19.09-.3.12-.06.02-.12.03-.18.04-.48.08-1.01-.11-1.4-.41-.32-.24-.55-.53-.67-.92-.13-.41-.1-.96-.01-1.39.12-.57.29-1,.51-1.53.22-.53.45-1.07.7-1.59.16-.34.36-.52.74-.44.04,0,.08.02.12.04.17.06.33.12.49.19.25.1.5.21.75.31.31.13.61.26.92.39.33.14.67.29,1,.43.33.14.66.29.99.43.3.13.6.26.9.39.35.15.69.3,1.03.45.15.07.31.14.38.29.02.04.03.08.04.12.02.07.02.14,0,.21-.04.33-.2.65-.33.95-.13.32-.27.64-.41.95Z" fill="#54b948"/>
    <path d="M399.15,696.16c.12-.64.1-1.32-.16-1.91-.2-.46-.53-.85-.92-1.17.35-.25.64-.57.81-.99.31-.73.27-1.54.1-2.3-.2-.85-.55-1.72-1.04-2.45-.37-.53-.86-1-1.47-1.24-.48-.19-1.01-.24-1.53-.17-.02,0-.04,0-.05,0,.06-.48.03-.96-.15-1.38-.3-.73-.9-1.28-1.56-1.7-.74-.46-1.61-.83-2.47-.99-.64-.12-1.32-.1-1.91.16-.4.17-.76.45-1.05.77-.32-.44-.71-.8-1.18-1.01-.73-.31-1.54-.27-2.3-.1-.85.2-1.72.55-2.45,1.04-.54.37-1,.86-1.24,1.47-.16.39-.22.82-.2,1.25-.56-.11-1.14-.1-1.65.11-.73.3-1.29.9-1.7,1.56-.46.74-.83,1.6-.99,2.47-.12.64-.1,1.32.16,1.91.2.46.53.86.93,1.18-.36.25-.67.58-.85,1.01-.31.73-.27,1.54-.1,2.3.2.85.55,1.72,1.04,2.45.37.54.86,1,1.46,1.24.48.19,1.01.24,1.53.17.03,0,.06,0,.08-.01-.06.48-.03.97.15,1.4.3.73.9,1.29,1.56,1.7.74.46,1.6.83,2.47.99.64.12,1.32.1,1.91-.16.4-.17.75-.44,1.04-.76.31.43.7.79,1.17.98.73.31,1.54.27,2.3.1.85-.2,1.72-.55,2.44-1.04.54-.37,1-.86,1.24-1.47.16-.4.22-.85.19-1.29.57.11,1.16.1,1.67-.1.73-.3,1.28-.9,1.7-1.56.46-.74.83-1.61.99-2.47ZM395.89,697.65c-.27.27-.63.45-1.02.44-.52-.01-1-.32-1.39-.63-.07-.06-.15-.12-.24-.16-.22-.1-.37.04-.47.23-.2.36-.44.8-.44,1.22,0,.04,0,.08.01.11-.01.03-.02.05-.01.07.09.39.17.28.24.67.18,1.01-.63,1.59-1.47,1.92-.35.14-.73.24-1.12.24-.38,0-.76-.12-1.03-.4-.17-.18-.28-.39-.37-.62.03-.1.05-.2.07-.3.04-.21.04-.4-.13-.56-.12-.12-.29-.2-.45-.27-.21-.1-.35-.15-.57-.24-.13-.05-.3-.11-.44-.07-.22.06-.27.31-.3.5-.07.4-.18.79-.42,1.12-.59.84-1.57.67-2.4.32-.35-.15-.69-.35-.96-.62-.27-.27-.45-.62-.44-1.01,0-.52.32-1,.63-1.39.06-.07.12-.15.16-.24.1-.22-.04-.37-.23-.47-.36-.2-.8-.44-1.22-.43-.21,0-.37.1-.51.25-.03.03-.06.07-.09.11-.2.07-.37.14-.63.18-1.01.18-1.59-.63-1.92-1.47-.14-.35-.25-.73-.24-1.12,0-.38.12-.76.4-1.03.38-.36.89-.12,1.09-.32,0,0,.01-.01.02-.02.03-.02.05-.04.07-.06.12-.12.2-.29.27-.45.1-.21.15-.35.24-.57.05-.14.11-.3.07-.44-.06-.22-.3-.27-.5-.3-.4-.07-.79-.19-1.12-.42-.84-.59-.68-1.57-.32-2.4.15-.35.35-.69.62-.96.27-.27.63-.45,1.02-.44.52,0,1,.32,1.39.63.07.06.15.12.24.16.22.1.37-.04.47-.23.19-.36.44-.8.43-1.22,0-.05,0-.1-.02-.14,0,0,0,0,0,0,0,0,0,0,0,0-.1-.39-.17-.28-.24-.68-.18-1.01.63-1.59,1.47-1.92.35-.14.73-.24,1.12-.24.38,0,.76.12,1.03.4.18.19.3.42.38.66-.02.09-.04.17-.06.26-.04.21-.04.4.13.56.12.12.29.2.45.27.21.09.35.15.57.23.13.05.3.11.44.07.22-.06.27-.3.3-.5.07-.4.19-.79.42-1.12.59-.84,1.57-.68,2.4-.32.35.15.69.35.96.62.27.27.45.63.44,1.02-.01.52-.32,1-.63,1.39-.06.07-.12.15-.16.24-.1.22.04.37.23.47.36.2.8.44,1.22.44.21,0,.37-.11.51-.25.04-.04.08-.09.12-.14.18-.06.34-.12.58-.17,1.01-.18,1.59.63,1.92,1.47.14.35.24.73.24,1.12,0,.38-.12.76-.4,1.03-.23.22-.52.22-.75.23,0,0,0,0-.01,0-.07,0-.13,0-.19.02,0,0-.02,0-.03,0-.03.01-.07.03-.1.05,0,0-.01,0-.02.01h0s-.04.03-.06.05c-.12.12-.2.29-.27.45-.09.21-.15.35-.23.57-.05.14-.11.3-.07.44.06.22.3.27.5.3.4.07.79.19,1.12.42.84.59.68,1.57.32,2.4-.15.35-.35.69-.62.96Z" fill="#54b948"/>
    <path d="M398.83,676.63c-.39.6-1.24.16-1.7-.12-.23-.14-.29-.37-.18-.62.07-.14.16-.26.25-.39.09-.13.17-.27.23-.41.14-.28.23-.58.27-.89.04-.34-.02-.69-.17-.99-.14-.28-.37-.5-.61-.7-.04-.04-.62-.46-.63-.45l-.11.18c1.44.95.86,2.11.67,2.44-.19.33-1.01,1.74-3.12.79-2.12-.95-2.07-2.71-1.19-4.21.88-1.5,2.58-1.69,4.7-.67,2.13,1.01,2.46,2.58,2.47,3.45,0,.87-.56,2.09-.88,2.58Z" fill="#54b948"/>
    <path d="M397.54,708.29s-.07.04-.11.06c-.16.08-.32.15-.48.21-.25.11-.5.21-.75.31-.31.12-.62.25-.93.37-.34.14-.67.27-1.01.4-.34.13-.67.26-1.01.4-.3.12-.61.24-.91.36-.35.14-.7.27-1.05.41-.15.06-.32.12-.47.07-.04-.01-.08-.03-.11-.06-.06-.04-.11-.09-.16-.14-.21-.25-.32-.6-.44-.9-.13-.32-.26-.64-.38-.96-.31-.85-.66-1.82-.4-2.73.27-.95,1.51-1.65,2.45-1.21.22.1.38.24.53.43.07.09.19.34.23.45h0s.28-.1.28-.1c0-.02-.07-.21-.09-.31-.02-.1-.04-.21-.04-.31,0-.11,0-.21.02-.32s.04-.21.07-.31c.03-.1.08-.2.13-.29.03-.05.06-.1.1-.15.29-.39.79-.63,1.28-.7.4-.06.76-.01,1.12.18.38.2.75.61.99.97.32.48.5.91.72,1.44.22.53.44,1.08.63,1.62.13.36.11.62-.22.83Z" fill="#54b948"/>
    <path d="M396.6,715.52c-2.22.79-3.57-.08-4.19-.69-.62-.61-1.08-1.87-1.2-2.45-.15-.7.76-.98,1.29-1.11.26-.06.47.06.56.31.05.14.07.3.1.45.03.15.07.31.12.46.1.29.25.58.44.82.21.26.5.48.82.58.3.1.62.1.92.06.06,0,.76-.11.76-.13l-.05-.21c-1.69.34-2.1-.88-2.2-1.25-.1-.37-.52-1.94,1.65-2.77,2.17-.82,3.38.45,3.82,2.13.44,1.68-.63,3.01-2.85,3.8Z" fill="#54b948"/>
    <path d="M376.81,700.34c-.2.38-.61.75-.97.99-.48.32-.91.5-1.44.72-.53.22-1.07.43-1.62.63-.36.13-.62.11-.84-.22-.02-.03-.04-.07-.06-.11-.08-.16-.15-.32-.21-.48-.11-.25-.21-.5-.31-.75-.13-.31-.25-.62-.37-.92-.14-.34-.27-.67-.4-1.01-.13-.34-.26-.67-.4-1.01-.12-.3-.24-.61-.36-.91-.14-.35-.27-.7-.41-1.04-.06-.15-.11-.32-.07-.47.01-.04.03-.08.05-.12.04-.06.09-.11.14-.16.26-.21.6-.31.9-.44.32-.13.64-.26.96-.38.85-.31,1.82-.66,2.73-.4.95.27,1.65,1.51,1.21,2.45-.1.22-.24.39-.43.53-.1.07-.34.19-.45.23h-.01s.12.29.12.29c.02,0,.21-.07.31-.09.1-.02.21-.04.31-.04.11,0,.21,0,.32.02.1.01.21.04.31.07.1.03.2.08.29.13.05.03.1.06.15.1.39.29.63.79.7,1.28.06.4.01.76-.17,1.12Z" fill="#54b948"/>
    <path d="M368.51,704.38c-1.68.44-3.01-.63-3.8-2.85-.79-2.22.08-3.56.7-4.19.61-.62,1.88-1.08,2.45-1.2.7-.15.99.76,1.11,1.29.06.26-.06.47-.31.56-.15.05-.3.07-.45.1-.15.03-.31.07-.46.12-.29.1-.58.25-.82.44-.26.21-.48.5-.58.82-.1.3-.1.62-.06.93,0,.06.11.76.13.76l.21-.05c-.34-1.69.88-2.1,1.25-2.21s1.94-.52,2.77,1.65c.83,2.17-.45,3.38-2.13,3.82Z" fill="#54b948"/>
    <path d="M385.22,708.6c-.22.53-.45,1.07-.7,1.59-.16.34-.36.52-.74.44-.04,0-.08-.02-.12-.04-.17-.06-.33-.12-.49-.19-.25-.1-.5-.21-.75-.31-.31-.13-.61-.26-.92-.39-.33-.14-.67-.29-1-.43-.33-.14-.66-.29-.99-.43-.3-.13-.6-.26-.9-.39-.34-.15-.69-.3-1.03-.45-.15-.07-.31-.14-.38-.29-.02-.04-.03-.08-.04-.12-.02-.07-.02-.14,0-.21.03-.33.2-.65.33-.95.13-.32.27-.64.42-.95.38-.82.82-1.76,1.65-2.21.86-.48,2.23-.1,2.59.88.08.23.1.44.07.68-.02.12-.1.37-.15.48h0s.28.13.28.13c.01-.02.1-.2.15-.28.06-.09.12-.17.19-.25.07-.08.15-.15.23-.21.08-.06.17-.12.27-.17.09-.05.19-.08.3-.11.06-.02.12-.03.18-.04.48-.08,1.01.12,1.4.41.32.24.55.53.67.92.13.41.1.96.01,1.39-.11.57-.29,1-.51,1.53Z" fill="#54b948"/>
    <path d="M382.7,714.41c-.88,1.5-2.58,1.68-4.7.67-2.13-1.01-2.46-2.58-2.47-3.45,0-.87.56-2.09.88-2.58.39-.6,1.24-.16,1.7.12.23.14.29.37.17.62-.06.14-.16.26-.24.39-.09.13-.17.27-.24.41-.14.28-.23.58-.27.89-.04.34.02.69.17.99.14.28.37.5.61.7.04.04.62.46.63.45,0,0,.11-.18.11-.18-1.44-.95-.86-2.11-.68-2.44.19-.33,1.01-1.74,3.13-.79,2.12.95,2.07,2.71,1.19,4.21Z" fill="#54b948"/>
    <path d="M404.95,699.22c-.14.33-.29.67-.43,1-.14.33-.29.66-.43.99-.13.3-.26.6-.39.9-.15.34-.3.69-.45,1.03-.07.15-.14.31-.29.38-.04.02-.08.03-.12.04-.07.02-.14.02-.21,0-.33-.03-.65-.2-.95-.33-.32-.13-.64-.27-.95-.41-.82-.38-1.75-.82-2.21-1.65-.48-.86-.1-2.23.88-2.59.23-.08.44-.1.68-.07.12.02.37.1.48.15h.01s.12-.27.12-.27c-.02-.01-.2-.1-.28-.15-.09-.06-.17-.12-.25-.19-.08-.07-.15-.15-.21-.23-.06-.08-.12-.18-.17-.27-.05-.09-.09-.19-.12-.3-.02-.06-.03-.12-.04-.18-.08-.48.11-1.01.41-1.4.24-.32.53-.55.92-.67.41-.13.96-.1,1.39-.01.57.12,1,.29,1.53.51.53.22,1.07.45,1.59.7.34.16.52.36.44.74,0,.04-.02.08-.04.12-.06.17-.12.33-.19.49-.1.25-.2.5-.31.75-.13.31-.26.61-.39.92Z" fill="#54b948"/>
    <path d="M395.75,692.08c-.07,0-.13,0-.19.02.06-.02.12-.02.19-.02Z" fill="#54b948"/>
    <path d="M409.66,698.01c-1.5-.88-3.26-.93-4.21,1.19-.95,2.12.46,2.94.79,3.13.33.19,1.49.76,2.44-.68l.18.11s-.41.59-.45.63c-.2.24-.42.47-.7.61-.3.16-.65.21-.99.17-.31-.03-.61-.13-.89-.27-.14-.07-.28-.15-.41-.24-.13-.09-.25-.18-.39-.24-.24-.12-.48-.06-.62.17-.28.46-.73,1.31-.12,1.7.49.32,1.71.89,2.58.88.87,0,2.44-.34,3.45-2.47,1.01-2.13.83-3.82-.67-4.7ZM407.92,701.33s.09,0,.13-.01c-.04,0-.09.01-.13.01Z" fill="#54b948"/>
    <path d="M382.63,674.59c-.27.06-.47-.06-.56-.31-.05-.15-.07-.3-.1-.45-.03-.15-.07-.31-.12-.46-.1-.29-.25-.58-.44-.82-.21-.26-.5-.48-.82-.58-.3-.1-.62-.1-.92-.06-.06,0-.76.11-.76.13l.05.21c1.69-.34,2.1.88,2.2,1.25.1.37.52,1.94-1.65,2.77-2.17.82-3.38-.45-3.82-2.13s.63-3.01,2.85-3.8c2.22-.79,3.56.08,4.19.7.62.61,1.08,1.87,1.2,2.45.15.7-.76.99-1.29,1.11Z" fill="#54b948"/>
    <path d="M383.34,680.99c-.22-.1-.39-.24-.53-.43-.07-.1-.19-.34-.23-.45h0s-.28.1-.28.1c0,.02.07.21.09.31.02.1.04.21.04.31,0,.11,0,.21-.02.32s-.04.21-.07.31c-.03.1-.08.2-.13.29-.03.05-.06.1-.1.15-.28.4-.79.63-1.28.7-.4.06-.76.01-1.12-.17-.38-.2-.75-.61-.99-.97-.32-.48-.5-.91-.72-1.44-.22-.53-.44-1.08-.63-1.62-.13-.36-.11-.62.22-.84.04-.02.07-.04.11-.06.16-.08.32-.15.48-.21.25-.11.5-.21.75-.31.31-.13.62-.25.93-.37.34-.14.67-.27,1.01-.4.34-.13.67-.26,1.01-.4.3-.12.61-.24.91-.36.35-.14.7-.27,1.05-.41.15-.06.32-.12.47-.07.04.01.08.03.11.05.06.04.11.09.16.14.21.26.31.6.44.9.13.32.26.64.38.96.31.85.66,1.82.4,2.73-.27.95-1.51,1.65-2.45,1.21Z" fill="#54b948"/>
    <path d="M445.5,682.07c.04-.05.07-.1.1-.16.05-.1.09-.19.12-.3.03-.1.05-.21.06-.31.01-.11.01-.21,0-.32,0-.11-.02-.21-.05-.32-.03-.1-.09-.29-.1-.31l.28-.13h0c.05.12.18.36.25.46.15.19.32.32.54.42.97.42,2.2-.33,2.45-1.3.24-.93-.14-1.91-.48-2.76-.13-.33-.27-.65-.41-.97-.14-.3-.26-.65-.47-.9-.05-.05-.1-.1-.16-.14-.04-.02-.08-.04-.12-.05-.16-.04-.33.01-.48.08-.34.15-.7.29-1.05.44-.3.13-.61.26-.91.39-.34.14-.67.29-1.01.43-.34.14-.68.29-1.01.44-.31.13-.62.27-.93.41-.25.11-.5.22-.75.34-.16.07-.32.15-.48.23-.04.02-.08.04-.11.06-.33.23-.34.49-.2.85.21.54.45,1.09.68,1.62.24.54.43.96.77,1.44.25.36.64.76,1.03.96.37.18.74.22,1.14.14.49-.08.99-.34,1.27-.75ZM443.95,680.44l.25-.11s-.08.05-.12.07-.09.03-.13.04Z" fill="#54b948"/>
    <path d="M442.69,676.43c-2.18.9-3.44-.36-3.93-2.05-.49-1.69.55-3.07,2.78-3.93,2.23-.86,3.62-.02,4.26.59.65.61,1.15,1.87,1.29,2.45.17.71-.74,1.02-1.27,1.16-.27.07-.48-.05-.58-.3-.06-.15-.08-.3-.11-.45-.03-.16-.08-.31-.14-.46-.11-.29-.27-.57-.47-.81-.22-.26-.52-.47-.85-.56-.31-.09-.63-.08-.94-.04-.06,0-.77.14-.77.15l.06.21c1.7-.4,2.16.84,2.27,1.2.11.37.58,1.95-1.6,2.85Z" fill="#54b948"/>
    <path d="M457.69,698.16s-.07-.03-.11-.03c.04,0,.07.01.11.03Z" fill="#54b948"/>
    <path d="M466.79,704.2c-.07.02-.14.02-.21.02-.33-.03-.66-.19-.97-.3-.33-.12-.65-.26-.98-.39-.84-.36-1.8-.78-2.29-1.61-.51-.86-.17-2.26.82-2.65.23-.09.44-.12.68-.09.12.01.38.09.49.14h.01s.11-.28.11-.28c-.02-.01-.2-.09-.29-.15-.09-.05-.18-.12-.26-.19-.08-.07-.16-.15-.22-.23-.07-.08-.13-.17-.18-.27-.05-.1-.09-.19-.13-.3-.02-.06-.03-.12-.04-.18-.09-.49.09-1.02.37-1.43.23-.34.52-.57.91-.7.42-.14.97-.13,1.41-.05.58.1,1.02.26,1.56.47.54.21,1.1.43,1.63.66.35.16.53.35.46.74,0,.04-.02.08-.03.12-.05.17-.12.34-.18.5-.09.26-.19.51-.29.77-.12.31-.25.63-.37.94-.13.34-.27.68-.41,1.02-.14.34-.27.68-.41,1.02-.12.31-.25.62-.37.92-.14.35-.28.71-.43,1.05-.06.15-.14.31-.28.39-.04.02-.08.04-.12.05Z" fill="#54b948"/>
    <path d="M474.36,703.13c.97-2.18.73-3.9-.82-4.75-1.55-.85-3.33-.85-4.23,1.33s.55,2.96.89,3.14c.34.18,1.53.73,2.46-.75l.19.11s-.4.61-.44.65c-.19.25-.41.48-.69.64-.3.17-.66.23-1,.2-.31-.02-.62-.11-.91-.24-.15-.07-.29-.14-.42-.23-.13-.08-.26-.18-.4-.24-.25-.11-.48-.05-.62.2-.27.47-.7,1.34-.08,1.72.51.31,1.76.85,2.64.82.89-.03,2.46-.42,3.43-2.6ZM471.52,701.67s.04.02.06.03c.15.06.31.08.47.07-.18.07-.39.02-.54-.1Z" fill="#54b948"/>
    <path d="M467.42,690.89c-.85.34-1.83.72-2.76.48-.97-.25-1.72-1.48-1.3-2.45.1-.22.23-.4.42-.55.09-.07.33-.2.44-.25h.01s-.13-.29-.13-.29c-.02,0-.21.08-.31.1-.1.03-.21.04-.32.05-.11,0-.21,0-.32,0-.11-.01-.21-.03-.31-.06-.1-.03-.2-.07-.3-.12-.05-.03-.11-.06-.16-.1-.41-.28-.66-.79-.75-1.27-.07-.4-.04-.77.14-1.14.19-.4.6-.78.96-1.03.48-.34.91-.53,1.44-.77.53-.24,1.08-.47,1.62-.68.36-.14.63-.13.85.2.02.04.04.07.06.11.08.16.16.32.23.48.11.25.23.5.34.75.14.31.27.62.41.93.15.34.29.68.44,1.01.14.34.29.67.43,1.01.13.3.26.61.39.91.15.35.3.7.44,1.05.07.15.13.32.08.48-.01.04-.03.08-.05.12-.04.06-.09.12-.14.16-.25.22-.6.34-.9.47-.32.14-.64.28-.97.41Z" fill="#54b948"/>
    <path d="M457.63,703.9c.53-.39.99-.9,1.22-1.52.17-.48.21-1,.14-1.5.43.06.87.02,1.29-.16.73-.32,1.28-.95,1.68-1.62.45-.76.8-1.65.94-2.53.1-.65.06-1.34-.22-1.93-.22-.48-.58-.88-1.01-1.19-.02-.01-.03-.02-.05-.03.38-.31.68-.69.85-1.12.29-.74.23-1.57.04-2.33-.22-.86-.6-1.73-1.13-2.45-.39-.53-.9-.99-1.52-1.22-.42-.15-.87-.2-1.31-.16.07-.54.04-1.09-.17-1.56-.32-.73-.95-1.28-1.62-1.68-.77-.45-1.65-.8-2.53-.94-.65-.1-1.34-.06-1.94.21-.39.18-.73.46-1.01.78-.34-.47-.77-.87-1.29-1.07-.75-.29-1.57-.23-2.33-.04-.86.22-1.73.6-2.45,1.13-.53.39-.99.9-1.22,1.52-.18.48-.21,1.01-.14,1.51-.45-.07-.9-.04-1.33.15-.73.32-1.28.95-1.68,1.62-.45.76-.8,1.65-.94,2.53-.1.65-.06,1.34.21,1.94.22.48.58.88,1.01,1.19.02.02.05.03.07.05-.38.31-.69.69-.87,1.13-.29.75-.23,1.57-.04,2.33.22.86.6,1.73,1.13,2.45.39.53.9.99,1.52,1.22.41.15.86.19,1.29.16-.07.53-.03,1.07.17,1.54.32.73.95,1.28,1.63,1.67.76.45,1.65.8,2.53.94.65.1,1.34.06,1.94-.21.4-.19.75-.47,1.04-.81.35.48.78.88,1.3,1.09.75.29,1.57.23,2.33.04.86-.22,1.73-.6,2.45-1.13ZM454.18,702.73c-.39,0-.77-.1-1.06-.38-.38-.37-.51-.93-.59-1.44-.01-.1-.03-.19-.06-.28-.1-.22-.3-.23-.5-.16-.39.13-.89.28-1.17.6-.03.03-.05.06-.07.09-.03,0-.05.02-.06.04-.2.35-.07.32-.3.66-.57.87-1.57.73-2.42.39-.36-.14-.71-.33-.99-.6-.28-.27-.47-.62-.48-1.02,0-.25.06-.49.16-.71.09-.05.17-.11.26-.17.18-.12.31-.27.3-.5,0-.18-.08-.35-.14-.51-.09-.21-.15-.35-.26-.57-.07-.13-.15-.29-.27-.36-.2-.11-.41.04-.57.16-.33.25-.69.45-1.09.54-1.02.21-1.63-.6-1.99-1.43-.15-.35-.27-.73-.28-1.12-.01-.39.1-.77.38-1.06.37-.38.93-.51,1.43-.59.1-.01.19-.03.28-.06.23-.1.23-.3.16-.51-.13-.39-.28-.88-.59-1.17-.16-.14-.35-.18-.55-.17-.05,0-.1,0-.14.02-.19-.09-.37-.15-.59-.3-.87-.57-.73-1.57-.39-2.42.14-.36.33-.71.6-.99.27-.28.62-.47,1.02-.48.53,0,.74.53,1.03.52,0,0,.02,0,.03,0,.03,0,.06,0,.1,0,.18,0,.35-.08.51-.14.21-.09.35-.15.57-.26.13-.06.29-.15.36-.27.11-.2-.04-.41-.15-.57-.25-.33-.45-.69-.54-1.09-.21-1.02.59-1.63,1.43-1.99.35-.15.74-.27,1.12-.28.39-.01.77.1,1.06.38.38.37.51.93.59,1.44.01.1.03.19.06.28.1.23.3.23.51.16.39-.13.89-.28,1.17-.6.03-.04.06-.08.09-.12,0,0,0,0,0,0,0,0,0,0,0,0,.2-.35.07-.32.3-.66.58-.87,1.57-.73,2.42-.39.36.14.71.33.99.6.28.27.47.62.48,1.02,0,.26-.07.52-.18.76-.08.05-.15.1-.23.15-.18.13-.3.27-.3.5,0,.18.08.35.14.51.09.21.15.35.26.57.06.13.15.29.27.36.2.11.41-.04.57-.16.33-.24.69-.45,1.09-.53,1.02-.21,1.63.59,1.99,1.43.15.35.27.74.28,1.12,0,.39-.1.77-.38,1.06-.37.38-.93.51-1.44.59-.1.01-.19.03-.28.06-.22.1-.23.3-.16.5.13.39.28.89.6,1.17.16.14.35.18.55.17.06,0,.12-.01.18-.02.17.08.34.15.54.28.87.58.73,1.57.39,2.42-.14.36-.33.71-.6.99-.27.28-.62.47-1.02.48-.33,0-.53-.2-.71-.35,0,0,0,0,0,0-.05-.05-.1-.09-.15-.12,0,0-.02,0-.03-.01-.03-.01-.07-.03-.11-.03,0,0-.01,0-.02,0h0s-.05,0-.08,0c-.18,0-.35.08-.51.14-.21.09-.35.15-.57.26-.13.06-.29.15-.36.27-.11.2.04.41.15.57.25.33.45.69.54,1.09.21,1.02-.59,1.63-1.43,1.99-.35.15-.74.27-1.12.28Z" fill="#54b948"/>
    <path d="M471,689.29c-.71.17-1.02-.74-1.16-1.27-.07-.27.05-.48.3-.58.15-.06.3-.08.45-.11.16-.04.31-.08.46-.14.3-.11.58-.27.82-.47.26-.22.47-.52.57-.85.09-.31.08-.63.04-.94,0-.06-.14-.78-.15-.77l-.21.06c.4,1.7-.84,2.16-1.21,2.27-.37.11-1.95.58-2.85-1.59-.9-2.18.36-3.44,2.05-3.93,1.69-.49,3.07.55,3.93,2.78.86,2.23.02,3.61-.58,4.26-.61.65-1.87,1.15-2.45,1.29Z" fill="#54b948"/>
    <path d="M447.99,711.71s-.08-.02-.12-.03c-.17-.05-.34-.12-.5-.18-.26-.1-.51-.19-.77-.29-.31-.12-.63-.25-.94-.37-.34-.13-.68-.27-1.03-.41-.34-.14-.68-.27-1.02-.41-.31-.12-.61-.25-.92-.37-.35-.14-.71-.29-1.05-.43-.16-.06-.31-.14-.4-.28-.02-.04-.04-.08-.04-.12-.02-.07-.02-.14-.02-.21.03-.33.19-.66.3-.97.12-.33.26-.65.39-.97.36-.84.78-1.8,1.61-2.29.86-.51,2.26-.17,2.65.82.09.23.12.44.09.68-.02.12-.1.38-.14.49h0s.29.12.29.12c0-.02.09-.21.15-.29.05-.09.12-.18.19-.26.07-.08.15-.16.23-.22s.17-.13.27-.18c.1-.05.19-.09.3-.13.06-.02.12-.03.18-.04.49-.09,1.03.09,1.43.37.34.23.57.52.7.91.14.42.13.97.05,1.41-.1.58-.26,1.02-.47,1.56-.21.54-.43,1.1-.66,1.63-.15.35-.35.53-.74.46Z" fill="#54b948"/>
    <path d="M442.26,716.39c-2.18-.96-2.57-2.54-2.6-3.43-.03-.89.51-2.13.82-2.64.38-.62,1.25-.19,1.72.08.24.14.3.37.19.62-.06.14-.15.27-.24.4-.09.13-.16.28-.23.42-.13.29-.22.6-.24.91-.03.34.03.7.2,1,.15.28.39.5.64.69.05.04.63.45.65.44l.11-.19c-1.48-.92-.93-2.12-.75-2.46.18-.34.97-1.79,3.14-.89,2.17.91,2.18,2.69,1.33,4.23-.85,1.55-2.56,1.78-4.75.82Z" fill="#54b948"/>
    <path d="M438.26,691.41c-.42.14-.97.13-1.41.05-.58-.1-1.02-.26-1.57-.47-.54-.21-1.09-.43-1.63-.66-.35-.16-.53-.35-.46-.74,0-.04.02-.08.03-.12.05-.17.12-.34.18-.5.1-.26.19-.51.29-.77.12-.31.24-.63.37-.94.14-.34.27-.68.41-1.03.14-.34.27-.68.41-1.02.13-.31.25-.61.37-.92.14-.35.29-.71.43-1.05.06-.15.14-.31.28-.39.04-.02.08-.04.12-.05.07-.02.14-.02.21-.02.33.03.66.19.97.3.33.12.65.25.98.39.84.36,1.8.78,2.29,1.61.51.86.17,2.26-.81,2.65-.23.09-.44.12-.68.09-.12-.02-.38-.1-.49-.14h-.01s-.11.28-.11.28c.02,0,.2.09.29.15.09.05.18.12.26.19.08.07.15.15.22.23.07.08.13.17.18.27.05.1.09.19.12.3.02.06.03.12.04.18.09.49-.09,1.02-.37,1.43-.24.34-.52.57-.91.71Z" fill="#54b948"/>
    <path d="M429.33,688.61c-1.55-.85-1.78-2.56-.82-4.75.97-2.18,2.54-2.57,3.43-2.6.88-.03,2.13.51,2.64.82.62.38.2,1.25-.08,1.72-.14.24-.37.3-.62.2-.14-.06-.27-.15-.4-.24-.14-.09-.28-.16-.42-.23-.29-.13-.6-.22-.91-.24-.34-.03-.7.04-1,.2-.28.15-.5.39-.69.64-.04.05-.45.63-.44.65l.19.11c.92-1.48,2.12-.93,2.46-.75s1.79.97.89,3.14c-.9,2.17-2.68,2.18-4.23,1.33Z" fill="#54b948"/>
    <path d="M438.69,703.36c-.53.24-1.08.47-1.62.68-.36.14-.62.13-.85-.2-.02-.04-.04-.07-.06-.11-.08-.16-.16-.32-.23-.48-.11-.25-.23-.5-.34-.75-.14-.31-.27-.62-.41-.93-.15-.34-.29-.68-.44-1.01-.14-.34-.29-.67-.43-1.01-.13-.31-.26-.61-.39-.91-.15-.35-.3-.7-.44-1.05-.06-.15-.13-.32-.08-.48.01-.04.03-.08.05-.12.04-.06.09-.12.14-.16.25-.22.6-.34.9-.47.32-.14.64-.28.97-.41.85-.34,1.83-.72,2.76-.48.97.25,1.72,1.48,1.3,2.45-.1.22-.23.4-.42.54-.09.07-.34.2-.45.25h-.01s.13.29.13.29c.02-.01.21-.08.31-.1.1-.03.21-.04.32-.05.11,0,.21,0,.32,0,.11.01.21.03.31.06.1.03.2.07.3.12.05.03.11.06.16.1.41.28.66.79.75,1.27.07.4.03.77-.15,1.14-.19.39-.6.78-.96,1.03-.48.34-.91.53-1.44.77Z" fill="#54b948"/>
    <path d="M432.8,705.89c-1.69.49-3.07-.55-3.93-2.78-.86-2.23-.02-3.62.59-4.26.6-.65,1.87-1.15,2.45-1.29.71-.17,1.02.74,1.17,1.27.07.27-.05.48-.3.58-.14.06-.3.08-.45.11-.16.03-.31.08-.46.14-.29.11-.58.27-.82.47-.26.22-.47.52-.56.85-.09.3-.08.63-.04.94,0,.06.14.77.15.77,0,0,.21-.06.21-.06-.4-1.7.84-2.16,1.2-2.27.37-.11,1.95-.58,2.85,1.6.9,2.18-.36,3.44-2.05,3.93Z" fill="#54b948"/>
    <path d="M459.77,710.2c-.34.15-.68.29-1.01.44-.34.14-.67.29-1.01.43-.31.13-.61.26-.91.39-.35.15-.7.3-1.05.44-.15.07-.32.13-.48.08-.04-.01-.08-.03-.12-.05-.06-.04-.12-.09-.16-.14-.22-.25-.34-.6-.47-.9-.15-.32-.28-.64-.41-.97-.34-.85-.72-1.83-.48-2.76.25-.97,1.48-1.72,2.45-1.3.22.1.4.23.55.42.07.09.2.33.25.44h0s.28-.11.28-.11c-.01-.02-.08-.21-.1-.31-.03-.1-.04-.21-.05-.32,0-.11,0-.21,0-.32.01-.11.03-.21.06-.31.03-.1.07-.2.12-.3.03-.05.06-.11.1-.16.28-.41.79-.66,1.27-.75.4-.07.77-.04,1.14.14.39.19.78.6,1.03.96.34.48.53.91.77,1.44.23.53.47,1.08.68,1.62.14.36.13.63-.2.85-.03.02-.07.04-.11.06-.16.08-.32.16-.48.23-.25.11-.5.22-.75.34-.31.14-.62.27-.93.41Z" fill="#54b948"/>
    <path d="M457.96,698.53c-.05-.05-.1-.09-.15-.12.06.03.11.07.15.12Z" fill="#54b948"/>
    <path d="M464.08,712.59c-.49-1.69-1.75-2.95-3.93-2.05-2.18.9-1.71,2.49-1.6,2.85.11.37.57,1.6,2.27,1.2l.06.21s-.71.14-.77.15c-.31.04-.63.05-.94-.04-.33-.1-.63-.3-.85-.56-.2-.24-.36-.52-.47-.82-.06-.15-.1-.3-.14-.46-.03-.15-.06-.3-.11-.45-.1-.26-.31-.38-.58-.3-.53.14-1.44.46-1.27,1.16.14.58.64,1.84,1.29,2.45.65.61,2.03,1.45,4.26.58,2.23-.86,3.27-2.24,2.78-3.93ZM460.48,713.82s.07.06.11.09c-.04-.02-.08-.05-.11-.09Z" fill="#54b948"/>
    <path d="M460.48,676.5c-.24-.14-.3-.37-.2-.62.06-.14.15-.27.24-.4.09-.13.16-.28.23-.42.13-.29.22-.6.24-.91.03-.34-.03-.7-.2-1-.15-.28-.39-.5-.64-.69-.05-.04-.63-.45-.65-.44l-.11.19c1.48.92.93,2.12.75,2.45-.18.34-.97,1.79-3.14.89-2.17-.91-2.18-2.68-1.33-4.23.85-1.55,2.56-1.78,4.75-.82,2.18.97,2.57,2.54,2.6,3.43.03.88-.51,2.13-.82,2.64-.38.62-1.25.2-1.72-.08Z" fill="#54b948"/>
    <path d="M456.55,681.71c-.09-.23-.12-.44-.09-.68.02-.12.1-.38.14-.49h0s-.29-.12-.29-.12c0,.02-.09.2-.15.29-.05.09-.12.18-.19.26-.07.08-.15.16-.23.22s-.17.13-.27.18c-.1.05-.19.09-.3.13-.06.02-.12.03-.18.04-.49.09-1.02-.09-1.43-.37-.34-.23-.57-.52-.71-.91-.14-.42-.13-.97-.05-1.41.1-.58.26-1.02.47-1.56.21-.54.43-1.1.66-1.63.16-.35.35-.53.74-.46.04,0,.08.02.12.03.17.05.34.12.5.18.26.1.51.19.77.29.31.12.63.25.94.37.34.13.68.27,1.03.41.34.14.68.27,1.02.41.31.12.62.25.92.37.35.14.71.29,1.06.43.15.06.31.14.39.28.02.04.04.08.05.12.02.07.02.14.02.21-.03.33-.19.66-.3.97-.12.33-.26.65-.39.98-.36.84-.78,1.8-1.61,2.29-.86.51-2.26.17-2.65-.82Z" fill="#54b948"/>
  </g>
</svg>