<?xml version="1.0" encoding="UTF-8"?>
<svg id="Layer_1" xmlns="http://www.w3.org/2000/svg" version="1.1" viewBox="0 0 1719.06 798.84">
  <!-- Generator: Adobe Illustrator 29.4.0, SVG Export Plug-In . SVG Version: 2.1.0 Build 152)  -->
  <path id="sun-petals" d="M1495.87,448.87c0-10.13-3.22-19.5-8.7-27.15,5.94-7.84,9.47-17.6,9.47-28.19,0-11.39-4.08-21.83-10.85-29.94,2.39-.92,4.74-1.93,7.04-3.02,1,10.42,5.49,20.57,13.47,28.55,7.16,7.16,16.07,11.51,25.35,13.05,1.34,9.74,5.75,19.14,13.24,26.63,18.25,18.25,47.83,18.25,66.07,0,18.25-18.25,18.25-47.83,0-66.07-7.16-7.16-16.07-11.51-25.35-13.05-1.34-9.74-5.75-19.14-13.24-26.63-8.19-8.19-18.67-12.7-29.38-13.54,1.06-2.35,2.03-4.74,2.92-7.17,8.12,6.82,18.59,10.92,30.02,10.92,10.13,0,19.5-3.22,27.15-8.7,7.84,5.94,17.6,9.47,28.19,9.47,25.8,0,46.72-20.92,46.72-46.72s-20.92-46.72-46.72-46.72c-10.13,0-19.5,3.22-27.15,8.7-7.84-5.94-17.6-9.47-28.19-9.47-11.53,0-22.09,4.18-30.24,11.11-.87-2.34-1.82-4.64-2.84-6.89,10.52-.95,20.78-5.44,28.83-13.49,7.16-7.16,11.51-16.07,13.05-25.35,9.74-1.34,19.14-5.75,26.63-13.24,18.25-18.25,18.25-47.83,0-66.07-18.25-18.25-47.83-18.25-66.07,0-7.16,7.16-11.51,16.07-13.05,25.35-9.74,1.34-19.14,5.75-26.63,13.24-7.96,7.96-12.45,18.09-13.46,28.48-2.18-1.01-4.4-1.95-6.66-2.81,6.5-8.03,10.4-18.25,10.4-29.38,0-10.13-3.22-19.5-8.7-27.15,5.94-7.84,9.47-17.6,9.47-28.19,0-25.8-20.92-46.72-46.72-46.72s-46.72,20.92-46.72,46.72c0,10.13,3.22,19.5,8.7,27.15-5.94,7.84-9.47,17.6-9.47,28.19s3.78,21.06,10.11,29.03c-2.07.77-4.11,1.6-6.11,2.49-1.21-10.02-5.66-19.73-13.35-27.42-7.16-7.16-16.07-11.51-25.35-13.05-1.34-9.74-5.75-19.14-13.24-26.63-18.25-18.25-47.83-18.25-66.07,0-18.25,18.25-18.25,47.83,0,66.07,7.16,7.16,16.07,11.51,25.35,13.05,1.34,9.74,5.75,19.14,13.24,26.63,7.62,7.62,17.21,12.05,27.14,13.31-.9,1.98-1.73,4-2.5,6.05-7.89-6.08-17.77-9.7-28.5-9.7-10.13,0-19.5,3.22-27.15,8.7-7.84-5.94-17.6-9.47-28.19-9.47-25.8,0-46.72,20.92-46.72,46.72s20.92,46.72,46.72,46.72c10.13,0,19.5-3.22,27.15-8.7,7.84,5.94,17.6,9.47,28.19,9.47s20.8-3.69,28.72-9.87c.82,2.13,1.71,4.22,2.66,6.28-9.92,1.26-19.52,5.69-27.13,13.31-7.16,7.16-11.51,16.07-13.05,25.35-9.74,1.34-19.14,5.75-26.63,13.24-18.25,18.25-18.25,47.83,0,66.07,18.25,18.25,47.83,18.25,66.07,0,7.16-7.16,11.51-16.07,13.05-25.35,9.74-1.34,19.14-5.75,26.63-13.24,7.85-7.85,12.32-17.8,13.42-28.05,2.14.94,4.31,1.81,6.52,2.61-6.39,7.99-10.21,18.12-10.21,29.15,0,10.13,3.22,19.5,8.7,27.15-5.94,7.84-9.47,17.6-9.47,28.19,0,25.8,20.92,46.72,46.72,46.72s46.72-20.92,46.72-46.72Z" fill="#54b948"/>
</svg>