<?xml version="1.0" encoding="UTF-8"?>
<svg id="Layer_1" xmlns="http://www.w3.org/2000/svg" version="1.1" viewBox="0 0 1719.06 798.84">
  <!-- Generator: Adobe Illustrator 29.4.0, SVG Export Plug-In . SVG Version: 2.1.0 Build 152)  -->
  <g id="sun-face">
    <path d="M1483.83,291.84c.15,11.59-2.11,21.55-11.79,28.37-.44.31-.87.62-1.32.9-11.44,7.07-37.22,6.37-47.81-1.98-3.47-2.73-6.23-6.98-8.01-11.1-3.13-7.26-2.84-15.14-1.58-22.85.93-5.68,3.08-7.23,8.81-6.8,2.99.23,6.74-.02,8.65,1.65,1.27,1.11,0,5.26-.31,8.02-1.09,9.54,3.29,15.57,12.76,16.72,3.78.46,7.74.32,11.51-.28,7.29-1.16,10.87-5.48,11.09-12.92.08-2.64-.34-5.31-.69-7.94-.39-2.96.75-4.72,3.73-4.93,2.78-.19,5.6-.28,8.38-.11,3.54.22,5.56,2.36,5.98,5.85.32,2.64.43,5.31.59,7.38Z" fill="#e0efd5"/>
    <g>
      <path d="M1494.62,244.61c-.26-.41-.54-.8-.84-1.17-.52-.65-1.1-1.25-1.73-1.78-.64-.52-1.31-1.01-2.02-1.42-.72-.41-1.47-.76-2.26-1.04-.77-.27-1.58-.49-2.41-.62-.79-.12-2.32-.21-2.52-.21l-.02-2.38h.11c.92,0,3.03-.16,3.93-.4,1.82-.46,3.29-1.29,4.67-2.57,5.95-5.63,4.42-16.67-1.67-21.43-5.85-4.57-13.95-4.89-21.05-5.08-2.72-.07-5.43-.1-8.14-.06-2.56.04-5.4-.19-7.86.57-.52.16-1.05.4-1.5.72-.26.19-.51.41-.72.66-.81,1-.9,2.36-.91,3.66-.02,2.9-.07,5.87-.07,8.8-.02,2.56-.04,5.12-.06,7.69-.01,2.83-.04,5.65-.05,8.49-.01,2.85-.02,5.69-.02,8.54,0,2.62,0,5.23.02,7.84.01,2.12.04,4.23.07,6.35.02,1.37.06,2.76.15,4.13.04.32.05.66.11.97.61,3.02,2.47,3.92,5.44,4.03,4.51.17,9.11.17,13.62.15,4.53-.04,8.16-.12,12.6-1.04,3.34-.7,7.39-2.17,9.98-4.38,2.41-2.06,3.81-4.58,4.54-7.66.9-3.72.65-8.11-1.39-11.34ZM1478.27,250.62v-2.12c.07.32.11.69.11,1.06s-.04.74-.11,1.06Z" fill="#e0efd5"/>
      <path d="M1445.9,247.23c-.32,18.22-13.13,23.31-26.68,21.59-13.54-1.72-20.11-13.39-19.37-31.85.74-18.47,10.99-25.75,17.28-28.47,6.29-2.73,16.81-2.4,21.35-1.61,5.54.95,4.95,8.42,4.36,12.62-.31,2.12-1.81,3.23-3.92,3.17-1.21-.04-2.37-.35-3.56-.57-1.21-.24-2.45-.37-3.68-.44-2.43-.11-4.9.12-7.24.84-2.56.79-4.93,2.23-6.63,4.29-1.57,1.9-2.5,4.21-3.16,6.55-.12.44-1.42,5.92-1.3,5.94l1.65.24c2.42-13.32,12.58-12.74,15.54-12.42,2.96.34,15.67,1.88,15.35,20.12Z" fill="#e0efd5"/>
    </g>
  </g>
</svg>